solid CATIA STL
  facet normal -1.000000e+000  0.000000e+000  0.000000e+000
    outer loop
      vertex  4.150000e+001  2.650000e+001  5.300000e+000
      vertex  4.150000e+001  2.650000e+001  4.000000e-001
      vertex  4.150000e+001  6.200000e+000  5.300000e+000
    endloop
  endfacet
  facet normal -1.000000e+000  0.000000e+000  0.000000e+000
    outer loop
      vertex  4.150000e+001  6.200000e+000  5.300000e+000
      vertex  4.150000e+001  2.650000e+001  4.000000e-001
      vertex  4.150000e+001  6.200000e+000  4.000000e-001
    endloop
  endfacet
  facet normal -1.000000e+000  0.000000e+000  0.000000e+000
    outer loop
      vertex  4.150000e+001 -6.200000e+000  5.300000e+000
      vertex  4.150000e+001 -6.200000e+000  4.000000e-001
      vertex  4.150000e+001 -2.650000e+001  5.300000e+000
    endloop
  endfacet
  facet normal -1.000000e+000  0.000000e+000  0.000000e+000
    outer loop
      vertex  4.150000e+001 -2.650000e+001  5.300000e+000
      vertex  4.150000e+001 -6.200000e+000  4.000000e-001
      vertex  4.150000e+001 -2.650000e+001  4.000000e-001
    endloop
  endfacet
  facet normal  1.000000e+000  -0.000000e+000  0.000000e+000
    outer loop
      vertex  4.135000e+001  6.200000e+000  1.090000e+001
      vertex  4.135000e+001 -6.200000e+000  1.090000e+001
      vertex  4.135000e+001  6.200000e+000  6.800000e+000
    endloop
  endfacet
  facet normal  1.000000e+000  0.000000e+000  0.000000e+000
    outer loop
      vertex  4.135000e+001  6.200000e+000  6.800000e+000
      vertex  4.135000e+001 -6.200000e+000  1.090000e+001
      vertex  4.135000e+001 -6.200000e+000  6.800000e+000
    endloop
  endfacet
  facet normal  0.000000e+000  -0.000000e+000 -1.000000e+000
    outer loop
      vertex  3.835000e+001 -2.650000e+001  5.300000e+000
      vertex  4.150000e+001 -6.200000e+000  5.300000e+000
      vertex  4.150000e+001 -2.650000e+001  5.300000e+000
    endloop
  endfacet
  facet normal  0.000000e+000  0.000000e+000 -1.000000e+000
    outer loop
      vertex  4.150000e+001 -6.200000e+000  5.300000e+000
      vertex  3.835000e+001 -2.650000e+001  5.300000e+000
      vertex  3.985000e+001 -6.200000e+000  5.300000e+000
    endloop
  endfacet
  facet normal  -0.000000e+000  0.000000e+000 -9.999999e-001
    outer loop
      vertex  3.985000e+001 -6.200000e+000  5.300000e+000
      vertex  3.835000e+001 -2.650000e+001  5.300000e+000
      vertex  3.835000e+001  2.650000e+001  5.300000e+000
    endloop
  endfacet
  facet normal  0.000000e+000  0.000000e+000 -1.000000e+000
    outer loop
      vertex  3.985000e+001 -6.200000e+000  5.300000e+000
      vertex  3.835000e+001  2.650000e+001  5.300000e+000
      vertex  3.985000e+001  6.200000e+000  5.300000e+000
    endloop
  endfacet
  facet normal  0.000000e+000  0.000000e+000 -1.000000e+000
    outer loop
      vertex  3.985000e+001  6.200000e+000  5.300000e+000
      vertex  3.835000e+001  2.650000e+001  5.300000e+000
      vertex  4.150000e+001  2.650000e+001  5.300000e+000
    endloop
  endfacet
  facet normal  0.000000e+000  -0.000000e+000 -1.000000e+000
    outer loop
      vertex  3.985000e+001  6.200000e+000  5.300000e+000
      vertex  4.150000e+001  2.650000e+001  5.300000e+000
      vertex  4.150000e+001  6.200000e+000  5.300000e+000
    endloop
  endfacet
  facet normal  0.000000e+000  1.000000e+000  -0.000000e+000
    outer loop
      vertex  4.350000e+001 -6.200000e+000  1.540000e+001
      vertex  4.135000e+001 -6.200000e+000  1.090000e+001
      vertex  4.017500e+001 -6.200000e+000  1.207500e+001
    endloop
  endfacet
  facet normal  0.000000e+000  1.000000e+000  0.000000e+000
    outer loop
      vertex  3.985000e+001 -6.200000e+000  5.300000e+000
      vertex  4.135000e+001 -6.200000e+000  6.800000e+000
      vertex  4.150000e+001 -6.200000e+000  5.300000e+000
    endloop
  endfacet
  facet normal  0.000000e+000  1.000000e+000  0.000000e+000
    outer loop
      vertex  4.350000e+001 -6.200000e+000  4.000000e-001
      vertex  4.150000e+001 -6.200000e+000  4.000000e-001
      vertex  4.350000e+001 -6.200000e+000  1.540000e+001
    endloop
  endfacet
  facet normal  0.000000e+000  1.000000e+000  0.000000e+000
    outer loop
      vertex  4.350000e+001 -6.200000e+000  1.540000e+001
      vertex  4.150000e+001 -6.200000e+000  4.000000e-001
      vertex  4.150000e+001 -6.200000e+000  5.300000e+000
    endloop
  endfacet
  facet normal  0.000000e+000  9.999999e-001  -0.000000e+000
    outer loop
      vertex  4.350000e+001 -6.200000e+000  1.540000e+001
      vertex  4.150000e+001 -6.200000e+000  5.300000e+000
      vertex  4.135000e+001 -6.200000e+000  1.090000e+001
    endloop
  endfacet
  facet normal  0.000000e+000  1.000000e+000  0.000000e+000
    outer loop
      vertex  4.135000e+001 -6.200000e+000  1.090000e+001
      vertex  4.150000e+001 -6.200000e+000  5.300000e+000
      vertex  4.135000e+001 -6.200000e+000  6.800000e+000
    endloop
  endfacet
  facet normal  0.000000e+000 -1.000000e+000  0.000000e+000
    outer loop
      vertex  4.017500e+001  6.200000e+000  1.207500e+001
      vertex  4.135000e+001  6.200000e+000  1.090000e+001
      vertex  4.350000e+001  6.200000e+000  1.540000e+001
    endloop
  endfacet
  facet normal  0.000000e+000 -1.000000e+000  -0.000000e+000
    outer loop
      vertex  4.150000e+001  6.200000e+000  5.300000e+000
      vertex  4.135000e+001  6.200000e+000  6.800000e+000
      vertex  3.985000e+001  6.200000e+000  5.300000e+000
    endloop
  endfacet
  facet normal  0.000000e+000 -1.000000e+000  -0.000000e+000
    outer loop
      vertex  4.350000e+001  6.200000e+000  4.000000e-001
      vertex  4.350000e+001  6.200000e+000  1.540000e+001
      vertex  4.150000e+001  6.200000e+000  4.000000e-001
    endloop
  endfacet
  facet normal  0.000000e+000 -1.000000e+000  0.000000e+000
    outer loop
      vertex  4.150000e+001  6.200000e+000  4.000000e-001
      vertex  4.350000e+001  6.200000e+000  1.540000e+001
      vertex  4.150000e+001  6.200000e+000  5.300000e+000
    endloop
  endfacet
  facet normal  0.000000e+000 -9.999999e-001  0.000000e+000
    outer loop
      vertex  4.350000e+001  6.200000e+000  1.540000e+001
      vertex  4.135000e+001  6.200000e+000  1.090000e+001
      vertex  4.150000e+001  6.200000e+000  5.300000e+000
    endloop
  endfacet
  facet normal  0.000000e+000 -1.000000e+000  0.000000e+000
    outer loop
      vertex  4.150000e+001  6.200000e+000  5.300000e+000
      vertex  4.135000e+001  6.200000e+000  1.090000e+001
      vertex  4.135000e+001  6.200000e+000  6.800000e+000
    endloop
  endfacet
  facet normal  -0.000000e+000  1.000000e+000  0.000000e+000
    outer loop
      vertex  2.420000e+001 -2.650000e+001  5.300000e+000
      vertex  2.420000e+001 -2.650000e+001  1.580000e+001
      vertex  3.835000e+001 -2.650000e+001  1.580000e+001
    endloop
  endfacet
  facet normal  0.000000e+000  1.000000e+000  0.000000e+000
    outer loop
      vertex  2.420000e+001 -2.650000e+001  5.300000e+000
      vertex  3.835000e+001 -2.650000e+001  1.580000e+001
      vertex  3.835000e+001 -2.650000e+001  5.300000e+000
    endloop
  endfacet
  facet normal  0.000000e+000  1.000000e+000  0.000000e+000
    outer loop
      vertex  2.420000e+001 -2.650000e+001  5.300000e+000
      vertex  3.835000e+001 -2.650000e+001  5.300000e+000
      vertex  2.300000e+001 -2.650000e+001  4.000000e-001
    endloop
  endfacet
  facet normal  0.000000e+000  9.999999e-001  0.000000e+000
    outer loop
      vertex  2.420000e+001 -2.650000e+001  5.300000e+000
      vertex  2.300000e+001 -2.650000e+001  4.000000e-001
      vertex  2.300000e+001 -2.650000e+001  5.300000e+000
    endloop
  endfacet
  facet normal  0.000000e+000  9.999999e-001  0.000000e+000
    outer loop
      vertex  3.835000e+001 -2.650000e+001  5.300000e+000
      vertex  4.150000e+001 -2.650000e+001  5.300000e+000
      vertex  2.300000e+001 -2.650000e+001  4.000000e-001
    endloop
  endfacet
  facet normal  0.000000e+000  1.000000e+000  0.000000e+000
    outer loop
      vertex  2.300000e+001 -2.650000e+001  4.000000e-001
      vertex  4.150000e+001 -2.650000e+001  5.300000e+000
      vertex  4.150000e+001 -2.650000e+001  4.000000e-001
    endloop
  endfacet
  facet normal  7.071068e-001  0.000000e+000 -7.071068e-001
    outer loop
      vertex  4.135000e+001  6.200000e+000  6.800000e+000
      vertex  4.135000e+001 -6.200000e+000  6.800000e+000
      vertex  3.985000e+001  6.200000e+000  5.300000e+000
    endloop
  endfacet
  facet normal  7.071068e-001  0.000000e+000 -7.071068e-001
    outer loop
      vertex  3.985000e+001  6.200000e+000  5.300000e+000
      vertex  4.135000e+001 -6.200000e+000  6.800000e+000
      vertex  3.985000e+001 -6.200000e+000  5.300000e+000
    endloop
  endfacet
  facet normal  1.000000e+000  0.000000e+000  0.000000e+000
    outer loop
      vertex -4.150000e+001  6.200000e+000  5.300000e+000
      vertex -4.150000e+001  6.200000e+000  4.000000e-001
      vertex -4.150000e+001  2.650000e+001  5.300000e+000
    endloop
  endfacet
  facet normal  1.000000e+000  0.000000e+000  0.000000e+000
    outer loop
      vertex -4.150000e+001  2.650000e+001  5.300000e+000
      vertex -4.150000e+001  6.200000e+000  4.000000e-001
      vertex -4.150000e+001  2.650000e+001  4.000000e-001
    endloop
  endfacet
  facet normal  1.000000e+000  0.000000e+000  0.000000e+000
    outer loop
      vertex -4.150000e+001 -2.650000e+001  5.300000e+000
      vertex -4.150000e+001 -2.650000e+001  4.000000e-001
      vertex -4.150000e+001 -6.200000e+000  5.300000e+000
    endloop
  endfacet
  facet normal  1.000000e+000  0.000000e+000  0.000000e+000
    outer loop
      vertex -4.150000e+001 -6.200000e+000  5.300000e+000
      vertex -4.150000e+001 -2.650000e+001  4.000000e-001
      vertex -4.150000e+001 -6.200000e+000  4.000000e-001
    endloop
  endfacet
  facet normal -1.000000e+000  0.000000e+000  0.000000e+000
    outer loop
      vertex -4.135000e+001  6.200000e+000  1.090000e+001
      vertex -4.135000e+001  6.200000e+000  6.800000e+000
      vertex -4.135000e+001 -6.200000e+000  1.090000e+001
    endloop
  endfacet
  facet normal -1.000000e+000  0.000000e+000  0.000000e+000
    outer loop
      vertex -4.135000e+001 -6.200000e+000  1.090000e+001
      vertex -4.135000e+001  6.200000e+000  6.800000e+000
      vertex -4.135000e+001 -6.200000e+000  6.800000e+000
    endloop
  endfacet
  facet normal  0.000000e+000  0.000000e+000 -1.000000e+000
    outer loop
      vertex -3.835000e+001  2.650000e+001  5.300000e+000
      vertex -4.150000e+001  6.200000e+000  5.300000e+000
      vertex -4.150000e+001  2.650000e+001  5.300000e+000
    endloop
  endfacet
  facet normal  0.000000e+000  0.000000e+000 -1.000000e+000
    outer loop
      vertex -4.150000e+001  6.200000e+000  5.300000e+000
      vertex -3.835000e+001  2.650000e+001  5.300000e+000
      vertex -3.985000e+001  6.200000e+000  5.300000e+000
    endloop
  endfacet
  facet normal  0.000000e+000  0.000000e+000 -9.999999e-001
    outer loop
      vertex -3.985000e+001  6.200000e+000  5.300000e+000
      vertex -3.835000e+001  2.650000e+001  5.300000e+000
      vertex -3.835000e+001 -2.650000e+001  5.300000e+000
    endloop
  endfacet
  facet normal  0.000000e+000  0.000000e+000 -1.000000e+000
    outer loop
      vertex -3.985000e+001  6.200000e+000  5.300000e+000
      vertex -3.835000e+001 -2.650000e+001  5.300000e+000
      vertex -3.985000e+001 -6.200000e+000  5.300000e+000
    endloop
  endfacet
  facet normal  0.000000e+000  -0.000000e+000 -1.000000e+000
    outer loop
      vertex -3.985000e+001 -6.200000e+000  5.300000e+000
      vertex -3.835000e+001 -2.650000e+001  5.300000e+000
      vertex -4.150000e+001 -2.650000e+001  5.300000e+000
    endloop
  endfacet
  facet normal  0.000000e+000  0.000000e+000 -1.000000e+000
    outer loop
      vertex -3.985000e+001 -6.200000e+000  5.300000e+000
      vertex -4.150000e+001 -2.650000e+001  5.300000e+000
      vertex -4.150000e+001 -6.200000e+000  5.300000e+000
    endloop
  endfacet
  facet normal  0.000000e+000 -1.000000e+000  0.000000e+000
    outer loop
      vertex -4.017500e+001  6.200000e+000  1.207500e+001
      vertex -4.350000e+001  6.200000e+000  1.540000e+001
      vertex -4.135000e+001  6.200000e+000  1.090000e+001
    endloop
  endfacet
  facet normal  0.000000e+000 -1.000000e+000  0.000000e+000
    outer loop
      vertex -4.150000e+001  6.200000e+000  5.300000e+000
      vertex -3.985000e+001  6.200000e+000  5.300000e+000
      vertex -4.135000e+001  6.200000e+000  6.800000e+000
    endloop
  endfacet
  facet normal  0.000000e+000 -1.000000e+000  0.000000e+000
    outer loop
      vertex -4.135000e+001  6.200000e+000  1.090000e+001
      vertex -4.350000e+001  6.200000e+000  1.540000e+001
      vertex -4.135000e+001  6.200000e+000  6.800000e+000
    endloop
  endfacet
  facet normal  -0.000000e+000 -1.000000e+000  0.000000e+000
    outer loop
      vertex -4.135000e+001  6.200000e+000  6.800000e+000
      vertex -4.350000e+001  6.200000e+000  1.540000e+001
      vertex -4.150000e+001  6.200000e+000  5.300000e+000
    endloop
  endfacet
  facet normal  0.000000e+000 -1.000000e+000  0.000000e+000
    outer loop
      vertex -4.350000e+001  6.200000e+000  1.540000e+001
      vertex -4.350000e+001  6.200000e+000  4.000000e-001
      vertex -4.150000e+001  6.200000e+000  5.300000e+000
    endloop
  endfacet
  facet normal  0.000000e+000 -1.000000e+000  -0.000000e+000
    outer loop
      vertex -4.150000e+001  6.200000e+000  5.300000e+000
      vertex -4.350000e+001  6.200000e+000  4.000000e-001
      vertex -4.150000e+001  6.200000e+000  4.000000e-001
    endloop
  endfacet
  facet normal  0.000000e+000  1.000000e+000  0.000000e+000
    outer loop
      vertex -4.135000e+001 -6.200000e+000  1.090000e+001
      vertex -4.350000e+001 -6.200000e+000  1.540000e+001
      vertex -4.017500e+001 -6.200000e+000  1.207500e+001
    endloop
  endfacet
  facet normal  0.000000e+000  1.000000e+000  0.000000e+000
    outer loop
      vertex -4.135000e+001 -6.200000e+000  6.800000e+000
      vertex -3.985000e+001 -6.200000e+000  5.300000e+000
      vertex -4.150000e+001 -6.200000e+000  5.300000e+000
    endloop
  endfacet
  facet normal  0.000000e+000  1.000000e+000  -0.000000e+000
    outer loop
      vertex -4.135000e+001 -6.200000e+000  1.090000e+001
      vertex -4.135000e+001 -6.200000e+000  6.800000e+000
      vertex -4.350000e+001 -6.200000e+000  1.540000e+001
    endloop
  endfacet
  facet normal  0.000000e+000  1.000000e+000  0.000000e+000
    outer loop
      vertex -4.350000e+001 -6.200000e+000  1.540000e+001
      vertex -4.135000e+001 -6.200000e+000  6.800000e+000
      vertex -4.150000e+001 -6.200000e+000  5.300000e+000
    endloop
  endfacet
  facet normal  0.000000e+000  1.000000e+000  0.000000e+000
    outer loop
      vertex -4.350000e+001 -6.200000e+000  1.540000e+001
      vertex -4.150000e+001 -6.200000e+000  5.300000e+000
      vertex -4.350000e+001 -6.200000e+000  4.000000e-001
    endloop
  endfacet
  facet normal  0.000000e+000  1.000000e+000  0.000000e+000
    outer loop
      vertex -4.350000e+001 -6.200000e+000  4.000000e-001
      vertex -4.150000e+001 -6.200000e+000  5.300000e+000
      vertex -4.150000e+001 -6.200000e+000  4.000000e-001
    endloop
  endfacet
  facet normal  -0.000000e+000 -1.000000e+000  -0.000000e+000
    outer loop
      vertex  3.835000e+001  2.650000e+001  5.300000e+000
      vertex  3.835000e+001  2.650000e+001  1.580000e+001
      vertex -3.835000e+001  2.650000e+001  1.580000e+001
    endloop
  endfacet
  facet normal  0.000000e+000 -1.000000e+000  0.000000e+000
    outer loop
      vertex  3.835000e+001  2.650000e+001  5.300000e+000
      vertex -3.835000e+001  2.650000e+001  1.580000e+001
      vertex -3.835000e+001  2.650000e+001  5.300000e+000
    endloop
  endfacet
  facet normal  0.000000e+000 -1.000000e+000  0.000000e+000
    outer loop
      vertex  3.835000e+001  2.650000e+001  5.300000e+000
      vertex -3.835000e+001  2.650000e+001  5.300000e+000
      vertex  4.150000e+001  2.650000e+001  4.000000e-001
    endloop
  endfacet
  facet normal  0.000000e+000 -9.999999e-001  0.000000e+000
    outer loop
      vertex  3.835000e+001  2.650000e+001  5.300000e+000
      vertex  4.150000e+001  2.650000e+001  4.000000e-001
      vertex  4.150000e+001  2.650000e+001  5.300000e+000
    endloop
  endfacet
  facet normal  0.000000e+000 -9.999999e-001  0.000000e+000
    outer loop
      vertex -3.835000e+001  2.650000e+001  5.300000e+000
      vertex -4.150000e+001  2.650000e+001  5.300000e+000
      vertex  4.150000e+001  2.650000e+001  4.000000e-001
    endloop
  endfacet
  facet normal  0.000000e+000 -1.000000e+000  0.000000e+000
    outer loop
      vertex  4.150000e+001  2.650000e+001  4.000000e-001
      vertex -4.150000e+001  2.650000e+001  5.300000e+000
      vertex -4.150000e+001  2.650000e+001  4.000000e-001
    endloop
  endfacet
  facet normal  -0.000000e+000  1.000000e+000  0.000000e+000
    outer loop
      vertex -3.835000e+001 -2.650000e+001  5.300000e+000
      vertex -3.835000e+001 -2.650000e+001  1.580000e+001
      vertex -2.270000e+001 -2.650000e+001  1.580000e+001
    endloop
  endfacet
  facet normal  0.000000e+000  1.000000e+000  0.000000e+000
    outer loop
      vertex -3.835000e+001 -2.650000e+001  5.300000e+000
      vertex -2.270000e+001 -2.650000e+001  1.580000e+001
      vertex -2.270000e+001 -2.650000e+001  5.300000e+000
    endloop
  endfacet
  facet normal  0.000000e+000  1.000000e+000  0.000000e+000
    outer loop
      vertex -3.835000e+001 -2.650000e+001  5.300000e+000
      vertex -2.270000e+001 -2.650000e+001  5.300000e+000
      vertex -4.150000e+001 -2.650000e+001  4.000000e-001
    endloop
  endfacet
  facet normal  0.000000e+000  9.999999e-001  0.000000e+000
    outer loop
      vertex -3.835000e+001 -2.650000e+001  5.300000e+000
      vertex -4.150000e+001 -2.650000e+001  4.000000e-001
      vertex -4.150000e+001 -2.650000e+001  5.300000e+000
    endloop
  endfacet
  facet normal  0.000000e+000  9.999999e-001  0.000000e+000
    outer loop
      vertex -2.270000e+001 -2.650000e+001  5.300000e+000
      vertex -2.150000e+001 -2.650000e+001  5.300000e+000
      vertex -4.150000e+001 -2.650000e+001  4.000000e-001
    endloop
  endfacet
  facet normal  0.000000e+000  1.000000e+000  0.000000e+000
    outer loop
      vertex -4.150000e+001 -2.650000e+001  4.000000e-001
      vertex -2.150000e+001 -2.650000e+001  5.300000e+000
      vertex -2.150000e+001 -2.650000e+001  4.000000e-001
    endloop
  endfacet
  facet normal -7.071068e-001  0.000000e+000 -7.071068e-001
    outer loop
      vertex -3.985000e+001 -6.200000e+000  5.300000e+000
      vertex -4.135000e+001 -6.200000e+000  6.800000e+000
      vertex -3.985000e+001  6.200000e+000  5.300000e+000
    endloop
  endfacet
  facet normal -7.071068e-001  0.000000e+000 -7.071068e-001
    outer loop
      vertex -3.985000e+001  6.200000e+000  5.300000e+000
      vertex -4.135000e+001 -6.200000e+000  6.800000e+000
      vertex -4.135000e+001  6.200000e+000  6.800000e+000
    endloop
  endfacet
  facet normal -7.071054e-001  0.000000e+000 -7.071081e-001
    outer loop
      vertex -4.370000e+001  6.400000e+000  2.000000e-001
      vertex -4.390000e+001  6.600000e+000  4.000000e-001
      vertex -4.350000e+001  6.600000e+000  0.000000e+000
    endloop
  endfacet
  facet normal -7.071054e-001  0.000000e+000 -7.071081e-001
    outer loop
      vertex -4.370000e+001  2.750000e+001  2.000000e-001
      vertex -4.350000e+001  2.730000e+001  0.000000e+000
      vertex -4.390000e+001  2.730000e+001  4.000000e-001
    endloop
  endfacet
  facet normal -7.071055e-001  0.000000e+000 -7.071081e-001
    outer loop
      vertex -4.390000e+001  2.730000e+001  4.000000e-001
      vertex -4.350000e+001  2.730000e+001  0.000000e+000
      vertex -4.350000e+001  6.600000e+000  0.000000e+000
    endloop
  endfacet
  facet normal -7.071055e-001  0.000000e+000 -7.071081e-001
    outer loop
      vertex -4.390000e+001  2.730000e+001  4.000000e-001
      vertex -4.350000e+001  6.600000e+000  0.000000e+000
      vertex -4.390000e+001  6.600000e+000  4.000000e-001
    endloop
  endfacet
  facet normal  0.000000e+000  0.000000e+000 -1.000000e+000
    outer loop
      vertex -4.350000e+001  2.730000e+001  0.000000e+000
      vertex -4.190000e+001  6.600000e+000  0.000000e+000
      vertex -4.350000e+001  6.600000e+000  0.000000e+000
    endloop
  endfacet
  facet normal  0.000000e+000  0.000000e+000 -1.000000e+000
    outer loop
      vertex -4.190000e+001  6.600000e+000  0.000000e+000
      vertex -4.350000e+001  2.730000e+001  0.000000e+000
      vertex -4.190000e+001  2.690000e+001  0.000000e+000
    endloop
  endfacet
  facet normal  0.000000e+000  0.000000e+000 -1.000000e+000
    outer loop
      vertex -4.190000e+001  2.690000e+001  0.000000e+000
      vertex -4.350000e+001  2.730000e+001  0.000000e+000
      vertex  4.350000e+001  2.730000e+001  0.000000e+000
    endloop
  endfacet
  facet normal  0.000000e+000  0.000000e+000 -1.000000e+000
    outer loop
      vertex -4.190000e+001  2.690000e+001  0.000000e+000
      vertex  4.350000e+001  2.730000e+001  0.000000e+000
      vertex  4.190000e+001  2.690000e+001  0.000000e+000
    endloop
  endfacet
  facet normal  0.000000e+000  0.000000e+000 -1.000000e+000
    outer loop
      vertex  4.190000e+001  2.690000e+001  0.000000e+000
      vertex  4.350000e+001  2.730000e+001  0.000000e+000
      vertex  4.350000e+001  6.600000e+000  0.000000e+000
    endloop
  endfacet
  facet normal  0.000000e+000  0.000000e+000 -1.000000e+000
    outer loop
      vertex  4.190000e+001  2.690000e+001  0.000000e+000
      vertex  4.350000e+001  6.600000e+000  0.000000e+000
      vertex  4.190000e+001  6.600000e+000  0.000000e+000
    endloop
  endfacet
  facet normal -7.071055e-001 -7.071080e-001 -8.561061e-007
    outer loop
      vertex -4.370000e+001  6.400000e+000  2.000000e-001
      vertex -4.350000e+001  6.200000e+000  4.000000e-001
      vertex -4.390000e+001  6.600000e+000  4.000000e-001
    endloop
  endfacet
  facet normal -7.071056e-001 -7.071081e-001  0.000000e+000
    outer loop
      vertex -4.390000e+001  6.600000e+000  4.000000e-001
      vertex -4.350000e+001  6.200000e+000  4.000000e-001
      vertex -4.350000e+001  6.200000e+000  1.540000e+001
    endloop
  endfacet
  facet normal -7.071055e-001 -7.071080e-001  0.000000e+000
    outer loop
      vertex -4.390000e+001  6.600000e+000  4.000000e-001
      vertex -4.350000e+001  6.200000e+000  1.540000e+001
      vertex -4.390000e+001  6.600000e+000  1.580000e+001
    endloop
  endfacet
  facet normal  7.071054e-001  0.000000e+000 -7.071081e-001
    outer loop
      vertex  4.370000e+001  2.750000e+001  2.000000e-001
      vertex  4.390000e+001  2.730000e+001  4.000000e-001
      vertex  4.350000e+001  2.730000e+001  0.000000e+000
    endloop
  endfacet
  facet normal  7.071054e-001  0.000000e+000 -7.071081e-001
    outer loop
      vertex  4.370000e+001  6.400000e+000  2.000000e-001
      vertex  4.350000e+001  6.600000e+000  0.000000e+000
      vertex  4.390000e+001  6.600000e+000  4.000000e-001
    endloop
  endfacet
  facet normal  7.071055e-001  0.000000e+000 -7.071081e-001
    outer loop
      vertex  4.390000e+001  6.600000e+000  4.000000e-001
      vertex  4.350000e+001  6.600000e+000  0.000000e+000
      vertex  4.350000e+001  2.730000e+001  0.000000e+000
    endloop
  endfacet
  facet normal  7.071055e-001  0.000000e+000 -7.071081e-001
    outer loop
      vertex  4.390000e+001  6.600000e+000  4.000000e-001
      vertex  4.350000e+001  2.730000e+001  0.000000e+000
      vertex  4.390000e+001  2.730000e+001  4.000000e-001
    endloop
  endfacet
  facet normal  7.071055e-001 -7.071080e-001 -8.561061e-007
    outer loop
      vertex  4.370000e+001  6.400000e+000  2.000000e-001
      vertex  4.390000e+001  6.600000e+000  4.000000e-001
      vertex  4.350000e+001  6.200000e+000  4.000000e-001
    endloop
  endfacet
  facet normal  7.071055e-001 -7.071080e-001  0.000000e+000
    outer loop
      vertex  4.350000e+001  6.200000e+000  4.000000e-001
      vertex  4.390000e+001  6.600000e+000  4.000000e-001
      vertex  4.390000e+001  6.600000e+000  1.580000e+001
    endloop
  endfacet
  facet normal  7.071056e-001 -7.071081e-001  0.000000e+000
    outer loop
      vertex  4.350000e+001  6.200000e+000  4.000000e-001
      vertex  4.390000e+001  6.600000e+000  1.580000e+001
      vertex  4.350000e+001  6.200000e+000  1.540000e+001
    endloop
  endfacet
  facet normal -8.561045e-007 -7.071066e-001 -7.071068e-001
    outer loop
      vertex -4.370000e+001  6.400000e+000  2.000000e-001
      vertex -4.350000e+001  6.600000e+000  0.000000e+000
      vertex -4.350000e+001  6.200000e+000  4.000000e-001
    endloop
  endfacet
  facet normal  0.000000e+000 -7.071067e-001 -7.071069e-001
    outer loop
      vertex -4.350000e+001  6.200000e+000  4.000000e-001
      vertex -4.350000e+001  6.600000e+000  0.000000e+000
      vertex -4.190000e+001  6.600000e+000  0.000000e+000
    endloop
  endfacet
  facet normal  0.000000e+000 -7.071067e-001 -7.071068e-001
    outer loop
      vertex -4.350000e+001  6.200000e+000  4.000000e-001
      vertex -4.190000e+001  6.600000e+000  0.000000e+000
      vertex -4.150000e+001  6.200000e+000  4.000000e-001
    endloop
  endfacet
  facet normal  7.071055e-001  0.000000e+000 -7.071081e-001
    outer loop
      vertex -4.150000e+001  6.200000e+000  4.000000e-001
      vertex -4.190000e+001  6.600000e+000  0.000000e+000
      vertex -4.150000e+001  2.650000e+001  4.000000e-001
    endloop
  endfacet
  facet normal  7.071055e-001  0.000000e+000 -7.071081e-001
    outer loop
      vertex -4.150000e+001  2.650000e+001  4.000000e-001
      vertex -4.190000e+001  6.600000e+000  0.000000e+000
      vertex -4.190000e+001  2.690000e+001  0.000000e+000
    endloop
  endfacet
  facet normal  0.000000e+000 -7.071071e-001 -7.071065e-001
    outer loop
      vertex -4.150000e+001  2.650000e+001  4.000000e-001
      vertex -4.190000e+001  2.690000e+001  0.000000e+000
      vertex  4.150000e+001  2.650000e+001  4.000000e-001
    endloop
  endfacet
  facet normal  0.000000e+000 -7.071072e-001 -7.071065e-001
    outer loop
      vertex  4.150000e+001  2.650000e+001  4.000000e-001
      vertex -4.190000e+001  2.690000e+001  0.000000e+000
      vertex  4.190000e+001  2.690000e+001  0.000000e+000
    endloop
  endfacet
  facet normal -7.071055e-001  0.000000e+000 -7.071081e-001
    outer loop
      vertex  4.150000e+001  2.650000e+001  4.000000e-001
      vertex  4.190000e+001  2.690000e+001  0.000000e+000
      vertex  4.150000e+001  6.200000e+000  4.000000e-001
    endloop
  endfacet
  facet normal -7.071055e-001  0.000000e+000 -7.071081e-001
    outer loop
      vertex  4.150000e+001  6.200000e+000  4.000000e-001
      vertex  4.190000e+001  2.690000e+001  0.000000e+000
      vertex  4.190000e+001  6.600000e+000  0.000000e+000
    endloop
  endfacet
  facet normal  8.561045e-007 -7.071066e-001 -7.071068e-001
    outer loop
      vertex  4.370000e+001  6.400000e+000  2.000000e-001
      vertex  4.350000e+001  6.200000e+000  4.000000e-001
      vertex  4.350000e+001  6.600000e+000  0.000000e+000
    endloop
  endfacet
  facet normal  0.000000e+000 -7.071067e-001 -7.071068e-001
    outer loop
      vertex  4.350000e+001  6.600000e+000  0.000000e+000
      vertex  4.350000e+001  6.200000e+000  4.000000e-001
      vertex  4.150000e+001  6.200000e+000  4.000000e-001
    endloop
  endfacet
  facet normal  0.000000e+000 -7.071067e-001 -7.071068e-001
    outer loop
      vertex  4.350000e+001  6.600000e+000  0.000000e+000
      vertex  4.150000e+001  6.200000e+000  4.000000e-001
      vertex  4.190000e+001  6.600000e+000  0.000000e+000
    endloop
  endfacet
  facet normal  0.000000e+000  7.071054e-001 -7.071081e-001
    outer loop
      vertex  4.370000e+001  2.750000e+001  2.000000e-001
      vertex  4.350000e+001  2.730000e+001  0.000000e+000
      vertex  4.350000e+001  2.770000e+001  4.000000e-001
    endloop
  endfacet
  facet normal  0.000000e+000  7.071054e-001 -7.071081e-001
    outer loop
      vertex -4.370000e+001  2.750000e+001  2.000000e-001
      vertex -4.350000e+001  2.770000e+001  4.000000e-001
      vertex -4.350000e+001  2.730000e+001  0.000000e+000
    endloop
  endfacet
  facet normal  0.000000e+000  7.071054e-001 -7.071081e-001
    outer loop
      vertex -4.350000e+001  2.730000e+001  0.000000e+000
      vertex -4.350000e+001  2.770000e+001  4.000000e-001
      vertex  4.350000e+001  2.770000e+001  4.000000e-001
    endloop
  endfacet
  facet normal  0.000000e+000  7.071054e-001 -7.071081e-001
    outer loop
      vertex -4.350000e+001  2.730000e+001  0.000000e+000
      vertex  4.350000e+001  2.770000e+001  4.000000e-001
      vertex  4.350000e+001  2.730000e+001  0.000000e+000
    endloop
  endfacet
  facet normal -1.000000e+000  0.000000e+000  0.000000e+000
    outer loop
      vertex -4.390000e+001 -2.730000e+001  1.660000e+001
      vertex -4.390000e+001 -6.600000e+000  4.000000e-001
      vertex -4.390000e+001 -2.730000e+001  4.000000e-001
    endloop
  endfacet
  facet normal -1.000000e+000  0.000000e+000  0.000000e+000
    outer loop
      vertex -4.390000e+001 -6.600000e+000  4.000000e-001
      vertex -4.390000e+001 -2.730000e+001  1.660000e+001
      vertex -4.390000e+001 -6.600000e+000  1.580000e+001
    endloop
  endfacet
  facet normal -9.999999e-001  0.000000e+000  0.000000e+000
    outer loop
      vertex -4.390000e+001 -6.600000e+000  1.580000e+001
      vertex -4.390000e+001 -2.730000e+001  1.660000e+001
      vertex -4.390000e+001  2.730000e+001  1.660000e+001
    endloop
  endfacet
  facet normal -9.999999e-001  0.000000e+000  0.000000e+000
    outer loop
      vertex -4.390000e+001 -6.600000e+000  1.580000e+001
      vertex -4.390000e+001  2.730000e+001  1.660000e+001
      vertex -4.390000e+001  6.600000e+000  1.580000e+001
    endloop
  endfacet
  facet normal -1.000000e+000  0.000000e+000  0.000000e+000
    outer loop
      vertex -4.390000e+001  6.600000e+000  1.580000e+001
      vertex -4.390000e+001  2.730000e+001  1.660000e+001
      vertex -4.390000e+001  2.730000e+001  4.000000e-001
    endloop
  endfacet
  facet normal -1.000000e+000  0.000000e+000  0.000000e+000
    outer loop
      vertex -4.390000e+001  6.600000e+000  1.580000e+001
      vertex -4.390000e+001  2.730000e+001  4.000000e-001
      vertex -4.390000e+001  6.600000e+000  4.000000e-001
    endloop
  endfacet
  facet normal -7.071068e-001  7.071068e-001  0.000000e+000
    outer loop
      vertex -4.390000e+001  2.730000e+001  4.000000e-001
      vertex -4.350000e+001  2.770000e+001  4.000000e-001
      vertex -4.370000e+001  2.750000e+001  2.000000e-001
    endloop
  endfacet
  facet normal -7.071068e-001  7.071068e-001  0.000000e+000
    outer loop
      vertex -4.370000e+001  2.750000e+001  1.680000e+001
      vertex -4.350000e+001  2.770000e+001  1.660000e+001
      vertex -4.390000e+001  2.730000e+001  1.660000e+001
    endloop
  endfacet
  facet normal -7.071068e-001  7.071068e-001  0.000000e+000
    outer loop
      vertex -4.390000e+001  2.730000e+001  1.660000e+001
      vertex -4.350000e+001  2.770000e+001  1.660000e+001
      vertex -4.350000e+001  2.770000e+001  4.000000e-001
    endloop
  endfacet
  facet normal -7.071068e-001  7.071068e-001  0.000000e+000
    outer loop
      vertex -4.390000e+001  2.730000e+001  1.660000e+001
      vertex -4.350000e+001  2.770000e+001  4.000000e-001
      vertex -4.390000e+001  2.730000e+001  4.000000e-001
    endloop
  endfacet
  facet normal  1.000000e+000  0.000000e+000  0.000000e+000
    outer loop
      vertex  4.390000e+001  2.730000e+001  1.660000e+001
      vertex  4.390000e+001  6.600000e+000  4.000000e-001
      vertex  4.390000e+001  2.730000e+001  4.000000e-001
    endloop
  endfacet
  facet normal  1.000000e+000  0.000000e+000  0.000000e+000
    outer loop
      vertex  4.390000e+001  6.600000e+000  4.000000e-001
      vertex  4.390000e+001  2.730000e+001  1.660000e+001
      vertex  4.390000e+001  6.600000e+000  1.580000e+001
    endloop
  endfacet
  facet normal  9.999999e-001  0.000000e+000  -0.000000e+000
    outer loop
      vertex  4.390000e+001  6.600000e+000  1.580000e+001
      vertex  4.390000e+001  2.730000e+001  1.660000e+001
      vertex  4.390000e+001 -2.730000e+001  1.660000e+001
    endloop
  endfacet
  facet normal  9.999999e-001  0.000000e+000  0.000000e+000
    outer loop
      vertex  4.390000e+001  6.600000e+000  1.580000e+001
      vertex  4.390000e+001 -2.730000e+001  1.660000e+001
      vertex  4.390000e+001 -6.600000e+000  1.580000e+001
    endloop
  endfacet
  facet normal  1.000000e+000  0.000000e+000  0.000000e+000
    outer loop
      vertex  4.390000e+001 -6.600000e+000  1.580000e+001
      vertex  4.390000e+001 -2.730000e+001  1.660000e+001
      vertex  4.390000e+001 -2.730000e+001  4.000000e-001
    endloop
  endfacet
  facet normal  1.000000e+000  0.000000e+000  0.000000e+000
    outer loop
      vertex  4.390000e+001 -6.600000e+000  1.580000e+001
      vertex  4.390000e+001 -2.730000e+001  4.000000e-001
      vertex  4.390000e+001 -6.600000e+000  4.000000e-001
    endloop
  endfacet
  facet normal  7.071068e-001  7.071068e-001  0.000000e+000
    outer loop
      vertex  4.370000e+001  2.750000e+001  1.680000e+001
      vertex  4.390000e+001  2.730000e+001  1.660000e+001
      vertex  4.350000e+001  2.770000e+001  1.660000e+001
    endloop
  endfacet
  facet normal  7.071068e-001  7.071068e-001  0.000000e+000
    outer loop
      vertex  4.370000e+001  2.750000e+001  2.000000e-001
      vertex  4.350000e+001  2.770000e+001  4.000000e-001
      vertex  4.390000e+001  2.730000e+001  4.000000e-001
    endloop
  endfacet
  facet normal  7.071068e-001  7.071068e-001  0.000000e+000
    outer loop
      vertex  4.390000e+001  2.730000e+001  4.000000e-001
      vertex  4.350000e+001  2.770000e+001  4.000000e-001
      vertex  4.350000e+001  2.770000e+001  1.660000e+001
    endloop
  endfacet
  facet normal  7.071068e-001  7.071068e-001  0.000000e+000
    outer loop
      vertex  4.390000e+001  2.730000e+001  4.000000e-001
      vertex  4.350000e+001  2.770000e+001  1.660000e+001
      vertex  4.390000e+001  2.730000e+001  1.660000e+001
    endloop
  endfacet
  facet normal  7.071054e-001  0.000000e+000 -7.071081e-001
    outer loop
      vertex  4.370000e+001 -6.400000e+000  2.000000e-001
      vertex  4.390000e+001 -6.600000e+000  4.000000e-001
      vertex  4.350000e+001 -6.600000e+000  0.000000e+000
    endloop
  endfacet
  facet normal  7.071054e-001  0.000000e+000 -7.071081e-001
    outer loop
      vertex  4.370000e+001 -2.750000e+001  2.000000e-001
      vertex  4.350000e+001 -2.730000e+001  0.000000e+000
      vertex  4.390000e+001 -2.730000e+001  4.000000e-001
    endloop
  endfacet
  facet normal  7.071055e-001  0.000000e+000 -7.071081e-001
    outer loop
      vertex  4.390000e+001 -2.730000e+001  4.000000e-001
      vertex  4.350000e+001 -2.730000e+001  0.000000e+000
      vertex  4.350000e+001 -6.600000e+000  0.000000e+000
    endloop
  endfacet
  facet normal  7.071055e-001  0.000000e+000 -7.071081e-001
    outer loop
      vertex  4.390000e+001 -2.730000e+001  4.000000e-001
      vertex  4.350000e+001 -6.600000e+000  0.000000e+000
      vertex  4.390000e+001 -6.600000e+000  4.000000e-001
    endloop
  endfacet
  facet normal  7.071056e-001  7.071081e-001  0.000000e+000
    outer loop
      vertex  4.350000e+001 -6.200000e+000  1.540000e+001
      vertex  4.390000e+001 -6.600000e+000  1.580000e+001
      vertex  4.350000e+001 -6.200000e+000  4.000000e-001
    endloop
  endfacet
  facet normal  7.071055e-001  7.071080e-001  0.000000e+000
    outer loop
      vertex  4.350000e+001 -6.200000e+000  4.000000e-001
      vertex  4.390000e+001 -6.600000e+000  1.580000e+001
      vertex  4.390000e+001 -6.600000e+000  4.000000e-001
    endloop
  endfacet
  facet normal  7.071055e-001  7.071080e-001 -8.561061e-007
    outer loop
      vertex  4.350000e+001 -6.200000e+000  4.000000e-001
      vertex  4.390000e+001 -6.600000e+000  4.000000e-001
      vertex  4.370000e+001 -6.400000e+000  2.000000e-001
    endloop
  endfacet
  facet normal  0.000000e+000  0.000000e+000 -1.000000e+000
    outer loop
      vertex  4.350000e+001 -6.600000e+000  0.000000e+000
      vertex  4.350000e+001 -2.730000e+001  0.000000e+000
      vertex  4.190000e+001 -6.600000e+000  0.000000e+000
    endloop
  endfacet
  facet normal  0.000000e+000  0.000000e+000 -1.000000e+000
    outer loop
      vertex  4.190000e+001 -6.600000e+000  0.000000e+000
      vertex  4.350000e+001 -2.730000e+001  0.000000e+000
      vertex  4.190000e+001 -2.690000e+001  0.000000e+000
    endloop
  endfacet
  facet normal  0.000000e+000  0.000000e+000 -1.000000e+000
    outer loop
      vertex  4.350000e+001 -2.730000e+001  0.000000e+000
      vertex  2.340000e+001 -2.730000e+001  0.000000e+000
      vertex  4.190000e+001 -2.690000e+001  0.000000e+000
    endloop
  endfacet
  facet normal  -0.000000e+000  0.000000e+000 -1.000000e+000
    outer loop
      vertex  4.190000e+001 -2.690000e+001  0.000000e+000
      vertex  2.340000e+001 -2.730000e+001  0.000000e+000
      vertex  2.340000e+001 -2.690000e+001  0.000000e+000
    endloop
  endfacet
  facet normal  0.000000e+000 -7.071054e-001 -7.071081e-001
    outer loop
      vertex  2.340000e+001 -2.730000e+001  0.000000e+000
      vertex  2.340000e+001 -2.770000e+001  4.000000e-001
      vertex  2.320000e+001 -2.750000e+001  2.000000e-001
    endloop
  endfacet
  facet normal  0.000000e+000 -7.071054e-001 -7.071081e-001
    outer loop
      vertex  4.370000e+001 -2.750000e+001  2.000000e-001
      vertex  4.350000e+001 -2.770000e+001  4.000000e-001
      vertex  4.350000e+001 -2.730000e+001  0.000000e+000
    endloop
  endfacet
  facet normal  0.000000e+000 -7.071055e-001 -7.071081e-001
    outer loop
      vertex  4.350000e+001 -2.730000e+001  0.000000e+000
      vertex  4.350000e+001 -2.770000e+001  4.000000e-001
      vertex  2.340000e+001 -2.770000e+001  4.000000e-001
    endloop
  endfacet
  facet normal  0.000000e+000 -7.071055e-001 -7.071081e-001
    outer loop
      vertex  4.350000e+001 -2.730000e+001  0.000000e+000
      vertex  2.340000e+001 -2.770000e+001  4.000000e-001
      vertex  2.340000e+001 -2.730000e+001  0.000000e+000
    endloop
  endfacet
  facet normal -7.071084e-001 -7.071050e-001  3.358591e-006
    outer loop
      vertex  2.320000e+001 -2.750000e+001  1.680000e+001
      vertex  2.300000e+001 -2.730000e+001  1.660000e+001
      vertex  2.340000e+001 -2.770000e+001  1.660000e+001
    endloop
  endfacet
  facet normal -7.071085e-001 -7.071051e-001 -3.358572e-006
    outer loop
      vertex  2.320000e+001 -2.750000e+001  2.000000e-001
      vertex  2.340000e+001 -2.770000e+001  4.000000e-001
      vertex  2.300000e+001 -2.730000e+001  4.000000e-001
    endloop
  endfacet
  facet normal -7.071084e-001 -7.071050e-001  0.000000e+000
    outer loop
      vertex  2.300000e+001 -2.730000e+001  4.000000e-001
      vertex  2.340000e+001 -2.770000e+001  4.000000e-001
      vertex  2.340000e+001 -2.770000e+001  1.660000e+001
    endloop
  endfacet
  facet normal -7.071084e-001 -7.071050e-001  0.000000e+000
    outer loop
      vertex  2.300000e+001 -2.730000e+001  4.000000e-001
      vertex  2.340000e+001 -2.770000e+001  1.660000e+001
      vertex  2.300000e+001 -2.730000e+001  1.660000e+001
    endloop
  endfacet
  facet normal -9.999999e-001  0.000000e+000  0.000000e+000
    outer loop
      vertex  2.300000e+001 -1.770000e+001  1.660000e+001
      vertex  2.300000e+001 -1.770000e+001  1.580000e+001
      vertex  2.300000e+001 -2.730000e+001  1.660000e+001
    endloop
  endfacet
  facet normal -1.000000e+000  0.000000e+000  0.000000e+000
    outer loop
      vertex  2.300000e+001 -1.470000e+001  1.580000e+001
      vertex  2.300000e+001 -1.470000e+001  5.300000e+000
      vertex  2.300000e+001 -1.770000e+001  1.580000e+001
    endloop
  endfacet
  facet normal -1.000000e+000  0.000000e+000  -0.000000e+000
    outer loop
      vertex  2.300000e+001 -1.770000e+001  1.580000e+001
      vertex  2.300000e+001 -1.470000e+001  5.300000e+000
      vertex  2.300000e+001 -2.650000e+001  5.300000e+000
    endloop
  endfacet
  facet normal -1.000000e+000  0.000000e+000  0.000000e+000
    outer loop
      vertex  2.300000e+001 -1.770000e+001  1.580000e+001
      vertex  2.300000e+001 -2.650000e+001  5.300000e+000
      vertex  2.300000e+001 -2.730000e+001  1.660000e+001
    endloop
  endfacet
  facet normal -1.000000e+000  0.000000e+000  0.000000e+000
    outer loop
      vertex  2.300000e+001 -2.730000e+001  1.660000e+001
      vertex  2.300000e+001 -2.650000e+001  5.300000e+000
      vertex  2.300000e+001 -2.650000e+001  4.000000e-001
    endloop
  endfacet
  facet normal -1.000000e+000  0.000000e+000  0.000000e+000
    outer loop
      vertex  2.300000e+001 -2.730000e+001  1.660000e+001
      vertex  2.300000e+001 -2.650000e+001  4.000000e-001
      vertex  2.300000e+001 -2.730000e+001  4.000000e-001
    endloop
  endfacet
  facet normal  0.000000e+000  7.071067e-001 -7.071068e-001
    outer loop
      vertex  4.190000e+001 -6.600000e+000  0.000000e+000
      vertex  4.150000e+001 -6.200000e+000  4.000000e-001
      vertex  4.350000e+001 -6.600000e+000  0.000000e+000
    endloop
  endfacet
  facet normal  0.000000e+000  7.071067e-001 -7.071068e-001
    outer loop
      vertex  4.350000e+001 -6.600000e+000  0.000000e+000
      vertex  4.150000e+001 -6.200000e+000  4.000000e-001
      vertex  4.350000e+001 -6.200000e+000  4.000000e-001
    endloop
  endfacet
  facet normal  8.561045e-007  7.071066e-001 -7.071068e-001
    outer loop
      vertex  4.350000e+001 -6.600000e+000  0.000000e+000
      vertex  4.350000e+001 -6.200000e+000  4.000000e-001
      vertex  4.370000e+001 -6.400000e+000  2.000000e-001
    endloop
  endfacet
  facet normal -7.071055e-001  0.000000e+000 -7.071081e-001
    outer loop
      vertex  4.150000e+001 -6.200000e+000  4.000000e-001
      vertex  4.190000e+001 -6.600000e+000  0.000000e+000
      vertex  4.150000e+001 -2.650000e+001  4.000000e-001
    endloop
  endfacet
  facet normal -7.071055e-001  0.000000e+000 -7.071081e-001
    outer loop
      vertex  4.150000e+001 -2.650000e+001  4.000000e-001
      vertex  4.190000e+001 -6.600000e+000  0.000000e+000
      vertex  4.190000e+001 -2.690000e+001  0.000000e+000
    endloop
  endfacet
  facet normal  0.000000e+000  7.071071e-001 -7.071064e-001
    outer loop
      vertex  4.150000e+001 -2.650000e+001  4.000000e-001
      vertex  4.190000e+001 -2.690000e+001  0.000000e+000
      vertex  2.300000e+001 -2.650000e+001  4.000000e-001
    endloop
  endfacet
  facet normal  0.000000e+000  7.071071e-001 -7.071064e-001
    outer loop
      vertex  2.300000e+001 -2.650000e+001  4.000000e-001
      vertex  4.190000e+001 -2.690000e+001  0.000000e+000
      vertex  2.340000e+001 -2.690000e+001  0.000000e+000
    endloop
  endfacet
  facet normal -7.071071e-001 -3.358566e-006 -7.071065e-001
    outer loop
      vertex  2.320000e+001 -2.750000e+001  2.000000e-001
      vertex  2.300000e+001 -2.730000e+001  4.000000e-001
      vertex  2.340000e+001 -2.730000e+001  0.000000e+000
    endloop
  endfacet
  facet normal -7.071071e-001  0.000000e+000 -7.071064e-001
    outer loop
      vertex  2.340000e+001 -2.730000e+001  0.000000e+000
      vertex  2.300000e+001 -2.730000e+001  4.000000e-001
      vertex  2.300000e+001 -2.650000e+001  4.000000e-001
    endloop
  endfacet
  facet normal -7.071071e-001  0.000000e+000 -7.071064e-001
    outer loop
      vertex  2.340000e+001 -2.730000e+001  0.000000e+000
      vertex  2.300000e+001 -2.650000e+001  4.000000e-001
      vertex  2.340000e+001 -2.690000e+001  0.000000e+000
    endloop
  endfacet
  facet normal  7.071068e-001 -7.071068e-001  0.000000e+000
    outer loop
      vertex  4.390000e+001 -2.730000e+001  4.000000e-001
      vertex  4.350000e+001 -2.770000e+001  4.000000e-001
      vertex  4.370000e+001 -2.750000e+001  2.000000e-001
    endloop
  endfacet
  facet normal  7.071068e-001 -7.071068e-001  0.000000e+000
    outer loop
      vertex  4.370000e+001 -2.750000e+001  1.680000e+001
      vertex  4.350000e+001 -2.770000e+001  1.660000e+001
      vertex  4.390000e+001 -2.730000e+001  1.660000e+001
    endloop
  endfacet
  facet normal  7.071068e-001 -7.071068e-001  0.000000e+000
    outer loop
      vertex  4.390000e+001 -2.730000e+001  1.660000e+001
      vertex  4.350000e+001 -2.770000e+001  1.660000e+001
      vertex  4.350000e+001 -2.770000e+001  4.000000e-001
    endloop
  endfacet
  facet normal  7.071068e-001 -7.071068e-001  0.000000e+000
    outer loop
      vertex  4.390000e+001 -2.730000e+001  1.660000e+001
      vertex  4.350000e+001 -2.770000e+001  4.000000e-001
      vertex  4.390000e+001 -2.730000e+001  4.000000e-001
    endloop
  endfacet
  facet normal  7.071066e-001  0.000000e+000 -7.071068e-001
    outer loop
      vertex  4.017500e+001  6.200000e+000  1.207500e+001
      vertex  4.350000e+001  6.200000e+000  1.540000e+001
      vertex  4.017500e+001 -6.200000e+000  1.207500e+001
    endloop
  endfacet
  facet normal  7.071059e-001  0.000000e+000 -7.071076e-001
    outer loop
      vertex  4.390000e+001  6.600000e+000  1.580000e+001
      vertex  4.390000e+001 -6.600000e+000  1.580000e+001
      vertex  4.350000e+001 -6.200000e+000  1.540000e+001
    endloop
  endfacet
  facet normal  7.071067e-001 -4.753404e-008 -7.071069e-001
    outer loop
      vertex  4.390000e+001  6.600000e+000  1.580000e+001
      vertex  4.350000e+001 -6.200000e+000  1.540000e+001
      vertex  4.017500e+001 -6.200000e+000  1.207500e+001
    endloop
  endfacet
  facet normal  7.071061e-001  5.573118e-007 -7.071075e-001
    outer loop
      vertex  4.390000e+001  6.600000e+000  1.580000e+001
      vertex  4.017500e+001 -6.200000e+000  1.207500e+001
      vertex  4.350000e+001  6.200000e+000  1.540000e+001
    endloop
  endfacet
  facet normal  0.000000e+000 -7.071054e-001 -7.071081e-001
    outer loop
      vertex -2.190000e+001 -2.770000e+001  4.000000e-001
      vertex -2.190000e+001 -2.730000e+001  0.000000e+000
      vertex -2.170000e+001 -2.750000e+001  2.000000e-001
    endloop
  endfacet
  facet normal  0.000000e+000 -7.071054e-001 -7.071081e-001
    outer loop
      vertex -4.370000e+001 -2.750000e+001  2.000000e-001
      vertex -4.350000e+001 -2.730000e+001  0.000000e+000
      vertex -4.350000e+001 -2.770000e+001  4.000000e-001
    endloop
  endfacet
  facet normal  0.000000e+000 -7.071055e-001 -7.071081e-001
    outer loop
      vertex -4.350000e+001 -2.770000e+001  4.000000e-001
      vertex -4.350000e+001 -2.730000e+001  0.000000e+000
      vertex -2.190000e+001 -2.730000e+001  0.000000e+000
    endloop
  endfacet
  facet normal  0.000000e+000 -7.071055e-001 -7.071081e-001
    outer loop
      vertex -4.350000e+001 -2.770000e+001  4.000000e-001
      vertex -2.190000e+001 -2.730000e+001  0.000000e+000
      vertex -2.190000e+001 -2.770000e+001  4.000000e-001
    endloop
  endfacet
  facet normal  0.000000e+000 -1.000000e+000  0.000000e+000
    outer loop
      vertex -2.190000e+001 -2.770000e+001  1.660000e+001
      vertex -4.350000e+001 -2.770000e+001  1.660000e+001
      vertex -2.190000e+001 -2.770000e+001  4.000000e-001
    endloop
  endfacet
  facet normal  0.000000e+000 -1.000000e+000  0.000000e+000
    outer loop
      vertex -2.190000e+001 -2.770000e+001  4.000000e-001
      vertex -4.350000e+001 -2.770000e+001  1.660000e+001
      vertex -4.350000e+001 -2.770000e+001  4.000000e-001
    endloop
  endfacet
  facet normal  3.358591e-006 -7.071050e-001  7.071084e-001
    outer loop
      vertex -2.170000e+001 -2.750000e+001  1.680000e+001
      vertex -2.190000e+001 -2.730000e+001  1.700000e+001
      vertex -2.190000e+001 -2.770000e+001  1.660000e+001
    endloop
  endfacet
  facet normal  0.000000e+000 -7.071051e-001  7.071084e-001
    outer loop
      vertex -2.190000e+001 -2.770000e+001  1.660000e+001
      vertex -2.190000e+001 -2.730000e+001  1.700000e+001
      vertex -4.350000e+001 -2.770000e+001  1.660000e+001
    endloop
  endfacet
  facet normal  0.000000e+000 -7.071051e-001  7.071084e-001
    outer loop
      vertex -4.350000e+001 -2.770000e+001  1.660000e+001
      vertex -2.190000e+001 -2.730000e+001  1.700000e+001
      vertex -4.350000e+001 -2.730000e+001  1.700000e+001
    endloop
  endfacet
  facet normal -3.358559e-006 -7.071050e-001  7.071084e-001
    outer loop
      vertex -4.350000e+001 -2.770000e+001  1.660000e+001
      vertex -4.350000e+001 -2.730000e+001  1.700000e+001
      vertex -4.370000e+001 -2.750000e+001  1.680000e+001
    endloop
  endfacet
  facet normal  7.071071e-001 -3.358566e-006 -7.071065e-001
    outer loop
      vertex -2.170000e+001 -2.750000e+001  2.000000e-001
      vertex -2.190000e+001 -2.730000e+001  0.000000e+000
      vertex -2.150000e+001 -2.730000e+001  4.000000e-001
    endloop
  endfacet
  facet normal  7.071071e-001  0.000000e+000 -7.071064e-001
    outer loop
      vertex -2.150000e+001 -2.730000e+001  4.000000e-001
      vertex -2.190000e+001 -2.730000e+001  0.000000e+000
      vertex -2.190000e+001 -2.690000e+001  0.000000e+000
    endloop
  endfacet
  facet normal  7.071071e-001  0.000000e+000 -7.071064e-001
    outer loop
      vertex -2.150000e+001 -2.730000e+001  4.000000e-001
      vertex -2.190000e+001 -2.690000e+001  0.000000e+000
      vertex -2.150000e+001 -2.650000e+001  4.000000e-001
    endloop
  endfacet
  facet normal  1.000000e+000  0.000000e+000  -0.000000e+000
    outer loop
      vertex -2.150000e+001 -2.730000e+001  1.660000e+001
      vertex -2.150000e+001 -2.650000e+001  5.300000e+000
      vertex -2.150000e+001 -1.770000e+001  1.660000e+001
    endloop
  endfacet
  facet normal  1.000000e+000  0.000000e+000  0.000000e+000
    outer loop
      vertex -2.150000e+001 -1.770000e+001  1.660000e+001
      vertex -2.150000e+001 -2.650000e+001  5.300000e+000
      vertex -2.150000e+001 -1.770000e+001  1.580000e+001
    endloop
  endfacet
  facet normal  1.000000e+000  0.000000e+000  0.000000e+000
    outer loop
      vertex -2.150000e+001 -2.650000e+001  5.300000e+000
      vertex -2.150000e+001 -1.470000e+001  5.300000e+000
      vertex -2.150000e+001 -1.770000e+001  1.580000e+001
    endloop
  endfacet
  facet normal  1.000000e+000  -0.000000e+000  0.000000e+000
    outer loop
      vertex -2.150000e+001 -1.770000e+001  1.580000e+001
      vertex -2.150000e+001 -1.470000e+001  5.300000e+000
      vertex -2.150000e+001 -1.470000e+001  1.580000e+001
    endloop
  endfacet
  facet normal  1.000000e+000  0.000000e+000  0.000000e+000
    outer loop
      vertex -2.150000e+001 -2.650000e+001  5.300000e+000
      vertex -2.150000e+001 -2.730000e+001  1.660000e+001
      vertex -2.150000e+001 -2.650000e+001  4.000000e-001
    endloop
  endfacet
  facet normal  1.000000e+000  0.000000e+000  0.000000e+000
    outer loop
      vertex -2.150000e+001 -2.650000e+001  4.000000e-001
      vertex -2.150000e+001 -2.730000e+001  1.660000e+001
      vertex -2.150000e+001 -2.730000e+001  4.000000e-001
    endloop
  endfacet
  facet normal  7.071068e-001  0.000000e+000  7.071068e-001
    outer loop
      vertex -2.150000e+001 -1.770000e+001  1.660000e+001
      vertex -2.190000e+001 -1.730000e+001  1.700000e+001
      vertex -2.150000e+001 -2.730000e+001  1.660000e+001
    endloop
  endfacet
  facet normal  7.071068e-001  0.000000e+000  7.071068e-001
    outer loop
      vertex -2.150000e+001 -2.730000e+001  1.660000e+001
      vertex -2.190000e+001 -1.730000e+001  1.700000e+001
      vertex -2.190000e+001 -2.730000e+001  1.700000e+001
    endloop
  endfacet
  facet normal  7.071068e-001 -6.717135e-006  7.071068e-001
    outer loop
      vertex -2.150000e+001 -2.730000e+001  1.660000e+001
      vertex -2.190000e+001 -2.730000e+001  1.700000e+001
      vertex -2.170000e+001 -2.750000e+001  1.680000e+001
    endloop
  endfacet
  facet normal  7.071085e-001 -7.071051e-001 -3.358572e-006
    outer loop
      vertex -2.190000e+001 -2.770000e+001  4.000000e-001
      vertex -2.170000e+001 -2.750000e+001  2.000000e-001
      vertex -2.150000e+001 -2.730000e+001  4.000000e-001
    endloop
  endfacet
  facet normal  7.071084e-001 -7.071050e-001  3.358591e-006
    outer loop
      vertex -2.170000e+001 -2.750000e+001  1.680000e+001
      vertex -2.190000e+001 -2.770000e+001  1.660000e+001
      vertex -2.150000e+001 -2.730000e+001  1.660000e+001
    endloop
  endfacet
  facet normal  7.071084e-001 -7.071050e-001  0.000000e+000
    outer loop
      vertex -2.150000e+001 -2.730000e+001  1.660000e+001
      vertex -2.190000e+001 -2.770000e+001  1.660000e+001
      vertex -2.190000e+001 -2.770000e+001  4.000000e-001
    endloop
  endfacet
  facet normal  7.071084e-001 -7.071050e-001  0.000000e+000
    outer loop
      vertex -2.150000e+001 -2.730000e+001  1.660000e+001
      vertex -2.190000e+001 -2.770000e+001  4.000000e-001
      vertex -2.150000e+001 -2.730000e+001  4.000000e-001
    endloop
  endfacet
  facet normal -7.071050e-001 -3.358559e-006  7.071084e-001
    outer loop
      vertex -4.370000e+001 -2.750000e+001  1.680000e+001
      vertex -4.350000e+001 -2.730000e+001  1.700000e+001
      vertex -4.390000e+001 -2.730000e+001  1.660000e+001
    endloop
  endfacet
  facet normal -7.071052e-001  0.000000e+000  7.071085e-001
    outer loop
      vertex -4.390000e+001 -2.730000e+001  1.660000e+001
      vertex -4.350000e+001 -2.730000e+001  1.700000e+001
      vertex -4.390000e+001  2.730000e+001  1.660000e+001
    endloop
  endfacet
  facet normal -7.071052e-001  0.000000e+000  7.071085e-001
    outer loop
      vertex -4.390000e+001  2.730000e+001  1.660000e+001
      vertex -4.350000e+001 -2.730000e+001  1.700000e+001
      vertex -4.350000e+001  2.730000e+001  1.700000e+001
    endloop
  endfacet
  facet normal -7.071050e-001  3.358559e-006  7.071084e-001
    outer loop
      vertex -4.390000e+001  2.730000e+001  1.660000e+001
      vertex -4.350000e+001  2.730000e+001  1.700000e+001
      vertex -4.370000e+001  2.750000e+001  1.680000e+001
    endloop
  endfacet
  facet normal -7.071054e-001  0.000000e+000 -7.071081e-001
    outer loop
      vertex -4.390000e+001 -2.730000e+001  4.000000e-001
      vertex -4.350000e+001 -2.730000e+001  0.000000e+000
      vertex -4.370000e+001 -2.750000e+001  2.000000e-001
    endloop
  endfacet
  facet normal -7.071054e-001  0.000000e+000 -7.071081e-001
    outer loop
      vertex -4.370000e+001 -6.400000e+000  2.000000e-001
      vertex -4.350000e+001 -6.600000e+000  0.000000e+000
      vertex -4.390000e+001 -6.600000e+000  4.000000e-001
    endloop
  endfacet
  facet normal -7.071055e-001  0.000000e+000 -7.071081e-001
    outer loop
      vertex -4.390000e+001 -6.600000e+000  4.000000e-001
      vertex -4.350000e+001 -6.600000e+000  0.000000e+000
      vertex -4.350000e+001 -2.730000e+001  0.000000e+000
    endloop
  endfacet
  facet normal -7.071055e-001  0.000000e+000 -7.071081e-001
    outer loop
      vertex -4.390000e+001 -6.600000e+000  4.000000e-001
      vertex -4.350000e+001 -2.730000e+001  0.000000e+000
      vertex -4.390000e+001 -2.730000e+001  4.000000e-001
    endloop
  endfacet
  facet normal -7.071068e-001 -7.071068e-001  0.000000e+000
    outer loop
      vertex -4.350000e+001 -2.770000e+001  1.660000e+001
      vertex -4.370000e+001 -2.750000e+001  1.680000e+001
      vertex -4.390000e+001 -2.730000e+001  1.660000e+001
    endloop
  endfacet
  facet normal -7.071068e-001 -7.071068e-001  0.000000e+000
    outer loop
      vertex -4.370000e+001 -2.750000e+001  2.000000e-001
      vertex -4.350000e+001 -2.770000e+001  4.000000e-001
      vertex -4.390000e+001 -2.730000e+001  4.000000e-001
    endloop
  endfacet
  facet normal -7.071068e-001 -7.071068e-001  0.000000e+000
    outer loop
      vertex -4.390000e+001 -2.730000e+001  4.000000e-001
      vertex -4.350000e+001 -2.770000e+001  4.000000e-001
      vertex -4.350000e+001 -2.770000e+001  1.660000e+001
    endloop
  endfacet
  facet normal -7.071068e-001 -7.071068e-001  0.000000e+000
    outer loop
      vertex -4.390000e+001 -2.730000e+001  4.000000e-001
      vertex -4.350000e+001 -2.770000e+001  1.660000e+001
      vertex -4.390000e+001 -2.730000e+001  1.660000e+001
    endloop
  endfacet
  facet normal  0.000000e+000 -1.000000e+000  0.000000e+000
    outer loop
      vertex  4.350000e+001 -2.770000e+001  1.660000e+001
      vertex  2.340000e+001 -2.770000e+001  1.660000e+001
      vertex  4.350000e+001 -2.770000e+001  4.000000e-001
    endloop
  endfacet
  facet normal  0.000000e+000 -1.000000e+000  0.000000e+000
    outer loop
      vertex  4.350000e+001 -2.770000e+001  4.000000e-001
      vertex  2.340000e+001 -2.770000e+001  1.660000e+001
      vertex  2.340000e+001 -2.770000e+001  4.000000e-001
    endloop
  endfacet
  facet normal  3.358559e-006 -7.071050e-001  7.071084e-001
    outer loop
      vertex  4.350000e+001 -2.730000e+001  1.700000e+001
      vertex  4.350000e+001 -2.770000e+001  1.660000e+001
      vertex  4.370000e+001 -2.750000e+001  1.680000e+001
    endloop
  endfacet
  facet normal  0.000000e+000 -7.071051e-001  7.071084e-001
    outer loop
      vertex  4.350000e+001 -2.770000e+001  1.660000e+001
      vertex  4.350000e+001 -2.730000e+001  1.700000e+001
      vertex  2.340000e+001 -2.770000e+001  1.660000e+001
    endloop
  endfacet
  facet normal  0.000000e+000 -7.071051e-001  7.071084e-001
    outer loop
      vertex  2.340000e+001 -2.770000e+001  1.660000e+001
      vertex  4.350000e+001 -2.730000e+001  1.700000e+001
      vertex  2.340000e+001 -2.730000e+001  1.700000e+001
    endloop
  endfacet
  facet normal -3.358591e-006 -7.071050e-001  7.071084e-001
    outer loop
      vertex  2.340000e+001 -2.770000e+001  1.660000e+001
      vertex  2.340000e+001 -2.730000e+001  1.700000e+001
      vertex  2.320000e+001 -2.750000e+001  1.680000e+001
    endloop
  endfacet
  facet normal -7.071068e-001  0.000000e+000  7.071068e-001
    outer loop
      vertex  2.340000e+001 -1.730000e+001  1.700000e+001
      vertex  2.300000e+001 -1.770000e+001  1.660000e+001
      vertex  2.340000e+001 -2.730000e+001  1.700000e+001
    endloop
  endfacet
  facet normal -7.071068e-001  0.000000e+000  7.071068e-001
    outer loop
      vertex  2.340000e+001 -2.730000e+001  1.700000e+001
      vertex  2.300000e+001 -1.770000e+001  1.660000e+001
      vertex  2.300000e+001 -2.730000e+001  1.660000e+001
    endloop
  endfacet
  facet normal -7.071068e-001 -6.717135e-006  7.071068e-001
    outer loop
      vertex  2.340000e+001 -2.730000e+001  1.700000e+001
      vertex  2.300000e+001 -2.730000e+001  1.660000e+001
      vertex  2.320000e+001 -2.750000e+001  1.680000e+001
    endloop
  endfacet
  facet normal  7.071050e-001  3.358559e-006  7.071084e-001
    outer loop
      vertex  4.350000e+001  2.730000e+001  1.700000e+001
      vertex  4.390000e+001  2.730000e+001  1.660000e+001
      vertex  4.370000e+001  2.750000e+001  1.680000e+001
    endloop
  endfacet
  facet normal  7.071052e-001  0.000000e+000  7.071085e-001
    outer loop
      vertex  4.390000e+001  2.730000e+001  1.660000e+001
      vertex  4.350000e+001  2.730000e+001  1.700000e+001
      vertex  4.390000e+001 -2.730000e+001  1.660000e+001
    endloop
  endfacet
  facet normal  7.071052e-001  0.000000e+000  7.071085e-001
    outer loop
      vertex  4.390000e+001 -2.730000e+001  1.660000e+001
      vertex  4.350000e+001  2.730000e+001  1.700000e+001
      vertex  4.350000e+001 -2.730000e+001  1.700000e+001
    endloop
  endfacet
  facet normal  7.071050e-001 -3.358559e-006  7.071084e-001
    outer loop
      vertex  4.390000e+001 -2.730000e+001  1.660000e+001
      vertex  4.350000e+001 -2.730000e+001  1.700000e+001
      vertex  4.370000e+001 -2.750000e+001  1.680000e+001
    endloop
  endfacet
  facet normal  0.000000e+000  1.000000e+000  0.000000e+000
    outer loop
      vertex -4.350000e+001  2.770000e+001  1.660000e+001
      vertex  4.350000e+001  2.770000e+001  1.660000e+001
      vertex -4.350000e+001  2.770000e+001  4.000000e-001
    endloop
  endfacet
  facet normal  0.000000e+000  1.000000e+000  0.000000e+000
    outer loop
      vertex -4.350000e+001  2.770000e+001  4.000000e-001
      vertex  4.350000e+001  2.770000e+001  1.660000e+001
      vertex  4.350000e+001  2.770000e+001  4.000000e-001
    endloop
  endfacet
  facet normal -3.358559e-006  7.071050e-001  7.071084e-001
    outer loop
      vertex -4.350000e+001  2.730000e+001  1.700000e+001
      vertex -4.350000e+001  2.770000e+001  1.660000e+001
      vertex -4.370000e+001  2.750000e+001  1.680000e+001
    endloop
  endfacet
  facet normal  0.000000e+000  7.071051e-001  7.071085e-001
    outer loop
      vertex -4.350000e+001  2.770000e+001  1.660000e+001
      vertex -4.350000e+001  2.730000e+001  1.700000e+001
      vertex  4.350000e+001  2.770000e+001  1.660000e+001
    endloop
  endfacet
  facet normal  0.000000e+000  7.071051e-001  7.071085e-001
    outer loop
      vertex  4.350000e+001  2.770000e+001  1.660000e+001
      vertex -4.350000e+001  2.730000e+001  1.700000e+001
      vertex  4.350000e+001  2.730000e+001  1.700000e+001
    endloop
  endfacet
  facet normal  3.358559e-006  7.071050e-001  7.071084e-001
    outer loop
      vertex  4.350000e+001  2.770000e+001  1.660000e+001
      vertex  4.350000e+001  2.730000e+001  1.700000e+001
      vertex  4.370000e+001  2.750000e+001  1.680000e+001
    endloop
  endfacet
  facet normal  0.000000e+000  0.000000e+000 -1.000000e+000
    outer loop
      vertex -4.190000e+001 -6.600000e+000  0.000000e+000
      vertex -4.190000e+001 -2.690000e+001  0.000000e+000
      vertex -4.350000e+001 -6.600000e+000  0.000000e+000
    endloop
  endfacet
  facet normal  0.000000e+000  0.000000e+000 -1.000000e+000
    outer loop
      vertex -4.350000e+001 -6.600000e+000  0.000000e+000
      vertex -4.190000e+001 -2.690000e+001  0.000000e+000
      vertex -4.350000e+001 -2.730000e+001  0.000000e+000
    endloop
  endfacet
  facet normal  -0.000000e+000  0.000000e+000 -1.000000e+000
    outer loop
      vertex -4.190000e+001 -2.690000e+001  0.000000e+000
      vertex -2.190000e+001 -2.690000e+001  0.000000e+000
      vertex -4.350000e+001 -2.730000e+001  0.000000e+000
    endloop
  endfacet
  facet normal  0.000000e+000  0.000000e+000 -1.000000e+000
    outer loop
      vertex -4.350000e+001 -2.730000e+001  0.000000e+000
      vertex -2.190000e+001 -2.690000e+001  0.000000e+000
      vertex -2.190000e+001 -2.730000e+001  0.000000e+000
    endloop
  endfacet
  facet normal -7.071055e-001  7.071080e-001  0.000000e+000
    outer loop
      vertex -4.390000e+001 -6.600000e+000  1.580000e+001
      vertex -4.350000e+001 -6.200000e+000  1.540000e+001
      vertex -4.390000e+001 -6.600000e+000  4.000000e-001
    endloop
  endfacet
  facet normal -7.071056e-001  7.071081e-001  0.000000e+000
    outer loop
      vertex -4.390000e+001 -6.600000e+000  4.000000e-001
      vertex -4.350000e+001 -6.200000e+000  1.540000e+001
      vertex -4.350000e+001 -6.200000e+000  4.000000e-001
    endloop
  endfacet
  facet normal -7.071055e-001  7.071080e-001 -8.561061e-007
    outer loop
      vertex -4.390000e+001 -6.600000e+000  4.000000e-001
      vertex -4.350000e+001 -6.200000e+000  4.000000e-001
      vertex -4.370000e+001 -6.400000e+000  2.000000e-001
    endloop
  endfacet
  facet normal  0.000000e+000  7.071067e-001 -7.071068e-001
    outer loop
      vertex -4.150000e+001 -6.200000e+000  4.000000e-001
      vertex -4.190000e+001 -6.600000e+000  0.000000e+000
      vertex -4.350000e+001 -6.200000e+000  4.000000e-001
    endloop
  endfacet
  facet normal  0.000000e+000  7.071067e-001 -7.071069e-001
    outer loop
      vertex -4.350000e+001 -6.200000e+000  4.000000e-001
      vertex -4.190000e+001 -6.600000e+000  0.000000e+000
      vertex -4.350000e+001 -6.600000e+000  0.000000e+000
    endloop
  endfacet
  facet normal -8.561045e-007  7.071066e-001 -7.071068e-001
    outer loop
      vertex -4.350000e+001 -6.200000e+000  4.000000e-001
      vertex -4.350000e+001 -6.600000e+000  0.000000e+000
      vertex -4.370000e+001 -6.400000e+000  2.000000e-001
    endloop
  endfacet
  facet normal  7.071055e-001  0.000000e+000 -7.071081e-001
    outer loop
      vertex -4.150000e+001 -2.650000e+001  4.000000e-001
      vertex -4.190000e+001 -2.690000e+001  0.000000e+000
      vertex -4.150000e+001 -6.200000e+000  4.000000e-001
    endloop
  endfacet
  facet normal  7.071055e-001  0.000000e+000 -7.071081e-001
    outer loop
      vertex -4.150000e+001 -6.200000e+000  4.000000e-001
      vertex -4.190000e+001 -2.690000e+001  0.000000e+000
      vertex -4.190000e+001 -6.600000e+000  0.000000e+000
    endloop
  endfacet
  facet normal  0.000000e+000  7.071071e-001 -7.071064e-001
    outer loop
      vertex -2.150000e+001 -2.650000e+001  4.000000e-001
      vertex -2.190000e+001 -2.690000e+001  0.000000e+000
      vertex -4.150000e+001 -2.650000e+001  4.000000e-001
    endloop
  endfacet
  facet normal  0.000000e+000  7.071071e-001 -7.071064e-001
    outer loop
      vertex -4.150000e+001 -2.650000e+001  4.000000e-001
      vertex -2.190000e+001 -2.690000e+001  0.000000e+000
      vertex -4.190000e+001 -2.690000e+001  0.000000e+000
    endloop
  endfacet
  facet normal -7.071066e-001  0.000000e+000 -7.071068e-001
    outer loop
      vertex -4.017500e+001 -6.200000e+000  1.207500e+001
      vertex -4.350000e+001  6.200000e+000  1.540000e+001
      vertex -4.017500e+001  6.200000e+000  1.207500e+001
    endloop
  endfacet
  facet normal -7.071056e-001  5.573118e-007 -7.071079e-001
    outer loop
      vertex -4.390000e+001  6.600000e+000  1.580000e+001
      vertex -4.350000e+001  6.200000e+000  1.540000e+001
      vertex -4.017500e+001 -6.200000e+000  1.207500e+001
    endloop
  endfacet
  facet normal -7.071067e-001 -4.753404e-008 -7.071069e-001
    outer loop
      vertex -4.390000e+001  6.600000e+000  1.580000e+001
      vertex -4.017500e+001 -6.200000e+000  1.207500e+001
      vertex -4.350000e+001 -6.200000e+000  1.540000e+001
    endloop
  endfacet
  facet normal -7.071059e-001  0.000000e+000 -7.071076e-001
    outer loop
      vertex -4.390000e+001  6.600000e+000  1.580000e+001
      vertex -4.350000e+001 -6.200000e+000  1.540000e+001
      vertex -4.390000e+001 -6.600000e+000  1.580000e+001
    endloop
  endfacet
  facet normal  0.000000e+000  0.000000e+000  1.000000e+000
    outer loop
      vertex -4.350000e+001 -2.730000e+001  1.700000e+001
      vertex -2.190000e+001 -2.730000e+001  1.700000e+001
      vertex -4.350000e+001  2.730000e+001  1.700000e+001
    endloop
  endfacet
  facet normal  0.000000e+000  0.000000e+000  1.000000e+000
    outer loop
      vertex -4.350000e+001  2.730000e+001  1.700000e+001
      vertex -2.190000e+001 -2.730000e+001  1.700000e+001
      vertex -2.190000e+001 -1.730000e+001  1.700000e+001
    endloop
  endfacet
  facet normal  0.000000e+000  -0.000000e+000  1.000000e+000
    outer loop
      vertex -4.350000e+001  2.730000e+001  1.700000e+001
      vertex -2.190000e+001 -1.730000e+001  1.700000e+001
      vertex  4.350000e+001  2.730000e+001  1.700000e+001
    endloop
  endfacet
  facet normal  0.000000e+000  0.000000e+000  1.000000e+000
    outer loop
      vertex  4.350000e+001  2.730000e+001  1.700000e+001
      vertex -2.190000e+001 -1.730000e+001  1.700000e+001
      vertex  2.340000e+001 -1.730000e+001  1.700000e+001
    endloop
  endfacet
  facet normal  -0.000000e+000  0.000000e+000  1.000000e+000
    outer loop
      vertex  4.350000e+001  2.730000e+001  1.700000e+001
      vertex  2.340000e+001 -1.730000e+001  1.700000e+001
      vertex  4.350000e+001 -2.730000e+001  1.700000e+001
    endloop
  endfacet
  facet normal  0.000000e+000  0.000000e+000  1.000000e+000
    outer loop
      vertex  4.350000e+001 -2.730000e+001  1.700000e+001
      vertex  2.340000e+001 -1.730000e+001  1.700000e+001
      vertex  2.340000e+001 -2.730000e+001  1.700000e+001
    endloop
  endfacet
  facet normal  0.000000e+000 -1.000000e+000  0.000000e+000
    outer loop
      vertex -2.150000e+001 -1.770000e+001  1.580000e+001
      vertex  2.300000e+001 -1.770000e+001  1.580000e+001
      vertex -2.150000e+001 -1.770000e+001  1.660000e+001
    endloop
  endfacet
  facet normal  0.000000e+000 -1.000000e+000  0.000000e+000
    outer loop
      vertex -2.150000e+001 -1.770000e+001  1.660000e+001
      vertex  2.300000e+001 -1.770000e+001  1.580000e+001
      vertex  2.300000e+001 -1.770000e+001  1.660000e+001
    endloop
  endfacet
  facet normal  0.000000e+000 -7.071051e-001  7.071084e-001
    outer loop
      vertex -2.150000e+001 -1.770000e+001  1.660000e+001
      vertex  2.300000e+001 -1.770000e+001  1.660000e+001
      vertex -2.190000e+001 -1.730000e+001  1.700000e+001
    endloop
  endfacet
  facet normal  0.000000e+000 -7.071051e-001  7.071086e-001
    outer loop
      vertex -2.190000e+001 -1.730000e+001  1.700000e+001
      vertex  2.300000e+001 -1.770000e+001  1.660000e+001
      vertex  2.340000e+001 -1.730000e+001  1.700000e+001
    endloop
  endfacet
  facet normal  7.071071e-001  -0.000000e+000  7.071065e-001
    outer loop
      vertex  4.017500e+001  6.200000e+000  1.207500e+001
      vertex  4.017500e+001 -6.200000e+000  1.207500e+001
      vertex  4.135000e+001  6.200000e+000  1.090000e+001
    endloop
  endfacet
  facet normal  7.071071e-001  0.000000e+000  7.071065e-001
    outer loop
      vertex  4.135000e+001  6.200000e+000  1.090000e+001
      vertex  4.017500e+001 -6.200000e+000  1.207500e+001
      vertex  4.135000e+001 -6.200000e+000  1.090000e+001
    endloop
  endfacet
  facet normal -7.071071e-001  0.000000e+000  7.071065e-001
    outer loop
      vertex -4.017500e+001  6.200000e+000  1.207500e+001
      vertex -4.135000e+001  6.200000e+000  1.090000e+001
      vertex -4.017500e+001 -6.200000e+000  1.207500e+001
    endloop
  endfacet
  facet normal -7.071071e-001  0.000000e+000  7.071065e-001
    outer loop
      vertex -4.017500e+001 -6.200000e+000  1.207500e+001
      vertex -4.135000e+001  6.200000e+000  1.090000e+001
      vertex -4.135000e+001 -6.200000e+000  1.090000e+001
    endloop
  endfacet
  facet normal  0.000000e+000  0.000000e+000 -1.000000e+000
    outer loop
      vertex  2.420000e+001 -1.470000e+001  1.580000e+001
      vertex  3.835000e+001 -2.650000e+001  1.580000e+001
      vertex  2.420000e+001 -2.650000e+001  1.580000e+001
    endloop
  endfacet
  facet normal  0.000000e+000  0.000000e+000 -9.999999e-001
    outer loop
      vertex  3.835000e+001  2.650000e+001  1.580000e+001
      vertex  3.835000e+001 -2.650000e+001  1.580000e+001
      vertex  2.420000e+001 -1.470000e+001  1.580000e+001
    endloop
  endfacet
  facet normal  0.000000e+000  0.000000e+000 -1.000000e+000
    outer loop
      vertex  3.835000e+001  2.650000e+001  1.580000e+001
      vertex  2.420000e+001 -1.470000e+001  1.580000e+001
      vertex  2.300000e+001 -1.470000e+001  1.580000e+001
    endloop
  endfacet
  facet normal  0.000000e+000  0.000000e+000 -1.000000e+000
    outer loop
      vertex  3.835000e+001  2.650000e+001  1.580000e+001
      vertex  2.300000e+001 -1.470000e+001  1.580000e+001
      vertex -2.150000e+001 -1.470000e+001  1.580000e+001
    endloop
  endfacet
  facet normal  0.000000e+000  0.000000e+000 -1.000000e+000
    outer loop
      vertex  3.835000e+001  2.650000e+001  1.580000e+001
      vertex -2.150000e+001 -1.470000e+001  1.580000e+001
      vertex -2.270000e+001 -1.470000e+001  1.580000e+001
    endloop
  endfacet
  facet normal  0.000000e+000  0.000000e+000 -1.000000e+000
    outer loop
      vertex  3.835000e+001  2.650000e+001  1.580000e+001
      vertex -2.270000e+001 -1.470000e+001  1.580000e+001
      vertex -3.835000e+001  2.650000e+001  1.580000e+001
    endloop
  endfacet
  facet normal  -0.000000e+000  0.000000e+000 -1.000000e+000
    outer loop
      vertex -2.150000e+001 -1.470000e+001  1.580000e+001
      vertex  2.300000e+001 -1.470000e+001  1.580000e+001
      vertex -2.150000e+001 -1.770000e+001  1.580000e+001
    endloop
  endfacet
  facet normal  0.000000e+000  0.000000e+000 -1.000000e+000
    outer loop
      vertex -2.150000e+001 -1.770000e+001  1.580000e+001
      vertex  2.300000e+001 -1.470000e+001  1.580000e+001
      vertex  2.300000e+001 -1.770000e+001  1.580000e+001
    endloop
  endfacet
  facet normal  -0.000000e+000  0.000000e+000 -1.000000e+000
    outer loop
      vertex -3.835000e+001  2.650000e+001  1.580000e+001
      vertex -2.270000e+001 -1.470000e+001  1.580000e+001
      vertex -3.835000e+001 -2.650000e+001  1.580000e+001
    endloop
  endfacet
  facet normal  0.000000e+000  0.000000e+000 -1.000000e+000
    outer loop
      vertex -3.835000e+001 -2.650000e+001  1.580000e+001
      vertex -2.270000e+001 -1.470000e+001  1.580000e+001
      vertex -2.270000e+001 -2.650000e+001  1.580000e+001
    endloop
  endfacet
  facet normal  1.000000e+000  0.000000e+000  0.000000e+000
    outer loop
      vertex  2.420000e+001 -1.470000e+001  5.300000e+000
      vertex  2.420000e+001 -1.470000e+001  1.580000e+001
      vertex  2.420000e+001 -2.650000e+001  5.300000e+000
    endloop
  endfacet
  facet normal  1.000000e+000  0.000000e+000  0.000000e+000
    outer loop
      vertex  2.420000e+001 -2.650000e+001  5.300000e+000
      vertex  2.420000e+001 -1.470000e+001  1.580000e+001
      vertex  2.420000e+001 -2.650000e+001  1.580000e+001
    endloop
  endfacet
  facet normal  0.000000e+000  1.000000e+000  -0.000000e+000
    outer loop
      vertex  2.420000e+001 -1.470000e+001  1.580000e+001
      vertex  2.420000e+001 -1.470000e+001  5.300000e+000
      vertex  2.300000e+001 -1.470000e+001  1.580000e+001
    endloop
  endfacet
  facet normal  0.000000e+000  1.000000e+000  0.000000e+000
    outer loop
      vertex  2.300000e+001 -1.470000e+001  1.580000e+001
      vertex  2.420000e+001 -1.470000e+001  5.300000e+000
      vertex  2.300000e+001 -1.470000e+001  5.300000e+000
    endloop
  endfacet
  facet normal  0.000000e+000  0.000000e+000 -1.000000e+000
    outer loop
      vertex  2.300000e+001 -2.650000e+001  5.300000e+000
      vertex  2.300000e+001 -1.470000e+001  5.300000e+000
      vertex  2.420000e+001 -2.650000e+001  5.300000e+000
    endloop
  endfacet
  facet normal  0.000000e+000  0.000000e+000 -1.000000e+000
    outer loop
      vertex  2.420000e+001 -2.650000e+001  5.300000e+000
      vertex  2.300000e+001 -1.470000e+001  5.300000e+000
      vertex  2.420000e+001 -1.470000e+001  5.300000e+000
    endloop
  endfacet
  facet normal  0.000000e+000  1.000000e+000  -0.000000e+000
    outer loop
      vertex -2.150000e+001 -1.470000e+001  1.580000e+001
      vertex -2.150000e+001 -1.470000e+001  5.300000e+000
      vertex -2.270000e+001 -1.470000e+001  1.580000e+001
    endloop
  endfacet
  facet normal  0.000000e+000  1.000000e+000  0.000000e+000
    outer loop
      vertex -2.270000e+001 -1.470000e+001  1.580000e+001
      vertex -2.150000e+001 -1.470000e+001  5.300000e+000
      vertex -2.270000e+001 -1.470000e+001  5.300000e+000
    endloop
  endfacet
  facet normal -1.000000e+000  0.000000e+000  0.000000e+000
    outer loop
      vertex -2.270000e+001 -2.650000e+001  5.300000e+000
      vertex -2.270000e+001 -2.650000e+001  1.580000e+001
      vertex -2.270000e+001 -1.470000e+001  5.300000e+000
    endloop
  endfacet
  facet normal -1.000000e+000  0.000000e+000  0.000000e+000
    outer loop
      vertex -2.270000e+001 -1.470000e+001  5.300000e+000
      vertex -2.270000e+001 -2.650000e+001  1.580000e+001
      vertex -2.270000e+001 -1.470000e+001  1.580000e+001
    endloop
  endfacet
  facet normal  0.000000e+000  0.000000e+000 -1.000000e+000
    outer loop
      vertex -2.270000e+001 -2.650000e+001  5.300000e+000
      vertex -2.270000e+001 -1.470000e+001  5.300000e+000
      vertex -2.150000e+001 -2.650000e+001  5.300000e+000
    endloop
  endfacet
  facet normal  0.000000e+000  0.000000e+000 -1.000000e+000
    outer loop
      vertex -2.150000e+001 -2.650000e+001  5.300000e+000
      vertex -2.270000e+001 -1.470000e+001  5.300000e+000
      vertex -2.150000e+001 -1.470000e+001  5.300000e+000
    endloop
  endfacet
  facet normal -1.000000e+000  0.000000e+000  0.000000e+000
    outer loop
      vertex  3.835000e+001  2.650000e+001  1.580000e+001
      vertex  3.835000e+001  2.650000e+001  5.300000e+000
      vertex  3.835000e+001 -2.650000e+001  1.580000e+001
    endloop
  endfacet
  facet normal -1.000000e+000  0.000000e+000  0.000000e+000
    outer loop
      vertex  3.835000e+001 -2.650000e+001  1.580000e+001
      vertex  3.835000e+001  2.650000e+001  5.300000e+000
      vertex  3.835000e+001 -2.650000e+001  5.300000e+000
    endloop
  endfacet
  facet normal  1.000000e+000  0.000000e+000  0.000000e+000
    outer loop
      vertex -3.835000e+001 -2.650000e+001  1.580000e+001
      vertex -3.835000e+001 -2.650000e+001  5.300000e+000
      vertex -3.835000e+001  2.650000e+001  1.580000e+001
    endloop
  endfacet
  facet normal  1.000000e+000  0.000000e+000  0.000000e+000
    outer loop
      vertex -3.835000e+001  2.650000e+001  1.580000e+001
      vertex -3.835000e+001 -2.650000e+001  5.300000e+000
      vertex -3.835000e+001  2.650000e+001  5.300000e+000
    endloop
  endfacet
endsolid CATIA STL
