solid CATIA STL
  facet normal  8.715045e-002  9.961951e-001  0.000000e+000
    outer loop
      vertex  3.400000e+001  3.660000e+001  0.000000e+000
      vertex  3.400000e+001  3.660000e+001  1.200000e+000
      vertex  3.445148e+001  3.656050e+001  0.000000e+000
    endloop
  endfacet
  facet normal  8.715045e-002  9.961951e-001  -0.000000e+000
    outer loop
      vertex  3.445148e+001  3.656050e+001  0.000000e+000
      vertex  3.400000e+001  3.660000e+001  1.200000e+000
      vertex  3.445148e+001  3.656050e+001  1.200000e+000
    endloop
  endfacet
  facet normal  2.588244e-001  9.659243e-001  0.000000e+000
    outer loop
      vertex  3.445148e+001  3.656050e+001  0.000000e+000
      vertex  3.445148e+001  3.656050e+001  1.200000e+000
      vertex  3.488925e+001  3.644320e+001  0.000000e+000
    endloop
  endfacet
  facet normal  2.588244e-001  9.659243e-001  -0.000000e+000
    outer loop
      vertex  3.488925e+001  3.644320e+001  0.000000e+000
      vertex  3.445148e+001  3.656050e+001  1.200000e+000
      vertex  3.488925e+001  3.644320e+001  1.200000e+000
    endloop
  endfacet
  facet normal  4.226136e-001  9.063100e-001  0.000000e+000
    outer loop
      vertex  3.488925e+001  3.644320e+001  0.000000e+000
      vertex  3.488925e+001  3.644320e+001  1.200000e+000
      vertex  3.530000e+001  3.625167e+001  0.000000e+000
    endloop
  endfacet
  facet normal  4.226136e-001  9.063100e-001  -0.000000e+000
    outer loop
      vertex  3.530000e+001  3.625167e+001  0.000000e+000
      vertex  3.488925e+001  3.644320e+001  1.200000e+000
      vertex  3.530000e+001  3.625167e+001  1.200000e+000
    endloop
  endfacet
  facet normal  5.735770e-001  8.191516e-001  0.000000e+000
    outer loop
      vertex  3.530000e+001  3.625167e+001  0.000000e+000
      vertex  3.530000e+001  3.625167e+001  1.200000e+000
      vertex  3.567125e+001  3.599171e+001  0.000000e+000
    endloop
  endfacet
  facet normal  5.735770e-001  8.191516e-001  -0.000000e+000
    outer loop
      vertex  3.567125e+001  3.599171e+001  0.000000e+000
      vertex  3.530000e+001  3.625167e+001  1.200000e+000
      vertex  3.567125e+001  3.599171e+001  1.200000e+000
    endloop
  endfacet
  facet normal  7.071068e-001  7.071068e-001  0.000000e+000
    outer loop
      vertex  3.567125e+001  3.599171e+001  0.000000e+000
      vertex  3.567125e+001  3.599171e+001  1.200000e+000
      vertex  3.599171e+001  3.567125e+001  0.000000e+000
    endloop
  endfacet
  facet normal  7.071068e-001  7.071068e-001  -0.000000e+000
    outer loop
      vertex  3.599171e+001  3.567125e+001  0.000000e+000
      vertex  3.567125e+001  3.599171e+001  1.200000e+000
      vertex  3.599171e+001  3.567125e+001  1.200000e+000
    endloop
  endfacet
  facet normal  8.191516e-001  5.735770e-001  0.000000e+000
    outer loop
      vertex  3.599171e+001  3.567125e+001  0.000000e+000
      vertex  3.599171e+001  3.567125e+001  1.200000e+000
      vertex  3.625167e+001  3.530000e+001  0.000000e+000
    endloop
  endfacet
  facet normal  8.191516e-001  5.735770e-001  -0.000000e+000
    outer loop
      vertex  3.625167e+001  3.530000e+001  0.000000e+000
      vertex  3.599171e+001  3.567125e+001  1.200000e+000
      vertex  3.625167e+001  3.530000e+001  1.200000e+000
    endloop
  endfacet
  facet normal  9.063100e-001  4.226136e-001  0.000000e+000
    outer loop
      vertex  3.625167e+001  3.530000e+001  0.000000e+000
      vertex  3.625167e+001  3.530000e+001  1.200000e+000
      vertex  3.644320e+001  3.488925e+001  0.000000e+000
    endloop
  endfacet
  facet normal  9.063100e-001  4.226136e-001  -0.000000e+000
    outer loop
      vertex  3.644320e+001  3.488925e+001  0.000000e+000
      vertex  3.625167e+001  3.530000e+001  1.200000e+000
      vertex  3.644320e+001  3.488925e+001  1.200000e+000
    endloop
  endfacet
  facet normal  9.659243e-001  2.588244e-001  0.000000e+000
    outer loop
      vertex  3.644320e+001  3.488925e+001  0.000000e+000
      vertex  3.644320e+001  3.488925e+001  1.200000e+000
      vertex  3.656050e+001  3.445148e+001  0.000000e+000
    endloop
  endfacet
  facet normal  9.659243e-001  2.588244e-001  -0.000000e+000
    outer loop
      vertex  3.656050e+001  3.445148e+001  0.000000e+000
      vertex  3.644320e+001  3.488925e+001  1.200000e+000
      vertex  3.656050e+001  3.445148e+001  1.200000e+000
    endloop
  endfacet
  facet normal  9.961951e-001  8.715045e-002  0.000000e+000
    outer loop
      vertex  3.656050e+001  3.445148e+001  0.000000e+000
      vertex  3.656050e+001  3.445148e+001  1.200000e+000
      vertex  3.660000e+001  3.400000e+001  0.000000e+000
    endloop
  endfacet
  facet normal  9.961951e-001  8.715045e-002  -0.000000e+000
    outer loop
      vertex  3.660000e+001  3.400000e+001  0.000000e+000
      vertex  3.656050e+001  3.445148e+001  1.200000e+000
      vertex  3.660000e+001  3.400000e+001  1.200000e+000
    endloop
  endfacet
  facet normal  -0.000000e+000  0.000000e+000  1.000000e+000
    outer loop
      vertex  3.400000e+001  3.620000e+001  1.600000e+000
      vertex -3.400000e+001  3.620000e+001  1.600000e+000
      vertex  3.438203e+001  3.616658e+001  1.600000e+000
    endloop
  endfacet
  facet normal  0.000000e+000  0.000000e+000  1.000000e+000
    outer loop
      vertex  3.438203e+001  3.616658e+001  1.600000e+000
      vertex -3.400000e+001  3.620000e+001  1.600000e+000
      vertex -3.438203e+001  3.616658e+001  1.600000e+000
    endloop
  endfacet
  facet normal  -0.000000e+000  0.000000e+000  1.000000e+000
    outer loop
      vertex  3.438203e+001  3.616658e+001  1.600000e+000
      vertex -3.438203e+001  3.616658e+001  1.600000e+000
      vertex  3.475245e+001  3.606733e+001  1.600000e+000
    endloop
  endfacet
  facet normal  0.000000e+000  0.000000e+000  1.000000e+000
    outer loop
      vertex  3.475245e+001  3.606733e+001  1.600000e+000
      vertex -3.438203e+001  3.616658e+001  1.600000e+000
      vertex -3.475245e+001  3.606733e+001  1.600000e+000
    endloop
  endfacet
  facet normal  -0.000000e+000  0.000000e+000  1.000000e+000
    outer loop
      vertex  3.475245e+001  3.606733e+001  1.600000e+000
      vertex -3.475245e+001  3.606733e+001  1.600000e+000
      vertex  3.510000e+001  3.590525e+001  1.600000e+000
    endloop
  endfacet
  facet normal  0.000000e+000  0.000000e+000  1.000000e+000
    outer loop
      vertex  3.510000e+001  3.590525e+001  1.600000e+000
      vertex -3.475245e+001  3.606733e+001  1.600000e+000
      vertex -3.510000e+001  3.590525e+001  1.600000e+000
    endloop
  endfacet
  facet normal  -0.000000e+000  0.000000e+000  1.000000e+000
    outer loop
      vertex  3.510000e+001  3.590525e+001  1.600000e+000
      vertex -3.510000e+001  3.590525e+001  1.600000e+000
      vertex  3.541413e+001  3.568530e+001  1.600000e+000
    endloop
  endfacet
  facet normal  0.000000e+000  0.000000e+000  1.000000e+000
    outer loop
      vertex  3.541413e+001  3.568530e+001  1.600000e+000
      vertex -3.510000e+001  3.590525e+001  1.600000e+000
      vertex -3.541413e+001  3.568530e+001  1.600000e+000
    endloop
  endfacet
  facet normal  -0.000000e+000  0.000000e+000  1.000000e+000
    outer loop
      vertex  3.541413e+001  3.568530e+001  1.600000e+000
      vertex -3.541413e+001  3.568530e+001  1.600000e+000
      vertex  3.568530e+001  3.541413e+001  1.600000e+000
    endloop
  endfacet
  facet normal  0.000000e+000  0.000000e+000  1.000000e+000
    outer loop
      vertex  3.568530e+001  3.541413e+001  1.600000e+000
      vertex -3.541413e+001  3.568530e+001  1.600000e+000
      vertex -3.568530e+001  3.541413e+001  1.600000e+000
    endloop
  endfacet
  facet normal  -0.000000e+000  0.000000e+000  1.000000e+000
    outer loop
      vertex  3.568530e+001  3.541413e+001  1.600000e+000
      vertex -3.568530e+001  3.541413e+001  1.600000e+000
      vertex  3.590525e+001  3.510000e+001  1.600000e+000
    endloop
  endfacet
  facet normal  0.000000e+000  0.000000e+000  1.000000e+000
    outer loop
      vertex  3.590525e+001  3.510000e+001  1.600000e+000
      vertex -3.568530e+001  3.541413e+001  1.600000e+000
      vertex -3.590525e+001  3.510000e+001  1.600000e+000
    endloop
  endfacet
  facet normal  -0.000000e+000  0.000000e+000  1.000000e+000
    outer loop
      vertex  3.590525e+001  3.510000e+001  1.600000e+000
      vertex -3.590525e+001  3.510000e+001  1.600000e+000
      vertex  3.606733e+001  3.475245e+001  1.600000e+000
    endloop
  endfacet
  facet normal  0.000000e+000  0.000000e+000  1.000000e+000
    outer loop
      vertex  3.606733e+001  3.475245e+001  1.600000e+000
      vertex -3.590525e+001  3.510000e+001  1.600000e+000
      vertex -3.606733e+001  3.475245e+001  1.600000e+000
    endloop
  endfacet
  facet normal  -0.000000e+000  0.000000e+000  9.999999e-001
    outer loop
      vertex  3.606733e+001  3.475245e+001  1.600000e+000
      vertex -3.606733e+001  3.475245e+001  1.600000e+000
      vertex  3.616658e+001  3.438203e+001  1.600000e+000
    endloop
  endfacet
  facet normal  0.000000e+000  0.000000e+000  1.000000e+000
    outer loop
      vertex  3.616658e+001  3.438203e+001  1.600000e+000
      vertex -3.606733e+001  3.475245e+001  1.600000e+000
      vertex -3.616658e+001  3.438203e+001  1.600000e+000
    endloop
  endfacet
  facet normal  -0.000000e+000  0.000000e+000  1.000000e+000
    outer loop
      vertex  3.616658e+001  3.438203e+001  1.600000e+000
      vertex -3.616658e+001  3.438203e+001  1.600000e+000
      vertex  3.620000e+001  3.400000e+001  1.600000e+000
    endloop
  endfacet
  facet normal  0.000000e+000  0.000000e+000  1.000000e+000
    outer loop
      vertex  3.620000e+001  3.400000e+001  1.600000e+000
      vertex -3.616658e+001  3.438203e+001  1.600000e+000
      vertex -3.620000e+001  3.400000e+001  1.600000e+000
    endloop
  endfacet
  facet normal  -0.000000e+000  0.000000e+000  1.000000e+000
    outer loop
      vertex  3.620000e+001  3.400000e+001  1.600000e+000
      vertex -3.620000e+001  3.400000e+001  1.600000e+000
      vertex  3.620000e+001 -3.400000e+001  1.600000e+000
    endloop
  endfacet
  facet normal  0.000000e+000  0.000000e+000  1.000000e+000
    outer loop
      vertex  3.620000e+001 -3.400000e+001  1.600000e+000
      vertex -3.620000e+001  3.400000e+001  1.600000e+000
      vertex -3.620000e+001 -3.400000e+001  1.600000e+000
    endloop
  endfacet
  facet normal  -0.000000e+000  0.000000e+000  1.000000e+000
    outer loop
      vertex  3.620000e+001 -3.400000e+001  1.600000e+000
      vertex -3.620000e+001 -3.400000e+001  1.600000e+000
      vertex  3.616658e+001 -3.438203e+001  1.600000e+000
    endloop
  endfacet
  facet normal  0.000000e+000  0.000000e+000  1.000000e+000
    outer loop
      vertex  3.616658e+001 -3.438203e+001  1.600000e+000
      vertex -3.620000e+001 -3.400000e+001  1.600000e+000
      vertex -3.616658e+001 -3.438203e+001  1.600000e+000
    endloop
  endfacet
  facet normal  -0.000000e+000  0.000000e+000  1.000000e+000
    outer loop
      vertex  3.616658e+001 -3.438203e+001  1.600000e+000
      vertex -3.616658e+001 -3.438203e+001  1.600000e+000
      vertex  3.606733e+001 -3.475245e+001  1.600000e+000
    endloop
  endfacet
  facet normal  0.000000e+000  0.000000e+000  9.999999e-001
    outer loop
      vertex  3.606733e+001 -3.475245e+001  1.600000e+000
      vertex -3.616658e+001 -3.438203e+001  1.600000e+000
      vertex -3.606733e+001 -3.475245e+001  1.600000e+000
    endloop
  endfacet
  facet normal  -0.000000e+000  0.000000e+000  1.000000e+000
    outer loop
      vertex  3.606733e+001 -3.475245e+001  1.600000e+000
      vertex -3.606733e+001 -3.475245e+001  1.600000e+000
      vertex  3.590525e+001 -3.510000e+001  1.600000e+000
    endloop
  endfacet
  facet normal  0.000000e+000  0.000000e+000  1.000000e+000
    outer loop
      vertex  3.590525e+001 -3.510000e+001  1.600000e+000
      vertex -3.606733e+001 -3.475245e+001  1.600000e+000
      vertex -3.590525e+001 -3.510000e+001  1.600000e+000
    endloop
  endfacet
  facet normal  -0.000000e+000  0.000000e+000  1.000000e+000
    outer loop
      vertex  3.590525e+001 -3.510000e+001  1.600000e+000
      vertex -3.590525e+001 -3.510000e+001  1.600000e+000
      vertex  3.568530e+001 -3.541413e+001  1.600000e+000
    endloop
  endfacet
  facet normal  0.000000e+000  0.000000e+000  1.000000e+000
    outer loop
      vertex  3.568530e+001 -3.541413e+001  1.600000e+000
      vertex -3.590525e+001 -3.510000e+001  1.600000e+000
      vertex -3.568530e+001 -3.541413e+001  1.600000e+000
    endloop
  endfacet
  facet normal  -0.000000e+000  0.000000e+000  1.000000e+000
    outer loop
      vertex  3.568530e+001 -3.541413e+001  1.600000e+000
      vertex -3.568530e+001 -3.541413e+001  1.600000e+000
      vertex  3.541413e+001 -3.568530e+001  1.600000e+000
    endloop
  endfacet
  facet normal  0.000000e+000  0.000000e+000  1.000000e+000
    outer loop
      vertex  3.541413e+001 -3.568530e+001  1.600000e+000
      vertex -3.568530e+001 -3.541413e+001  1.600000e+000
      vertex -3.541413e+001 -3.568530e+001  1.600000e+000
    endloop
  endfacet
  facet normal  -0.000000e+000  0.000000e+000  1.000000e+000
    outer loop
      vertex  3.541413e+001 -3.568530e+001  1.600000e+000
      vertex -3.541413e+001 -3.568530e+001  1.600000e+000
      vertex  3.510000e+001 -3.590525e+001  1.600000e+000
    endloop
  endfacet
  facet normal  0.000000e+000  0.000000e+000  1.000000e+000
    outer loop
      vertex  3.510000e+001 -3.590525e+001  1.600000e+000
      vertex -3.541413e+001 -3.568530e+001  1.600000e+000
      vertex -3.510000e+001 -3.590525e+001  1.600000e+000
    endloop
  endfacet
  facet normal  -0.000000e+000  0.000000e+000  1.000000e+000
    outer loop
      vertex  3.510000e+001 -3.590525e+001  1.600000e+000
      vertex -3.510000e+001 -3.590525e+001  1.600000e+000
      vertex  3.475245e+001 -3.606733e+001  1.600000e+000
    endloop
  endfacet
  facet normal  0.000000e+000  0.000000e+000  1.000000e+000
    outer loop
      vertex  3.475245e+001 -3.606733e+001  1.600000e+000
      vertex -3.510000e+001 -3.590525e+001  1.600000e+000
      vertex -3.475245e+001 -3.606733e+001  1.600000e+000
    endloop
  endfacet
  facet normal  -0.000000e+000  0.000000e+000  1.000000e+000
    outer loop
      vertex  3.475245e+001 -3.606733e+001  1.600000e+000
      vertex -3.475245e+001 -3.606733e+001  1.600000e+000
      vertex  3.438203e+001 -3.616658e+001  1.600000e+000
    endloop
  endfacet
  facet normal  0.000000e+000  0.000000e+000  1.000000e+000
    outer loop
      vertex  3.438203e+001 -3.616658e+001  1.600000e+000
      vertex -3.475245e+001 -3.606733e+001  1.600000e+000
      vertex -3.438203e+001 -3.616658e+001  1.600000e+000
    endloop
  endfacet
  facet normal  -0.000000e+000  0.000000e+000  1.000000e+000
    outer loop
      vertex  3.438203e+001 -3.616658e+001  1.600000e+000
      vertex -3.438203e+001 -3.616658e+001  1.600000e+000
      vertex  3.400000e+001 -3.620000e+001  1.600000e+000
    endloop
  endfacet
  facet normal  0.000000e+000  0.000000e+000  1.000000e+000
    outer loop
      vertex  3.400000e+001 -3.620000e+001  1.600000e+000
      vertex -3.438203e+001 -3.616658e+001  1.600000e+000
      vertex -3.400000e+001 -3.620000e+001  1.600000e+000
    endloop
  endfacet
  facet normal  1.000000e+000  -0.000000e+000  0.000000e+000
    outer loop
      vertex  3.660000e+001  3.400000e+001  1.200000e+000
      vertex  3.660000e+001 -3.400000e+001  1.200000e+000
      vertex  3.660000e+001  3.400000e+001  0.000000e+000
    endloop
  endfacet
  facet normal  1.000000e+000  0.000000e+000  0.000000e+000
    outer loop
      vertex  3.660000e+001  3.400000e+001  0.000000e+000
      vertex  3.660000e+001 -3.400000e+001  1.200000e+000
      vertex  3.660000e+001 -3.400000e+001  0.000000e+000
    endloop
  endfacet
  facet normal  0.000000e+000  1.000000e+000  0.000000e+000
    outer loop
      vertex -3.400000e+001  3.660000e+001  1.200000e+000
      vertex  3.400000e+001  3.660000e+001  1.200000e+000
      vertex -3.400000e+001  3.660000e+001  0.000000e+000
    endloop
  endfacet
  facet normal  0.000000e+000  1.000000e+000  0.000000e+000
    outer loop
      vertex -3.400000e+001  3.660000e+001  0.000000e+000
      vertex  3.400000e+001  3.660000e+001  1.200000e+000
      vertex  3.400000e+001  3.660000e+001  0.000000e+000
    endloop
  endfacet
  facet normal  9.961951e-001 -8.715045e-002  0.000000e+000
    outer loop
      vertex  3.660000e+001 -3.400000e+001  0.000000e+000
      vertex  3.660000e+001 -3.400000e+001  1.200000e+000
      vertex  3.656050e+001 -3.445148e+001  0.000000e+000
    endloop
  endfacet
  facet normal  9.961951e-001 -8.715045e-002  0.000000e+000
    outer loop
      vertex  3.656050e+001 -3.445148e+001  0.000000e+000
      vertex  3.660000e+001 -3.400000e+001  1.200000e+000
      vertex  3.656050e+001 -3.445148e+001  1.200000e+000
    endloop
  endfacet
  facet normal  9.659243e-001 -2.588244e-001  0.000000e+000
    outer loop
      vertex  3.656050e+001 -3.445148e+001  0.000000e+000
      vertex  3.656050e+001 -3.445148e+001  1.200000e+000
      vertex  3.644320e+001 -3.488925e+001  0.000000e+000
    endloop
  endfacet
  facet normal  9.659243e-001 -2.588244e-001  0.000000e+000
    outer loop
      vertex  3.644320e+001 -3.488925e+001  0.000000e+000
      vertex  3.656050e+001 -3.445148e+001  1.200000e+000
      vertex  3.644320e+001 -3.488925e+001  1.200000e+000
    endloop
  endfacet
  facet normal  9.063100e-001 -4.226136e-001  0.000000e+000
    outer loop
      vertex  3.644320e+001 -3.488925e+001  0.000000e+000
      vertex  3.644320e+001 -3.488925e+001  1.200000e+000
      vertex  3.625167e+001 -3.530000e+001  0.000000e+000
    endloop
  endfacet
  facet normal  9.063100e-001 -4.226136e-001  0.000000e+000
    outer loop
      vertex  3.625167e+001 -3.530000e+001  0.000000e+000
      vertex  3.644320e+001 -3.488925e+001  1.200000e+000
      vertex  3.625167e+001 -3.530000e+001  1.200000e+000
    endloop
  endfacet
  facet normal  8.191516e-001 -5.735770e-001  0.000000e+000
    outer loop
      vertex  3.625167e+001 -3.530000e+001  0.000000e+000
      vertex  3.625167e+001 -3.530000e+001  1.200000e+000
      vertex  3.599171e+001 -3.567125e+001  0.000000e+000
    endloop
  endfacet
  facet normal  8.191516e-001 -5.735770e-001  0.000000e+000
    outer loop
      vertex  3.599171e+001 -3.567125e+001  0.000000e+000
      vertex  3.625167e+001 -3.530000e+001  1.200000e+000
      vertex  3.599171e+001 -3.567125e+001  1.200000e+000
    endloop
  endfacet
  facet normal  7.071068e-001 -7.071068e-001  0.000000e+000
    outer loop
      vertex  3.599171e+001 -3.567125e+001  0.000000e+000
      vertex  3.599171e+001 -3.567125e+001  1.200000e+000
      vertex  3.567125e+001 -3.599171e+001  0.000000e+000
    endloop
  endfacet
  facet normal  7.071068e-001 -7.071068e-001  0.000000e+000
    outer loop
      vertex  3.567125e+001 -3.599171e+001  0.000000e+000
      vertex  3.599171e+001 -3.567125e+001  1.200000e+000
      vertex  3.567125e+001 -3.599171e+001  1.200000e+000
    endloop
  endfacet
  facet normal  5.735770e-001 -8.191516e-001  0.000000e+000
    outer loop
      vertex  3.567125e+001 -3.599171e+001  0.000000e+000
      vertex  3.567125e+001 -3.599171e+001  1.200000e+000
      vertex  3.530000e+001 -3.625167e+001  0.000000e+000
    endloop
  endfacet
  facet normal  5.735770e-001 -8.191516e-001  0.000000e+000
    outer loop
      vertex  3.530000e+001 -3.625167e+001  0.000000e+000
      vertex  3.567125e+001 -3.599171e+001  1.200000e+000
      vertex  3.530000e+001 -3.625167e+001  1.200000e+000
    endloop
  endfacet
  facet normal  4.226136e-001 -9.063100e-001  0.000000e+000
    outer loop
      vertex  3.530000e+001 -3.625167e+001  0.000000e+000
      vertex  3.530000e+001 -3.625167e+001  1.200000e+000
      vertex  3.488925e+001 -3.644320e+001  0.000000e+000
    endloop
  endfacet
  facet normal  4.226136e-001 -9.063100e-001  0.000000e+000
    outer loop
      vertex  3.488925e+001 -3.644320e+001  0.000000e+000
      vertex  3.530000e+001 -3.625167e+001  1.200000e+000
      vertex  3.488925e+001 -3.644320e+001  1.200000e+000
    endloop
  endfacet
  facet normal  2.588244e-001 -9.659243e-001  0.000000e+000
    outer loop
      vertex  3.488925e+001 -3.644320e+001  0.000000e+000
      vertex  3.488925e+001 -3.644320e+001  1.200000e+000
      vertex  3.445148e+001 -3.656050e+001  0.000000e+000
    endloop
  endfacet
  facet normal  2.588244e-001 -9.659243e-001  0.000000e+000
    outer loop
      vertex  3.445148e+001 -3.656050e+001  0.000000e+000
      vertex  3.488925e+001 -3.644320e+001  1.200000e+000
      vertex  3.445148e+001 -3.656050e+001  1.200000e+000
    endloop
  endfacet
  facet normal  8.715045e-002 -9.961951e-001  0.000000e+000
    outer loop
      vertex  3.445148e+001 -3.656050e+001  0.000000e+000
      vertex  3.445148e+001 -3.656050e+001  1.200000e+000
      vertex  3.400000e+001 -3.660000e+001  0.000000e+000
    endloop
  endfacet
  facet normal  8.715045e-002 -9.961951e-001  0.000000e+000
    outer loop
      vertex  3.400000e+001 -3.660000e+001  0.000000e+000
      vertex  3.445148e+001 -3.656050e+001  1.200000e+000
      vertex  3.400000e+001 -3.660000e+001  1.200000e+000
    endloop
  endfacet
  facet normal  0.000000e+000 -1.000000e+000  0.000000e+000
    outer loop
      vertex  3.400000e+001 -3.660000e+001  1.200000e+000
      vertex -3.400000e+001 -3.660000e+001  1.200000e+000
      vertex  3.400000e+001 -3.660000e+001  0.000000e+000
    endloop
  endfacet
  facet normal  0.000000e+000 -1.000000e+000  0.000000e+000
    outer loop
      vertex  3.400000e+001 -3.660000e+001  0.000000e+000
      vertex -3.400000e+001 -3.660000e+001  1.200000e+000
      vertex -3.400000e+001 -3.660000e+001  0.000000e+000
    endloop
  endfacet
  facet normal -8.715045e-002 -9.961951e-001  -0.000000e+000
    outer loop
      vertex -3.400000e+001 -3.660000e+001  0.000000e+000
      vertex -3.400000e+001 -3.660000e+001  1.200000e+000
      vertex -3.445148e+001 -3.656050e+001  0.000000e+000
    endloop
  endfacet
  facet normal -8.715045e-002 -9.961951e-001  0.000000e+000
    outer loop
      vertex -3.445148e+001 -3.656050e+001  0.000000e+000
      vertex -3.400000e+001 -3.660000e+001  1.200000e+000
      vertex -3.445148e+001 -3.656050e+001  1.200000e+000
    endloop
  endfacet
  facet normal -2.588244e-001 -9.659243e-001  -0.000000e+000
    outer loop
      vertex -3.445148e+001 -3.656050e+001  0.000000e+000
      vertex -3.445148e+001 -3.656050e+001  1.200000e+000
      vertex -3.488925e+001 -3.644320e+001  0.000000e+000
    endloop
  endfacet
  facet normal -2.588244e-001 -9.659243e-001  0.000000e+000
    outer loop
      vertex -3.488925e+001 -3.644320e+001  0.000000e+000
      vertex -3.445148e+001 -3.656050e+001  1.200000e+000
      vertex -3.488925e+001 -3.644320e+001  1.200000e+000
    endloop
  endfacet
  facet normal -4.226136e-001 -9.063100e-001  -0.000000e+000
    outer loop
      vertex -3.488925e+001 -3.644320e+001  0.000000e+000
      vertex -3.488925e+001 -3.644320e+001  1.200000e+000
      vertex -3.530000e+001 -3.625167e+001  0.000000e+000
    endloop
  endfacet
  facet normal -4.226136e-001 -9.063100e-001  0.000000e+000
    outer loop
      vertex -3.530000e+001 -3.625167e+001  0.000000e+000
      vertex -3.488925e+001 -3.644320e+001  1.200000e+000
      vertex -3.530000e+001 -3.625167e+001  1.200000e+000
    endloop
  endfacet
  facet normal -5.735770e-001 -8.191516e-001  -0.000000e+000
    outer loop
      vertex -3.530000e+001 -3.625167e+001  0.000000e+000
      vertex -3.530000e+001 -3.625167e+001  1.200000e+000
      vertex -3.567125e+001 -3.599171e+001  0.000000e+000
    endloop
  endfacet
  facet normal -5.735770e-001 -8.191516e-001  0.000000e+000
    outer loop
      vertex -3.567125e+001 -3.599171e+001  0.000000e+000
      vertex -3.530000e+001 -3.625167e+001  1.200000e+000
      vertex -3.567125e+001 -3.599171e+001  1.200000e+000
    endloop
  endfacet
  facet normal -7.071068e-001 -7.071068e-001  -0.000000e+000
    outer loop
      vertex -3.567125e+001 -3.599171e+001  0.000000e+000
      vertex -3.567125e+001 -3.599171e+001  1.200000e+000
      vertex -3.599171e+001 -3.567125e+001  0.000000e+000
    endloop
  endfacet
  facet normal -7.071068e-001 -7.071068e-001  0.000000e+000
    outer loop
      vertex -3.599171e+001 -3.567125e+001  0.000000e+000
      vertex -3.567125e+001 -3.599171e+001  1.200000e+000
      vertex -3.599171e+001 -3.567125e+001  1.200000e+000
    endloop
  endfacet
  facet normal -8.191516e-001 -5.735770e-001  -0.000000e+000
    outer loop
      vertex -3.599171e+001 -3.567125e+001  0.000000e+000
      vertex -3.599171e+001 -3.567125e+001  1.200000e+000
      vertex -3.625167e+001 -3.530000e+001  0.000000e+000
    endloop
  endfacet
  facet normal -8.191516e-001 -5.735770e-001  0.000000e+000
    outer loop
      vertex -3.625167e+001 -3.530000e+001  0.000000e+000
      vertex -3.599171e+001 -3.567125e+001  1.200000e+000
      vertex -3.625167e+001 -3.530000e+001  1.200000e+000
    endloop
  endfacet
  facet normal -9.063100e-001 -4.226136e-001  -0.000000e+000
    outer loop
      vertex -3.625167e+001 -3.530000e+001  0.000000e+000
      vertex -3.625167e+001 -3.530000e+001  1.200000e+000
      vertex -3.644320e+001 -3.488925e+001  0.000000e+000
    endloop
  endfacet
  facet normal -9.063100e-001 -4.226136e-001  0.000000e+000
    outer loop
      vertex -3.644320e+001 -3.488925e+001  0.000000e+000
      vertex -3.625167e+001 -3.530000e+001  1.200000e+000
      vertex -3.644320e+001 -3.488925e+001  1.200000e+000
    endloop
  endfacet
  facet normal -9.659243e-001 -2.588244e-001  -0.000000e+000
    outer loop
      vertex -3.644320e+001 -3.488925e+001  0.000000e+000
      vertex -3.644320e+001 -3.488925e+001  1.200000e+000
      vertex -3.656050e+001 -3.445148e+001  0.000000e+000
    endloop
  endfacet
  facet normal -9.659243e-001 -2.588244e-001  0.000000e+000
    outer loop
      vertex -3.656050e+001 -3.445148e+001  0.000000e+000
      vertex -3.644320e+001 -3.488925e+001  1.200000e+000
      vertex -3.656050e+001 -3.445148e+001  1.200000e+000
    endloop
  endfacet
  facet normal -9.961951e-001 -8.715045e-002  -0.000000e+000
    outer loop
      vertex -3.656050e+001 -3.445148e+001  0.000000e+000
      vertex -3.656050e+001 -3.445148e+001  1.200000e+000
      vertex -3.660000e+001 -3.400000e+001  0.000000e+000
    endloop
  endfacet
  facet normal -9.961951e-001 -8.715045e-002  0.000000e+000
    outer loop
      vertex -3.660000e+001 -3.400000e+001  0.000000e+000
      vertex -3.656050e+001 -3.445148e+001  1.200000e+000
      vertex -3.660000e+001 -3.400000e+001  1.200000e+000
    endloop
  endfacet
  facet normal -1.000000e+000  -0.000000e+000  0.000000e+000
    outer loop
      vertex -3.660000e+001 -3.400000e+001  1.200000e+000
      vertex -3.660000e+001  3.400000e+001  1.200000e+000
      vertex -3.660000e+001 -3.400000e+001  0.000000e+000
    endloop
  endfacet
  facet normal -1.000000e+000  0.000000e+000  0.000000e+000
    outer loop
      vertex -3.660000e+001 -3.400000e+001  0.000000e+000
      vertex -3.660000e+001  3.400000e+001  1.200000e+000
      vertex -3.660000e+001  3.400000e+001  0.000000e+000
    endloop
  endfacet
  facet normal -9.961951e-001  8.715045e-002  0.000000e+000
    outer loop
      vertex -3.660000e+001  3.400000e+001  0.000000e+000
      vertex -3.660000e+001  3.400000e+001  1.200000e+000
      vertex -3.656050e+001  3.445148e+001  0.000000e+000
    endloop
  endfacet
  facet normal -9.961951e-001  8.715045e-002  0.000000e+000
    outer loop
      vertex -3.656050e+001  3.445148e+001  0.000000e+000
      vertex -3.660000e+001  3.400000e+001  1.200000e+000
      vertex -3.656050e+001  3.445148e+001  1.200000e+000
    endloop
  endfacet
  facet normal -9.659243e-001  2.588244e-001  0.000000e+000
    outer loop
      vertex -3.656050e+001  3.445148e+001  0.000000e+000
      vertex -3.656050e+001  3.445148e+001  1.200000e+000
      vertex -3.644320e+001  3.488925e+001  0.000000e+000
    endloop
  endfacet
  facet normal -9.659243e-001  2.588244e-001  0.000000e+000
    outer loop
      vertex -3.644320e+001  3.488925e+001  0.000000e+000
      vertex -3.656050e+001  3.445148e+001  1.200000e+000
      vertex -3.644320e+001  3.488925e+001  1.200000e+000
    endloop
  endfacet
  facet normal -9.063100e-001  4.226136e-001  0.000000e+000
    outer loop
      vertex -3.644320e+001  3.488925e+001  0.000000e+000
      vertex -3.644320e+001  3.488925e+001  1.200000e+000
      vertex -3.625167e+001  3.530000e+001  0.000000e+000
    endloop
  endfacet
  facet normal -9.063100e-001  4.226136e-001  0.000000e+000
    outer loop
      vertex -3.625167e+001  3.530000e+001  0.000000e+000
      vertex -3.644320e+001  3.488925e+001  1.200000e+000
      vertex -3.625167e+001  3.530000e+001  1.200000e+000
    endloop
  endfacet
  facet normal -8.191516e-001  5.735770e-001  0.000000e+000
    outer loop
      vertex -3.625167e+001  3.530000e+001  0.000000e+000
      vertex -3.625167e+001  3.530000e+001  1.200000e+000
      vertex -3.599171e+001  3.567125e+001  0.000000e+000
    endloop
  endfacet
  facet normal -8.191516e-001  5.735770e-001  0.000000e+000
    outer loop
      vertex -3.599171e+001  3.567125e+001  0.000000e+000
      vertex -3.625167e+001  3.530000e+001  1.200000e+000
      vertex -3.599171e+001  3.567125e+001  1.200000e+000
    endloop
  endfacet
  facet normal -7.071068e-001  7.071068e-001  0.000000e+000
    outer loop
      vertex -3.599171e+001  3.567125e+001  0.000000e+000
      vertex -3.599171e+001  3.567125e+001  1.200000e+000
      vertex -3.567125e+001  3.599171e+001  0.000000e+000
    endloop
  endfacet
  facet normal -7.071068e-001  7.071068e-001  0.000000e+000
    outer loop
      vertex -3.567125e+001  3.599171e+001  0.000000e+000
      vertex -3.599171e+001  3.567125e+001  1.200000e+000
      vertex -3.567125e+001  3.599171e+001  1.200000e+000
    endloop
  endfacet
  facet normal -5.735770e-001  8.191516e-001  0.000000e+000
    outer loop
      vertex -3.567125e+001  3.599171e+001  0.000000e+000
      vertex -3.567125e+001  3.599171e+001  1.200000e+000
      vertex -3.530000e+001  3.625167e+001  0.000000e+000
    endloop
  endfacet
  facet normal -5.735770e-001  8.191516e-001  0.000000e+000
    outer loop
      vertex -3.530000e+001  3.625167e+001  0.000000e+000
      vertex -3.567125e+001  3.599171e+001  1.200000e+000
      vertex -3.530000e+001  3.625167e+001  1.200000e+000
    endloop
  endfacet
  facet normal -4.226136e-001  9.063100e-001  0.000000e+000
    outer loop
      vertex -3.530000e+001  3.625167e+001  0.000000e+000
      vertex -3.530000e+001  3.625167e+001  1.200000e+000
      vertex -3.488925e+001  3.644320e+001  0.000000e+000
    endloop
  endfacet
  facet normal -4.226136e-001  9.063100e-001  0.000000e+000
    outer loop
      vertex -3.488925e+001  3.644320e+001  0.000000e+000
      vertex -3.530000e+001  3.625167e+001  1.200000e+000
      vertex -3.488925e+001  3.644320e+001  1.200000e+000
    endloop
  endfacet
  facet normal -2.588244e-001  9.659243e-001  0.000000e+000
    outer loop
      vertex -3.488925e+001  3.644320e+001  0.000000e+000
      vertex -3.488925e+001  3.644320e+001  1.200000e+000
      vertex -3.445148e+001  3.656050e+001  0.000000e+000
    endloop
  endfacet
  facet normal -2.588244e-001  9.659243e-001  0.000000e+000
    outer loop
      vertex -3.445148e+001  3.656050e+001  0.000000e+000
      vertex -3.488925e+001  3.644320e+001  1.200000e+000
      vertex -3.445148e+001  3.656050e+001  1.200000e+000
    endloop
  endfacet
  facet normal -8.715045e-002  9.961951e-001  0.000000e+000
    outer loop
      vertex -3.445148e+001  3.656050e+001  0.000000e+000
      vertex -3.445148e+001  3.656050e+001  1.200000e+000
      vertex -3.400000e+001  3.660000e+001  0.000000e+000
    endloop
  endfacet
  facet normal -8.715045e-002  9.961951e-001  0.000000e+000
    outer loop
      vertex -3.400000e+001  3.660000e+001  0.000000e+000
      vertex -3.445148e+001  3.656050e+001  1.200000e+000
      vertex -3.400000e+001  3.660000e+001  1.200000e+000
    endloop
  endfacet
  facet normal  5.803290e-001  4.063513e-001  7.057598e-001
    outer loop
      vertex  3.599171e+001  3.567125e+001  1.200000e+000
      vertex  3.590525e+001  3.510000e+001  1.600000e+000
      vertex  3.625167e+001  3.530000e+001  1.200000e+000
    endloop
  endfacet
  facet normal  6.420712e-001  2.994110e-001  7.057602e-001
    outer loop
      vertex  3.625167e+001  3.530000e+001  1.200000e+000
      vertex  3.590525e+001  3.510000e+001  1.600000e+000
      vertex  3.606733e+001  3.475245e+001  1.600000e+000
    endloop
  endfacet
  facet normal  6.420813e-001  2.994034e-001  7.057544e-001
    outer loop
      vertex  3.625167e+001  3.530000e+001  1.200000e+000
      vertex  3.606733e+001  3.475245e+001  1.600000e+000
      vertex  3.644320e+001  3.488925e+001  1.200000e+000
    endloop
  endfacet
  facet normal  6.843180e-001  1.833578e-001  7.057540e-001
    outer loop
      vertex  3.644320e+001  3.488925e+001  1.200000e+000
      vertex  3.606733e+001  3.475245e+001  1.600000e+000
      vertex  3.616658e+001  3.438203e+001  1.600000e+000
    endloop
  endfacet
  facet normal  6.843115e-001  1.833648e-001  7.057585e-001
    outer loop
      vertex  3.644320e+001  3.488925e+001  1.200000e+000
      vertex  3.616658e+001  3.438203e+001  1.600000e+000
      vertex  3.656050e+001  3.445148e+001  1.200000e+000
    endloop
  endfacet
  facet normal  7.057559e-001  6.174812e-002  7.057590e-001
    outer loop
      vertex  3.656050e+001  3.445148e+001  1.200000e+000
      vertex  3.616658e+001  3.438203e+001  1.600000e+000
      vertex  3.620000e+001  3.400000e+001  1.600000e+000
    endloop
  endfacet
  facet normal  7.057598e-001  6.174217e-002  7.057557e-001
    outer loop
      vertex  3.656050e+001  3.445148e+001  1.200000e+000
      vertex  3.620000e+001  3.400000e+001  1.600000e+000
      vertex  3.660000e+001  3.400000e+001  1.200000e+000
    endloop
  endfacet
  facet normal  5.803335e-001  4.063491e-001  7.057574e-001
    outer loop
      vertex  3.590525e+001  3.510000e+001  1.600000e+000
      vertex  3.599171e+001  3.567125e+001  1.200000e+000
      vertex  3.568530e+001  3.541413e+001  1.600000e+000
    endloop
  endfacet
  facet normal  5.009518e-001  5.009518e-001  7.057582e-001
    outer loop
      vertex  3.568530e+001  3.541413e+001  1.600000e+000
      vertex  3.599171e+001  3.567125e+001  1.200000e+000
      vertex  3.567125e+001  3.599171e+001  1.200000e+000
    endloop
  endfacet
  facet normal  5.009518e-001  5.009518e-001  7.057582e-001
    outer loop
      vertex  3.568530e+001  3.541413e+001  1.600000e+000
      vertex  3.567125e+001  3.599171e+001  1.200000e+000
      vertex  3.541413e+001  3.568530e+001  1.600000e+000
    endloop
  endfacet
  facet normal  4.063526e-001  5.803308e-001  7.057577e-001
    outer loop
      vertex  3.541413e+001  3.568530e+001  1.600000e+000
      vertex  3.567125e+001  3.599171e+001  1.200000e+000
      vertex  3.530000e+001  3.625167e+001  1.200000e+000
    endloop
  endfacet
  facet normal  4.063475e-001  5.803314e-001  7.057599e-001
    outer loop
      vertex  3.541413e+001  3.568530e+001  1.600000e+000
      vertex  3.530000e+001  3.625167e+001  1.200000e+000
      vertex  3.510000e+001  3.590525e+001  1.600000e+000
    endloop
  endfacet
  facet normal  2.994012e-001  6.420765e-001  7.057597e-001
    outer loop
      vertex  3.510000e+001  3.590525e+001  1.600000e+000
      vertex  3.530000e+001  3.625167e+001  1.200000e+000
      vertex  3.488925e+001  3.644320e+001  1.200000e+000
    endloop
  endfacet
  facet normal  2.994137e-001  6.420770e-001  7.057538e-001
    outer loop
      vertex  3.510000e+001  3.590525e+001  1.600000e+000
      vertex  3.488925e+001  3.644320e+001  1.200000e+000
      vertex  3.475245e+001  3.606733e+001  1.600000e+000
    endloop
  endfacet
  facet normal  1.833658e-001  6.843155e-001  7.057545e-001
    outer loop
      vertex  3.475245e+001  3.606733e+001  1.600000e+000
      vertex  3.488925e+001  3.644320e+001  1.200000e+000
      vertex  3.445148e+001  3.656050e+001  1.200000e+000
    endloop
  endfacet
  facet normal  1.833565e-001  6.843134e-001  7.057589e-001
    outer loop
      vertex  3.475245e+001  3.606733e+001  1.600000e+000
      vertex  3.445148e+001  3.656050e+001  1.200000e+000
      vertex  3.438203e+001  3.616658e+001  1.600000e+000
    endloop
  endfacet
  facet normal  6.174196e-002  7.057567e-001  7.057588e-001
    outer loop
      vertex  3.438203e+001  3.616658e+001  1.600000e+000
      vertex  3.445148e+001  3.656050e+001  1.200000e+000
      vertex  3.400000e+001  3.660000e+001  1.200000e+000
    endloop
  endfacet
  facet normal  6.174850e-002  7.057594e-001  7.057555e-001
    outer loop
      vertex  3.438203e+001  3.616658e+001  1.600000e+000
      vertex  3.400000e+001  3.660000e+001  1.200000e+000
      vertex  3.400000e+001  3.620000e+001  1.600000e+000
    endloop
  endfacet
  facet normal  7.071088e-001  0.000000e+000  7.071048e-001
    outer loop
      vertex  3.620000e+001 -3.400000e+001  1.600000e+000
      vertex  3.660000e+001 -3.400000e+001  1.200000e+000
      vertex  3.620000e+001  3.400000e+001  1.600000e+000
    endloop
  endfacet
  facet normal  7.071088e-001  0.000000e+000  7.071048e-001
    outer loop
      vertex  3.620000e+001  3.400000e+001  1.600000e+000
      vertex  3.660000e+001 -3.400000e+001  1.200000e+000
      vertex  3.660000e+001  3.400000e+001  1.200000e+000
    endloop
  endfacet
  facet normal  4.063513e-001 -5.803290e-001  7.057598e-001
    outer loop
      vertex  3.567125e+001 -3.599171e+001  1.200000e+000
      vertex  3.510000e+001 -3.590525e+001  1.600000e+000
      vertex  3.530000e+001 -3.625167e+001  1.200000e+000
    endloop
  endfacet
  facet normal  2.994110e-001 -6.420712e-001  7.057602e-001
    outer loop
      vertex  3.530000e+001 -3.625167e+001  1.200000e+000
      vertex  3.510000e+001 -3.590525e+001  1.600000e+000
      vertex  3.475245e+001 -3.606733e+001  1.600000e+000
    endloop
  endfacet
  facet normal  2.994034e-001 -6.420813e-001  7.057544e-001
    outer loop
      vertex  3.530000e+001 -3.625167e+001  1.200000e+000
      vertex  3.475245e+001 -3.606733e+001  1.600000e+000
      vertex  3.488925e+001 -3.644320e+001  1.200000e+000
    endloop
  endfacet
  facet normal  1.833578e-001 -6.843180e-001  7.057540e-001
    outer loop
      vertex  3.488925e+001 -3.644320e+001  1.200000e+000
      vertex  3.475245e+001 -3.606733e+001  1.600000e+000
      vertex  3.438203e+001 -3.616658e+001  1.600000e+000
    endloop
  endfacet
  facet normal  1.833648e-001 -6.843115e-001  7.057585e-001
    outer loop
      vertex  3.488925e+001 -3.644320e+001  1.200000e+000
      vertex  3.438203e+001 -3.616658e+001  1.600000e+000
      vertex  3.445148e+001 -3.656050e+001  1.200000e+000
    endloop
  endfacet
  facet normal  6.174812e-002 -7.057559e-001  7.057590e-001
    outer loop
      vertex  3.445148e+001 -3.656050e+001  1.200000e+000
      vertex  3.438203e+001 -3.616658e+001  1.600000e+000
      vertex  3.400000e+001 -3.620000e+001  1.600000e+000
    endloop
  endfacet
  facet normal  6.174217e-002 -7.057598e-001  7.057557e-001
    outer loop
      vertex  3.445148e+001 -3.656050e+001  1.200000e+000
      vertex  3.400000e+001 -3.620000e+001  1.600000e+000
      vertex  3.400000e+001 -3.660000e+001  1.200000e+000
    endloop
  endfacet
  facet normal  4.063491e-001 -5.803335e-001  7.057574e-001
    outer loop
      vertex  3.510000e+001 -3.590525e+001  1.600000e+000
      vertex  3.567125e+001 -3.599171e+001  1.200000e+000
      vertex  3.541413e+001 -3.568530e+001  1.600000e+000
    endloop
  endfacet
  facet normal  5.009518e-001 -5.009518e-001  7.057582e-001
    outer loop
      vertex  3.541413e+001 -3.568530e+001  1.600000e+000
      vertex  3.567125e+001 -3.599171e+001  1.200000e+000
      vertex  3.599171e+001 -3.567125e+001  1.200000e+000
    endloop
  endfacet
  facet normal  5.009518e-001 -5.009518e-001  7.057582e-001
    outer loop
      vertex  3.541413e+001 -3.568530e+001  1.600000e+000
      vertex  3.599171e+001 -3.567125e+001  1.200000e+000
      vertex  3.568530e+001 -3.541413e+001  1.600000e+000
    endloop
  endfacet
  facet normal  5.803308e-001 -4.063526e-001  7.057577e-001
    outer loop
      vertex  3.568530e+001 -3.541413e+001  1.600000e+000
      vertex  3.599171e+001 -3.567125e+001  1.200000e+000
      vertex  3.625167e+001 -3.530000e+001  1.200000e+000
    endloop
  endfacet
  facet normal  5.803314e-001 -4.063475e-001  7.057599e-001
    outer loop
      vertex  3.568530e+001 -3.541413e+001  1.600000e+000
      vertex  3.625167e+001 -3.530000e+001  1.200000e+000
      vertex  3.590525e+001 -3.510000e+001  1.600000e+000
    endloop
  endfacet
  facet normal  6.420765e-001 -2.994012e-001  7.057597e-001
    outer loop
      vertex  3.590525e+001 -3.510000e+001  1.600000e+000
      vertex  3.625167e+001 -3.530000e+001  1.200000e+000
      vertex  3.644320e+001 -3.488925e+001  1.200000e+000
    endloop
  endfacet
  facet normal  6.420770e-001 -2.994137e-001  7.057538e-001
    outer loop
      vertex  3.590525e+001 -3.510000e+001  1.600000e+000
      vertex  3.644320e+001 -3.488925e+001  1.200000e+000
      vertex  3.606733e+001 -3.475245e+001  1.600000e+000
    endloop
  endfacet
  facet normal  6.843155e-001 -1.833658e-001  7.057545e-001
    outer loop
      vertex  3.606733e+001 -3.475245e+001  1.600000e+000
      vertex  3.644320e+001 -3.488925e+001  1.200000e+000
      vertex  3.656050e+001 -3.445148e+001  1.200000e+000
    endloop
  endfacet
  facet normal  6.843134e-001 -1.833565e-001  7.057589e-001
    outer loop
      vertex  3.606733e+001 -3.475245e+001  1.600000e+000
      vertex  3.656050e+001 -3.445148e+001  1.200000e+000
      vertex  3.616658e+001 -3.438203e+001  1.600000e+000
    endloop
  endfacet
  facet normal  7.057567e-001 -6.174196e-002  7.057588e-001
    outer loop
      vertex  3.616658e+001 -3.438203e+001  1.600000e+000
      vertex  3.656050e+001 -3.445148e+001  1.200000e+000
      vertex  3.660000e+001 -3.400000e+001  1.200000e+000
    endloop
  endfacet
  facet normal  7.057594e-001 -6.174850e-002  7.057555e-001
    outer loop
      vertex  3.616658e+001 -3.438203e+001  1.600000e+000
      vertex  3.660000e+001 -3.400000e+001  1.200000e+000
      vertex  3.620000e+001 -3.400000e+001  1.600000e+000
    endloop
  endfacet
  facet normal  0.000000e+000 -7.071088e-001  7.071048e-001
    outer loop
      vertex -3.400000e+001 -3.620000e+001  1.600000e+000
      vertex -3.400000e+001 -3.660000e+001  1.200000e+000
      vertex  3.400000e+001 -3.620000e+001  1.600000e+000
    endloop
  endfacet
  facet normal  0.000000e+000 -7.071088e-001  7.071048e-001
    outer loop
      vertex  3.400000e+001 -3.620000e+001  1.600000e+000
      vertex -3.400000e+001 -3.660000e+001  1.200000e+000
      vertex  3.400000e+001 -3.660000e+001  1.200000e+000
    endloop
  endfacet
  facet normal -5.803290e-001 -4.063513e-001  7.057598e-001
    outer loop
      vertex -3.599171e+001 -3.567125e+001  1.200000e+000
      vertex -3.590525e+001 -3.510000e+001  1.600000e+000
      vertex -3.625167e+001 -3.530000e+001  1.200000e+000
    endloop
  endfacet
  facet normal -6.420712e-001 -2.994110e-001  7.057602e-001
    outer loop
      vertex -3.625167e+001 -3.530000e+001  1.200000e+000
      vertex -3.590525e+001 -3.510000e+001  1.600000e+000
      vertex -3.606733e+001 -3.475245e+001  1.600000e+000
    endloop
  endfacet
  facet normal -6.420813e-001 -2.994034e-001  7.057544e-001
    outer loop
      vertex -3.625167e+001 -3.530000e+001  1.200000e+000
      vertex -3.606733e+001 -3.475245e+001  1.600000e+000
      vertex -3.644320e+001 -3.488925e+001  1.200000e+000
    endloop
  endfacet
  facet normal -6.843180e-001 -1.833578e-001  7.057540e-001
    outer loop
      vertex -3.644320e+001 -3.488925e+001  1.200000e+000
      vertex -3.606733e+001 -3.475245e+001  1.600000e+000
      vertex -3.616658e+001 -3.438203e+001  1.600000e+000
    endloop
  endfacet
  facet normal -6.843115e-001 -1.833648e-001  7.057585e-001
    outer loop
      vertex -3.644320e+001 -3.488925e+001  1.200000e+000
      vertex -3.616658e+001 -3.438203e+001  1.600000e+000
      vertex -3.656050e+001 -3.445148e+001  1.200000e+000
    endloop
  endfacet
  facet normal -7.057559e-001 -6.174812e-002  7.057590e-001
    outer loop
      vertex -3.656050e+001 -3.445148e+001  1.200000e+000
      vertex -3.616658e+001 -3.438203e+001  1.600000e+000
      vertex -3.620000e+001 -3.400000e+001  1.600000e+000
    endloop
  endfacet
  facet normal -7.057598e-001 -6.174217e-002  7.057557e-001
    outer loop
      vertex -3.656050e+001 -3.445148e+001  1.200000e+000
      vertex -3.620000e+001 -3.400000e+001  1.600000e+000
      vertex -3.660000e+001 -3.400000e+001  1.200000e+000
    endloop
  endfacet
  facet normal -5.803335e-001 -4.063491e-001  7.057574e-001
    outer loop
      vertex -3.590525e+001 -3.510000e+001  1.600000e+000
      vertex -3.599171e+001 -3.567125e+001  1.200000e+000
      vertex -3.568530e+001 -3.541413e+001  1.600000e+000
    endloop
  endfacet
  facet normal -5.009518e-001 -5.009518e-001  7.057582e-001
    outer loop
      vertex -3.568530e+001 -3.541413e+001  1.600000e+000
      vertex -3.599171e+001 -3.567125e+001  1.200000e+000
      vertex -3.567125e+001 -3.599171e+001  1.200000e+000
    endloop
  endfacet
  facet normal -5.009518e-001 -5.009518e-001  7.057582e-001
    outer loop
      vertex -3.568530e+001 -3.541413e+001  1.600000e+000
      vertex -3.567125e+001 -3.599171e+001  1.200000e+000
      vertex -3.541413e+001 -3.568530e+001  1.600000e+000
    endloop
  endfacet
  facet normal -4.063526e-001 -5.803308e-001  7.057577e-001
    outer loop
      vertex -3.541413e+001 -3.568530e+001  1.600000e+000
      vertex -3.567125e+001 -3.599171e+001  1.200000e+000
      vertex -3.530000e+001 -3.625167e+001  1.200000e+000
    endloop
  endfacet
  facet normal -4.063475e-001 -5.803314e-001  7.057599e-001
    outer loop
      vertex -3.541413e+001 -3.568530e+001  1.600000e+000
      vertex -3.530000e+001 -3.625167e+001  1.200000e+000
      vertex -3.510000e+001 -3.590525e+001  1.600000e+000
    endloop
  endfacet
  facet normal -2.994012e-001 -6.420765e-001  7.057597e-001
    outer loop
      vertex -3.510000e+001 -3.590525e+001  1.600000e+000
      vertex -3.530000e+001 -3.625167e+001  1.200000e+000
      vertex -3.488925e+001 -3.644320e+001  1.200000e+000
    endloop
  endfacet
  facet normal -2.994137e-001 -6.420770e-001  7.057538e-001
    outer loop
      vertex -3.510000e+001 -3.590525e+001  1.600000e+000
      vertex -3.488925e+001 -3.644320e+001  1.200000e+000
      vertex -3.475245e+001 -3.606733e+001  1.600000e+000
    endloop
  endfacet
  facet normal -1.833658e-001 -6.843155e-001  7.057545e-001
    outer loop
      vertex -3.475245e+001 -3.606733e+001  1.600000e+000
      vertex -3.488925e+001 -3.644320e+001  1.200000e+000
      vertex -3.445148e+001 -3.656050e+001  1.200000e+000
    endloop
  endfacet
  facet normal -1.833565e-001 -6.843134e-001  7.057589e-001
    outer loop
      vertex -3.475245e+001 -3.606733e+001  1.600000e+000
      vertex -3.445148e+001 -3.656050e+001  1.200000e+000
      vertex -3.438203e+001 -3.616658e+001  1.600000e+000
    endloop
  endfacet
  facet normal -6.174196e-002 -7.057567e-001  7.057588e-001
    outer loop
      vertex -3.438203e+001 -3.616658e+001  1.600000e+000
      vertex -3.445148e+001 -3.656050e+001  1.200000e+000
      vertex -3.400000e+001 -3.660000e+001  1.200000e+000
    endloop
  endfacet
  facet normal -6.174850e-002 -7.057594e-001  7.057555e-001
    outer loop
      vertex -3.438203e+001 -3.616658e+001  1.600000e+000
      vertex -3.400000e+001 -3.660000e+001  1.200000e+000
      vertex -3.400000e+001 -3.620000e+001  1.600000e+000
    endloop
  endfacet
  facet normal -7.071088e-001  0.000000e+000  7.071048e-001
    outer loop
      vertex -3.620000e+001  3.400000e+001  1.600000e+000
      vertex -3.660000e+001  3.400000e+001  1.200000e+000
      vertex -3.620000e+001 -3.400000e+001  1.600000e+000
    endloop
  endfacet
  facet normal -7.071088e-001  0.000000e+000  7.071048e-001
    outer loop
      vertex -3.620000e+001 -3.400000e+001  1.600000e+000
      vertex -3.660000e+001  3.400000e+001  1.200000e+000
      vertex -3.660000e+001 -3.400000e+001  1.200000e+000
    endloop
  endfacet
  facet normal -4.063513e-001  5.803290e-001  7.057598e-001
    outer loop
      vertex -3.567125e+001  3.599171e+001  1.200000e+000
      vertex -3.510000e+001  3.590525e+001  1.600000e+000
      vertex -3.530000e+001  3.625167e+001  1.200000e+000
    endloop
  endfacet
  facet normal -2.994110e-001  6.420712e-001  7.057602e-001
    outer loop
      vertex -3.530000e+001  3.625167e+001  1.200000e+000
      vertex -3.510000e+001  3.590525e+001  1.600000e+000
      vertex -3.475245e+001  3.606733e+001  1.600000e+000
    endloop
  endfacet
  facet normal -2.994034e-001  6.420813e-001  7.057544e-001
    outer loop
      vertex -3.530000e+001  3.625167e+001  1.200000e+000
      vertex -3.475245e+001  3.606733e+001  1.600000e+000
      vertex -3.488925e+001  3.644320e+001  1.200000e+000
    endloop
  endfacet
  facet normal -1.833578e-001  6.843180e-001  7.057540e-001
    outer loop
      vertex -3.488925e+001  3.644320e+001  1.200000e+000
      vertex -3.475245e+001  3.606733e+001  1.600000e+000
      vertex -3.438203e+001  3.616658e+001  1.600000e+000
    endloop
  endfacet
  facet normal -1.833648e-001  6.843115e-001  7.057585e-001
    outer loop
      vertex -3.488925e+001  3.644320e+001  1.200000e+000
      vertex -3.438203e+001  3.616658e+001  1.600000e+000
      vertex -3.445148e+001  3.656050e+001  1.200000e+000
    endloop
  endfacet
  facet normal -6.174812e-002  7.057559e-001  7.057590e-001
    outer loop
      vertex -3.445148e+001  3.656050e+001  1.200000e+000
      vertex -3.438203e+001  3.616658e+001  1.600000e+000
      vertex -3.400000e+001  3.620000e+001  1.600000e+000
    endloop
  endfacet
  facet normal -6.174217e-002  7.057598e-001  7.057557e-001
    outer loop
      vertex -3.445148e+001  3.656050e+001  1.200000e+000
      vertex -3.400000e+001  3.620000e+001  1.600000e+000
      vertex -3.400000e+001  3.660000e+001  1.200000e+000
    endloop
  endfacet
  facet normal -4.063491e-001  5.803335e-001  7.057574e-001
    outer loop
      vertex -3.510000e+001  3.590525e+001  1.600000e+000
      vertex -3.567125e+001  3.599171e+001  1.200000e+000
      vertex -3.541413e+001  3.568530e+001  1.600000e+000
    endloop
  endfacet
  facet normal -5.009518e-001  5.009518e-001  7.057582e-001
    outer loop
      vertex -3.541413e+001  3.568530e+001  1.600000e+000
      vertex -3.567125e+001  3.599171e+001  1.200000e+000
      vertex -3.599171e+001  3.567125e+001  1.200000e+000
    endloop
  endfacet
  facet normal -5.009518e-001  5.009518e-001  7.057582e-001
    outer loop
      vertex -3.541413e+001  3.568530e+001  1.600000e+000
      vertex -3.599171e+001  3.567125e+001  1.200000e+000
      vertex -3.568530e+001  3.541413e+001  1.600000e+000
    endloop
  endfacet
  facet normal -5.803308e-001  4.063526e-001  7.057577e-001
    outer loop
      vertex -3.568530e+001  3.541413e+001  1.600000e+000
      vertex -3.599171e+001  3.567125e+001  1.200000e+000
      vertex -3.625167e+001  3.530000e+001  1.200000e+000
    endloop
  endfacet
  facet normal -5.803314e-001  4.063475e-001  7.057599e-001
    outer loop
      vertex -3.568530e+001  3.541413e+001  1.600000e+000
      vertex -3.625167e+001  3.530000e+001  1.200000e+000
      vertex -3.590525e+001  3.510000e+001  1.600000e+000
    endloop
  endfacet
  facet normal -6.420765e-001  2.994012e-001  7.057597e-001
    outer loop
      vertex -3.590525e+001  3.510000e+001  1.600000e+000
      vertex -3.625167e+001  3.530000e+001  1.200000e+000
      vertex -3.644320e+001  3.488925e+001  1.200000e+000
    endloop
  endfacet
  facet normal -6.420770e-001  2.994137e-001  7.057538e-001
    outer loop
      vertex -3.590525e+001  3.510000e+001  1.600000e+000
      vertex -3.644320e+001  3.488925e+001  1.200000e+000
      vertex -3.606733e+001  3.475245e+001  1.600000e+000
    endloop
  endfacet
  facet normal -6.843155e-001  1.833658e-001  7.057545e-001
    outer loop
      vertex -3.606733e+001  3.475245e+001  1.600000e+000
      vertex -3.644320e+001  3.488925e+001  1.200000e+000
      vertex -3.656050e+001  3.445148e+001  1.200000e+000
    endloop
  endfacet
  facet normal -6.843134e-001  1.833565e-001  7.057589e-001
    outer loop
      vertex -3.606733e+001  3.475245e+001  1.600000e+000
      vertex -3.656050e+001  3.445148e+001  1.200000e+000
      vertex -3.616658e+001  3.438203e+001  1.600000e+000
    endloop
  endfacet
  facet normal -7.057567e-001  6.174196e-002  7.057588e-001
    outer loop
      vertex -3.616658e+001  3.438203e+001  1.600000e+000
      vertex -3.656050e+001  3.445148e+001  1.200000e+000
      vertex -3.660000e+001  3.400000e+001  1.200000e+000
    endloop
  endfacet
  facet normal -7.057594e-001  6.174850e-002  7.057555e-001
    outer loop
      vertex -3.616658e+001  3.438203e+001  1.600000e+000
      vertex -3.660000e+001  3.400000e+001  1.200000e+000
      vertex -3.620000e+001  3.400000e+001  1.600000e+000
    endloop
  endfacet
  facet normal  0.000000e+000  7.071088e-001  7.071048e-001
    outer loop
      vertex  3.400000e+001  3.620000e+001  1.600000e+000
      vertex  3.400000e+001  3.660000e+001  1.200000e+000
      vertex -3.400000e+001  3.620000e+001  1.600000e+000
    endloop
  endfacet
  facet normal  0.000000e+000  7.071088e-001  7.071048e-001
    outer loop
      vertex -3.400000e+001  3.620000e+001  1.600000e+000
      vertex  3.400000e+001  3.660000e+001  1.200000e+000
      vertex -3.400000e+001  3.660000e+001  1.200000e+000
    endloop
  endfacet
  facet normal  0.000000e+000  0.000000e+000 -1.000000e+000
    outer loop
      vertex -3.660000e+001  3.400000e+001  0.000000e+000
      vertex -3.486592e+001  3.415882e+001  0.000000e+000
      vertex -3.490000e+001  3.390000e+001  0.000000e+000
    endloop
  endfacet
  facet normal  0.000000e+000  -0.000000e+000 -1.000000e+000
    outer loop
      vertex -3.644320e+001 -3.488925e+001  0.000000e+000
      vertex -3.440000e+001 -3.476603e+001  0.000000e+000
      vertex -3.415882e+001 -3.486592e+001  0.000000e+000
    endloop
  endfacet
  facet normal  -0.000000e+000  0.000000e+000 -1.000000e+000
    outer loop
      vertex  3.486592e+001  3.415882e+001  0.000000e+000
      vertex  3.660000e+001  3.400000e+001  0.000000e+000
      vertex  3.490000e+001  3.390000e+001  0.000000e+000
    endloop
  endfacet
  facet normal  0.000000e+000  -0.000000e+000 -1.000000e+000
    outer loop
      vertex  3.415882e+001 -3.486592e+001  0.000000e+000
      vertex  3.440000e+001 -3.476603e+001  0.000000e+000
      vertex  3.644320e+001 -3.488925e+001  0.000000e+000
    endloop
  endfacet
  facet normal  0.000000e+000  0.000000e+000 -1.000000e+000
    outer loop
      vertex  3.390000e+001  3.490000e+001  0.000000e+000
      vertex -3.390000e+001  3.490000e+001  0.000000e+000
      vertex -3.400000e+001  3.660000e+001  0.000000e+000
    endloop
  endfacet
  facet normal  0.000000e+000  0.000000e+000 -1.000000e+000
    outer loop
      vertex  3.390000e+001  3.490000e+001  0.000000e+000
      vertex -3.400000e+001  3.660000e+001  0.000000e+000
      vertex  3.400000e+001  3.660000e+001  0.000000e+000
    endloop
  endfacet
  facet normal  0.000000e+000  -0.000000e+000 -9.999999e-001
    outer loop
      vertex  3.390000e+001  3.490000e+001  0.000000e+000
      vertex  3.400000e+001  3.660000e+001  0.000000e+000
      vertex  3.445148e+001  3.656050e+001  0.000000e+000
    endloop
  endfacet
  facet normal  0.000000e+000  -0.000000e+000 -1.000000e+000
    outer loop
      vertex  3.390000e+001  3.490000e+001  0.000000e+000
      vertex  3.445148e+001  3.656050e+001  0.000000e+000
      vertex  3.488925e+001  3.644320e+001  0.000000e+000
    endloop
  endfacet
  facet normal  0.000000e+000  -0.000000e+000 -1.000000e+000
    outer loop
      vertex  3.390000e+001  3.490000e+001  0.000000e+000
      vertex  3.488925e+001  3.644320e+001  0.000000e+000
      vertex  3.530000e+001  3.625167e+001  0.000000e+000
    endloop
  endfacet
  facet normal  0.000000e+000  -0.000000e+000 -1.000000e+000
    outer loop
      vertex  3.390000e+001  3.490000e+001  0.000000e+000
      vertex  3.530000e+001  3.625167e+001  0.000000e+000
      vertex  3.567125e+001  3.599171e+001  0.000000e+000
    endloop
  endfacet
  facet normal  0.000000e+000  -0.000000e+000 -9.999999e-001
    outer loop
      vertex  3.390000e+001  3.490000e+001  0.000000e+000
      vertex  3.567125e+001  3.599171e+001  0.000000e+000
      vertex  3.599171e+001  3.567125e+001  0.000000e+000
    endloop
  endfacet
  facet normal  0.000000e+000  -0.000000e+000 -9.999999e-001
    outer loop
      vertex  3.390000e+001  3.490000e+001  0.000000e+000
      vertex  3.599171e+001  3.567125e+001  0.000000e+000
      vertex  3.625167e+001  3.530000e+001  0.000000e+000
    endloop
  endfacet
  facet normal  0.000000e+000  -0.000000e+000 -1.000000e+000
    outer loop
      vertex  3.390000e+001  3.490000e+001  0.000000e+000
      vertex  3.625167e+001  3.530000e+001  0.000000e+000
      vertex  3.644320e+001  3.488925e+001  0.000000e+000
    endloop
  endfacet
  facet normal  -0.000000e+000  0.000000e+000 -1.000000e+000
    outer loop
      vertex  3.390000e+001  3.490000e+001  0.000000e+000
      vertex  3.644320e+001  3.488925e+001  0.000000e+000
      vertex  3.415882e+001  3.486592e+001  0.000000e+000
    endloop
  endfacet
  facet normal  0.000000e+000  0.000000e+000 -1.000000e+000
    outer loop
      vertex -3.390000e+001  3.490000e+001  0.000000e+000
      vertex -3.415882e+001  3.486592e+001  0.000000e+000
      vertex -3.644320e+001  3.488925e+001  0.000000e+000
    endloop
  endfacet
  facet normal  0.000000e+000  0.000000e+000 -1.000000e+000
    outer loop
      vertex -3.390000e+001  3.490000e+001  0.000000e+000
      vertex -3.644320e+001  3.488925e+001  0.000000e+000
      vertex -3.625167e+001  3.530000e+001  0.000000e+000
    endloop
  endfacet
  facet normal  0.000000e+000  0.000000e+000 -1.000000e+000
    outer loop
      vertex -3.390000e+001  3.490000e+001  0.000000e+000
      vertex -3.625167e+001  3.530000e+001  0.000000e+000
      vertex -3.400000e+001  3.660000e+001  0.000000e+000
    endloop
  endfacet
  facet normal  -0.000000e+000  -0.000000e+000 -1.000000e+000
    outer loop
      vertex -3.390000e+001 -3.490000e+001  0.000000e+000
      vertex  3.390000e+001 -3.490000e+001  0.000000e+000
      vertex  3.400000e+001 -3.660000e+001  0.000000e+000
    endloop
  endfacet
  facet normal  0.000000e+000  0.000000e+000 -1.000000e+000
    outer loop
      vertex -3.390000e+001 -3.490000e+001  0.000000e+000
      vertex  3.400000e+001 -3.660000e+001  0.000000e+000
      vertex -3.400000e+001 -3.660000e+001  0.000000e+000
    endloop
  endfacet
  facet normal  0.000000e+000  0.000000e+000 -1.000000e+000
    outer loop
      vertex -3.390000e+001 -3.490000e+001  0.000000e+000
      vertex -3.400000e+001 -3.660000e+001  0.000000e+000
      vertex -3.625167e+001 -3.530000e+001  0.000000e+000
    endloop
  endfacet
  facet normal  0.000000e+000  0.000000e+000 -1.000000e+000
    outer loop
      vertex -3.390000e+001 -3.490000e+001  0.000000e+000
      vertex -3.625167e+001 -3.530000e+001  0.000000e+000
      vertex -3.644320e+001 -3.488925e+001  0.000000e+000
    endloop
  endfacet
  facet normal  0.000000e+000  0.000000e+000 -1.000000e+000
    outer loop
      vertex -3.390000e+001 -3.490000e+001  0.000000e+000
      vertex -3.644320e+001 -3.488925e+001  0.000000e+000
      vertex -3.415882e+001 -3.486592e+001  0.000000e+000
    endloop
  endfacet
  facet normal  0.000000e+000  -0.000000e+000 -1.000000e+000
    outer loop
      vertex  3.390000e+001 -3.490000e+001  0.000000e+000
      vertex  3.415882e+001 -3.486592e+001  0.000000e+000
      vertex  3.644320e+001 -3.488925e+001  0.000000e+000
    endloop
  endfacet
  facet normal  0.000000e+000  0.000000e+000 -1.000000e+000
    outer loop
      vertex  3.390000e+001 -3.490000e+001  0.000000e+000
      vertex  3.644320e+001 -3.488925e+001  0.000000e+000
      vertex  3.625167e+001 -3.530000e+001  0.000000e+000
    endloop
  endfacet
  facet normal  -0.000000e+000  0.000000e+000 -9.999999e-001
    outer loop
      vertex  3.390000e+001 -3.490000e+001  0.000000e+000
      vertex  3.625167e+001 -3.530000e+001  0.000000e+000
      vertex  3.599171e+001 -3.567125e+001  0.000000e+000
    endloop
  endfacet
  facet normal  -0.000000e+000  0.000000e+000 -1.000000e+000
    outer loop
      vertex  3.390000e+001 -3.490000e+001  0.000000e+000
      vertex  3.599171e+001 -3.567125e+001  0.000000e+000
      vertex  3.567125e+001 -3.599171e+001  0.000000e+000
    endloop
  endfacet
  facet normal  -0.000000e+000  0.000000e+000 -1.000000e+000
    outer loop
      vertex  3.390000e+001 -3.490000e+001  0.000000e+000
      vertex  3.567125e+001 -3.599171e+001  0.000000e+000
      vertex  3.530000e+001 -3.625167e+001  0.000000e+000
    endloop
  endfacet
  facet normal  -0.000000e+000  0.000000e+000 -1.000000e+000
    outer loop
      vertex  3.390000e+001 -3.490000e+001  0.000000e+000
      vertex  3.530000e+001 -3.625167e+001  0.000000e+000
      vertex  3.488925e+001 -3.644320e+001  0.000000e+000
    endloop
  endfacet
  facet normal  -0.000000e+000  0.000000e+000 -1.000000e+000
    outer loop
      vertex  3.390000e+001 -3.490000e+001  0.000000e+000
      vertex  3.488925e+001 -3.644320e+001  0.000000e+000
      vertex  3.445148e+001 -3.656050e+001  0.000000e+000
    endloop
  endfacet
  facet normal  -0.000000e+000  0.000000e+000 -9.999999e-001
    outer loop
      vertex  3.390000e+001 -3.490000e+001  0.000000e+000
      vertex  3.445148e+001 -3.656050e+001  0.000000e+000
      vertex  3.400000e+001 -3.660000e+001  0.000000e+000
    endloop
  endfacet
  facet normal  0.000000e+000  0.000000e+000 -1.000000e+000
    outer loop
      vertex -3.625167e+001 -3.530000e+001  0.000000e+000
      vertex -3.400000e+001 -3.660000e+001  0.000000e+000
      vertex -3.445148e+001 -3.656050e+001  0.000000e+000
    endloop
  endfacet
  facet normal  0.000000e+000  0.000000e+000 -1.000000e+000
    outer loop
      vertex -3.625167e+001 -3.530000e+001  0.000000e+000
      vertex -3.445148e+001 -3.656050e+001  0.000000e+000
      vertex -3.488925e+001 -3.644320e+001  0.000000e+000
    endloop
  endfacet
  facet normal  0.000000e+000  0.000000e+000 -9.999999e-001
    outer loop
      vertex -3.625167e+001 -3.530000e+001  0.000000e+000
      vertex -3.488925e+001 -3.644320e+001  0.000000e+000
      vertex -3.530000e+001 -3.625167e+001  0.000000e+000
    endloop
  endfacet
  facet normal  0.000000e+000  0.000000e+000 -1.000000e+000
    outer loop
      vertex -3.625167e+001 -3.530000e+001  0.000000e+000
      vertex -3.530000e+001 -3.625167e+001  0.000000e+000
      vertex -3.567125e+001 -3.599171e+001  0.000000e+000
    endloop
  endfacet
  facet normal  0.000000e+000  0.000000e+000 -1.000000e+000
    outer loop
      vertex -3.625167e+001 -3.530000e+001  0.000000e+000
      vertex -3.567125e+001 -3.599171e+001  0.000000e+000
      vertex -3.599171e+001 -3.567125e+001  0.000000e+000
    endloop
  endfacet
  facet normal  0.000000e+000  -0.000000e+000 -1.000000e+000
    outer loop
      vertex -3.625167e+001  3.530000e+001  0.000000e+000
      vertex -3.599171e+001  3.567125e+001  0.000000e+000
      vertex -3.567125e+001  3.599171e+001  0.000000e+000
    endloop
  endfacet
  facet normal  0.000000e+000  -0.000000e+000 -1.000000e+000
    outer loop
      vertex -3.625167e+001  3.530000e+001  0.000000e+000
      vertex -3.567125e+001  3.599171e+001  0.000000e+000
      vertex -3.530000e+001  3.625167e+001  0.000000e+000
    endloop
  endfacet
  facet normal  0.000000e+000  -0.000000e+000 -1.000000e+000
    outer loop
      vertex -3.625167e+001  3.530000e+001  0.000000e+000
      vertex -3.530000e+001  3.625167e+001  0.000000e+000
      vertex -3.488925e+001  3.644320e+001  0.000000e+000
    endloop
  endfacet
  facet normal  0.000000e+000  -0.000000e+000 -1.000000e+000
    outer loop
      vertex -3.625167e+001  3.530000e+001  0.000000e+000
      vertex -3.488925e+001  3.644320e+001  0.000000e+000
      vertex -3.445148e+001  3.656050e+001  0.000000e+000
    endloop
  endfacet
  facet normal  0.000000e+000  -0.000000e+000 -1.000000e+000
    outer loop
      vertex -3.625167e+001  3.530000e+001  0.000000e+000
      vertex -3.445148e+001  3.656050e+001  0.000000e+000
      vertex -3.400000e+001  3.660000e+001  0.000000e+000
    endloop
  endfacet
  facet normal  0.000000e+000  0.000000e+000 -1.000000e+000
    outer loop
      vertex -3.460711e+001  3.460711e+001  0.000000e+000
      vertex -3.656050e+001  3.445148e+001  0.000000e+000
      vertex -3.440000e+001  3.476603e+001  0.000000e+000
    endloop
  endfacet
  facet normal  -0.000000e+000  0.000000e+000 -1.000000e+000
    outer loop
      vertex -3.440000e+001  3.476603e+001  0.000000e+000
      vertex -3.656050e+001  3.445148e+001  0.000000e+000
      vertex -3.644320e+001  3.488925e+001  0.000000e+000
    endloop
  endfacet
  facet normal  0.000000e+000  0.000000e+000 -1.000000e+000
    outer loop
      vertex -3.440000e+001  3.476603e+001  0.000000e+000
      vertex -3.644320e+001  3.488925e+001  0.000000e+000
      vertex -3.415882e+001  3.486592e+001  0.000000e+000
    endloop
  endfacet
  facet normal  0.000000e+000  0.000000e+000 -1.000000e+000
    outer loop
      vertex -3.460711e+001  3.460711e+001  0.000000e+000
      vertex -3.476603e+001  3.440000e+001  0.000000e+000
      vertex -3.656050e+001  3.445148e+001  0.000000e+000
    endloop
  endfacet
  facet normal  0.000000e+000  0.000000e+000 -1.000000e+000
    outer loop
      vertex -3.656050e+001  3.445148e+001  0.000000e+000
      vertex -3.476603e+001  3.440000e+001  0.000000e+000
      vertex -3.486592e+001  3.415882e+001  0.000000e+000
    endloop
  endfacet
  facet normal  -0.000000e+000  0.000000e+000 -1.000000e+000
    outer loop
      vertex -3.656050e+001  3.445148e+001  0.000000e+000
      vertex -3.486592e+001  3.415882e+001  0.000000e+000
      vertex -3.660000e+001  3.400000e+001  0.000000e+000
    endloop
  endfacet
  facet normal  0.000000e+000  0.000000e+000 -1.000000e+000
    outer loop
      vertex -3.476603e+001 -3.440000e+001  0.000000e+000
      vertex -3.656050e+001 -3.445148e+001  0.000000e+000
      vertex -3.486592e+001 -3.415882e+001  0.000000e+000
    endloop
  endfacet
  facet normal  -0.000000e+000  0.000000e+000 -1.000000e+000
    outer loop
      vertex -3.486592e+001 -3.415882e+001  0.000000e+000
      vertex -3.656050e+001 -3.445148e+001  0.000000e+000
      vertex -3.660000e+001 -3.400000e+001  0.000000e+000
    endloop
  endfacet
  facet normal  0.000000e+000  0.000000e+000 -1.000000e+000
    outer loop
      vertex -3.486592e+001 -3.415882e+001  0.000000e+000
      vertex -3.660000e+001 -3.400000e+001  0.000000e+000
      vertex -3.490000e+001 -3.390000e+001  0.000000e+000
    endloop
  endfacet
  facet normal  -0.000000e+000  0.000000e+000 -1.000000e+000
    outer loop
      vertex -3.490000e+001 -3.390000e+001  0.000000e+000
      vertex -3.660000e+001 -3.400000e+001  0.000000e+000
      vertex -3.660000e+001  3.400000e+001  0.000000e+000
    endloop
  endfacet
  facet normal  0.000000e+000  0.000000e+000 -1.000000e+000
    outer loop
      vertex -3.490000e+001 -3.390000e+001  0.000000e+000
      vertex -3.660000e+001  3.400000e+001  0.000000e+000
      vertex -3.490000e+001  3.390000e+001  0.000000e+000
    endloop
  endfacet
  facet normal  0.000000e+000  0.000000e+000 -1.000000e+000
    outer loop
      vertex -3.440000e+001 -3.476603e+001  0.000000e+000
      vertex -3.644320e+001 -3.488925e+001  0.000000e+000
      vertex -3.460711e+001 -3.460711e+001  0.000000e+000
    endloop
  endfacet
  facet normal  -0.000000e+000  0.000000e+000 -9.999999e-001
    outer loop
      vertex -3.460711e+001 -3.460711e+001  0.000000e+000
      vertex -3.644320e+001 -3.488925e+001  0.000000e+000
      vertex -3.656050e+001 -3.445148e+001  0.000000e+000
    endloop
  endfacet
  facet normal  0.000000e+000  0.000000e+000 -1.000000e+000
    outer loop
      vertex -3.460711e+001 -3.460711e+001  0.000000e+000
      vertex -3.656050e+001 -3.445148e+001  0.000000e+000
      vertex -3.476603e+001 -3.440000e+001  0.000000e+000
    endloop
  endfacet
  facet normal  0.000000e+000  0.000000e+000 -1.000000e+000
    outer loop
      vertex  3.460711e+001  3.460711e+001  0.000000e+000
      vertex  3.440000e+001  3.476603e+001  0.000000e+000
      vertex  3.656050e+001  3.445148e+001  0.000000e+000
    endloop
  endfacet
  facet normal  0.000000e+000  0.000000e+000 -1.000000e+000
    outer loop
      vertex  3.656050e+001  3.445148e+001  0.000000e+000
      vertex  3.440000e+001  3.476603e+001  0.000000e+000
      vertex  3.415882e+001  3.486592e+001  0.000000e+000
    endloop
  endfacet
  facet normal  0.000000e+000  0.000000e+000 -1.000000e+000
    outer loop
      vertex  3.656050e+001  3.445148e+001  0.000000e+000
      vertex  3.415882e+001  3.486592e+001  0.000000e+000
      vertex  3.644320e+001  3.488925e+001  0.000000e+000
    endloop
  endfacet
  facet normal  -0.000000e+000  0.000000e+000 -1.000000e+000
    outer loop
      vertex  3.460711e+001  3.460711e+001  0.000000e+000
      vertex  3.656050e+001  3.445148e+001  0.000000e+000
      vertex  3.476603e+001  3.440000e+001  0.000000e+000
    endloop
  endfacet
  facet normal  0.000000e+000  0.000000e+000 -9.999999e-001
    outer loop
      vertex  3.476603e+001  3.440000e+001  0.000000e+000
      vertex  3.656050e+001  3.445148e+001  0.000000e+000
      vertex  3.660000e+001  3.400000e+001  0.000000e+000
    endloop
  endfacet
  facet normal  0.000000e+000  0.000000e+000 -1.000000e+000
    outer loop
      vertex  3.476603e+001  3.440000e+001  0.000000e+000
      vertex  3.660000e+001  3.400000e+001  0.000000e+000
      vertex  3.486592e+001  3.415882e+001  0.000000e+000
    endloop
  endfacet
  facet normal  0.000000e+000  -0.000000e+000 -1.000000e+000
    outer loop
      vertex  3.476603e+001 -3.440000e+001  0.000000e+000
      vertex  3.486592e+001 -3.415882e+001  0.000000e+000
      vertex  3.656050e+001 -3.445148e+001  0.000000e+000
    endloop
  endfacet
  facet normal  0.000000e+000  0.000000e+000 -1.000000e+000
    outer loop
      vertex  3.656050e+001 -3.445148e+001  0.000000e+000
      vertex  3.486592e+001 -3.415882e+001  0.000000e+000
      vertex  3.490000e+001 -3.390000e+001  0.000000e+000
    endloop
  endfacet
  facet normal  0.000000e+000  0.000000e+000 -1.000000e+000
    outer loop
      vertex  3.656050e+001 -3.445148e+001  0.000000e+000
      vertex  3.490000e+001 -3.390000e+001  0.000000e+000
      vertex  3.660000e+001 -3.400000e+001  0.000000e+000
    endloop
  endfacet
  facet normal  0.000000e+000  0.000000e+000 -1.000000e+000
    outer loop
      vertex  3.660000e+001 -3.400000e+001  0.000000e+000
      vertex  3.490000e+001 -3.390000e+001  0.000000e+000
      vertex  3.490000e+001  3.390000e+001  0.000000e+000
    endloop
  endfacet
  facet normal  0.000000e+000  0.000000e+000 -1.000000e+000
    outer loop
      vertex  3.660000e+001 -3.400000e+001  0.000000e+000
      vertex  3.490000e+001  3.390000e+001  0.000000e+000
      vertex  3.660000e+001  3.400000e+001  0.000000e+000
    endloop
  endfacet
  facet normal  0.000000e+000  -0.000000e+000 -1.000000e+000
    outer loop
      vertex  3.440000e+001 -3.476603e+001  0.000000e+000
      vertex  3.460711e+001 -3.460711e+001  0.000000e+000
      vertex  3.644320e+001 -3.488925e+001  0.000000e+000
    endloop
  endfacet
  facet normal  0.000000e+000  0.000000e+000 -9.999999e-001
    outer loop
      vertex  3.644320e+001 -3.488925e+001  0.000000e+000
      vertex  3.460711e+001 -3.460711e+001  0.000000e+000
      vertex  3.476603e+001 -3.440000e+001  0.000000e+000
    endloop
  endfacet
  facet normal  0.000000e+000  0.000000e+000 -9.999999e-001
    outer loop
      vertex  3.644320e+001 -3.488925e+001  0.000000e+000
      vertex  3.476603e+001 -3.440000e+001  0.000000e+000
      vertex  3.656050e+001 -3.445148e+001  0.000000e+000
    endloop
  endfacet
  facet normal  0.000000e+000  0.000000e+000 -1.000000e+000
    outer loop
      vertex  3.490000e+001  3.390000e+001 -8.000000e-001
      vertex -3.486592e+001  3.415882e+001 -8.000000e-001
      vertex  3.486592e+001  3.415882e+001 -8.000000e-001
    endloop
  endfacet
  facet normal  0.000000e+000  0.000000e+000 -1.000000e+000
    outer loop
      vertex  3.486592e+001  3.415882e+001 -8.000000e-001
      vertex -3.486592e+001  3.415882e+001 -8.000000e-001
      vertex -3.476603e+001  3.440000e+001 -8.000000e-001
    endloop
  endfacet
  facet normal  0.000000e+000  0.000000e+000 -1.000000e+000
    outer loop
      vertex  3.486592e+001  3.415882e+001 -8.000000e-001
      vertex -3.476603e+001  3.440000e+001 -8.000000e-001
      vertex  3.476603e+001  3.440000e+001 -8.000000e-001
    endloop
  endfacet
  facet normal  0.000000e+000  0.000000e+000 -1.000000e+000
    outer loop
      vertex  3.476603e+001  3.440000e+001 -8.000000e-001
      vertex -3.476603e+001  3.440000e+001 -8.000000e-001
      vertex -3.460711e+001  3.460711e+001 -8.000000e-001
    endloop
  endfacet
  facet normal  0.000000e+000  0.000000e+000 -9.999999e-001
    outer loop
      vertex  3.476603e+001  3.440000e+001 -8.000000e-001
      vertex -3.460711e+001  3.460711e+001 -8.000000e-001
      vertex  3.460711e+001  3.460711e+001 -8.000000e-001
    endloop
  endfacet
  facet normal  0.000000e+000  0.000000e+000 -9.999999e-001
    outer loop
      vertex  3.460711e+001  3.460711e+001 -8.000000e-001
      vertex -3.460711e+001  3.460711e+001 -8.000000e-001
      vertex -3.440000e+001  3.476603e+001 -8.000000e-001
    endloop
  endfacet
  facet normal  0.000000e+000  0.000000e+000 -1.000000e+000
    outer loop
      vertex  3.460711e+001  3.460711e+001 -8.000000e-001
      vertex -3.440000e+001  3.476603e+001 -8.000000e-001
      vertex  3.440000e+001  3.476603e+001 -8.000000e-001
    endloop
  endfacet
  facet normal  0.000000e+000  0.000000e+000 -1.000000e+000
    outer loop
      vertex  3.440000e+001  3.476603e+001 -8.000000e-001
      vertex -3.440000e+001  3.476603e+001 -8.000000e-001
      vertex -3.415882e+001  3.486592e+001 -8.000000e-001
    endloop
  endfacet
  facet normal  0.000000e+000  0.000000e+000 -9.999999e-001
    outer loop
      vertex  3.440000e+001  3.476603e+001 -8.000000e-001
      vertex -3.415882e+001  3.486592e+001 -8.000000e-001
      vertex  3.415882e+001  3.486592e+001 -8.000000e-001
    endloop
  endfacet
  facet normal  0.000000e+000  0.000000e+000 -1.000000e+000
    outer loop
      vertex  3.415882e+001  3.486592e+001 -8.000000e-001
      vertex -3.415882e+001  3.486592e+001 -8.000000e-001
      vertex -3.390000e+001  3.490000e+001 -8.000000e-001
    endloop
  endfacet
  facet normal  0.000000e+000  0.000000e+000 -1.000000e+000
    outer loop
      vertex  3.415882e+001  3.486592e+001 -8.000000e-001
      vertex -3.390000e+001  3.490000e+001 -8.000000e-001
      vertex  3.390000e+001  3.490000e+001 -8.000000e-001
    endloop
  endfacet
  facet normal  0.000000e+000  0.000000e+000 -1.000000e+000
    outer loop
      vertex -3.486592e+001  3.415882e+001 -8.000000e-001
      vertex  3.490000e+001  3.390000e+001 -8.000000e-001
      vertex -3.490000e+001  3.390000e+001 -8.000000e-001
    endloop
  endfacet
  facet normal  0.000000e+000  0.000000e+000 -1.000000e+000
    outer loop
      vertex -3.490000e+001  3.390000e+001 -8.000000e-001
      vertex  3.490000e+001  3.390000e+001 -8.000000e-001
      vertex  3.490000e+001 -3.390000e+001 -8.000000e-001
    endloop
  endfacet
  facet normal  0.000000e+000  0.000000e+000 -1.000000e+000
    outer loop
      vertex -3.490000e+001  3.390000e+001 -8.000000e-001
      vertex  3.490000e+001 -3.390000e+001 -8.000000e-001
      vertex -3.490000e+001 -3.390000e+001 -8.000000e-001
    endloop
  endfacet
  facet normal  0.000000e+000  0.000000e+000 -1.000000e+000
    outer loop
      vertex -3.490000e+001 -3.390000e+001 -8.000000e-001
      vertex  3.490000e+001 -3.390000e+001 -8.000000e-001
      vertex  3.486592e+001 -3.415882e+001 -8.000000e-001
    endloop
  endfacet
  facet normal  0.000000e+000  0.000000e+000 -1.000000e+000
    outer loop
      vertex -3.490000e+001 -3.390000e+001 -8.000000e-001
      vertex  3.486592e+001 -3.415882e+001 -8.000000e-001
      vertex -3.486592e+001 -3.415882e+001 -8.000000e-001
    endloop
  endfacet
  facet normal  0.000000e+000  0.000000e+000 -1.000000e+000
    outer loop
      vertex -3.486592e+001 -3.415882e+001 -8.000000e-001
      vertex  3.486592e+001 -3.415882e+001 -8.000000e-001
      vertex  3.476603e+001 -3.440000e+001 -8.000000e-001
    endloop
  endfacet
  facet normal  0.000000e+000  0.000000e+000 -1.000000e+000
    outer loop
      vertex -3.486592e+001 -3.415882e+001 -8.000000e-001
      vertex  3.476603e+001 -3.440000e+001 -8.000000e-001
      vertex -3.476603e+001 -3.440000e+001 -8.000000e-001
    endloop
  endfacet
  facet normal  0.000000e+000  0.000000e+000 -1.000000e+000
    outer loop
      vertex -3.476603e+001 -3.440000e+001 -8.000000e-001
      vertex  3.476603e+001 -3.440000e+001 -8.000000e-001
      vertex  3.460711e+001 -3.460711e+001 -8.000000e-001
    endloop
  endfacet
  facet normal  0.000000e+000  0.000000e+000 -9.999999e-001
    outer loop
      vertex -3.476603e+001 -3.440000e+001 -8.000000e-001
      vertex  3.460711e+001 -3.460711e+001 -8.000000e-001
      vertex -3.460711e+001 -3.460711e+001 -8.000000e-001
    endloop
  endfacet
  facet normal  0.000000e+000  0.000000e+000 -9.999999e-001
    outer loop
      vertex -3.460711e+001 -3.460711e+001 -8.000000e-001
      vertex  3.460711e+001 -3.460711e+001 -8.000000e-001
      vertex  3.440000e+001 -3.476603e+001 -8.000000e-001
    endloop
  endfacet
  facet normal  0.000000e+000  0.000000e+000 -1.000000e+000
    outer loop
      vertex -3.460711e+001 -3.460711e+001 -8.000000e-001
      vertex  3.440000e+001 -3.476603e+001 -8.000000e-001
      vertex -3.440000e+001 -3.476603e+001 -8.000000e-001
    endloop
  endfacet
  facet normal  0.000000e+000  0.000000e+000 -1.000000e+000
    outer loop
      vertex -3.440000e+001 -3.476603e+001 -8.000000e-001
      vertex  3.440000e+001 -3.476603e+001 -8.000000e-001
      vertex  3.415882e+001 -3.486592e+001 -8.000000e-001
    endloop
  endfacet
  facet normal  0.000000e+000  0.000000e+000 -9.999999e-001
    outer loop
      vertex -3.440000e+001 -3.476603e+001 -8.000000e-001
      vertex  3.415882e+001 -3.486592e+001 -8.000000e-001
      vertex -3.415882e+001 -3.486592e+001 -8.000000e-001
    endloop
  endfacet
  facet normal  0.000000e+000  0.000000e+000 -1.000000e+000
    outer loop
      vertex -3.415882e+001 -3.486592e+001 -8.000000e-001
      vertex  3.415882e+001 -3.486592e+001 -8.000000e-001
      vertex  3.390000e+001 -3.490000e+001 -8.000000e-001
    endloop
  endfacet
  facet normal  0.000000e+000  0.000000e+000 -1.000000e+000
    outer loop
      vertex -3.415882e+001 -3.486592e+001 -8.000000e-001
      vertex  3.390000e+001 -3.490000e+001 -8.000000e-001
      vertex -3.390000e+001 -3.490000e+001 -8.000000e-001
    endloop
  endfacet
  facet normal  0.000000e+000  1.000000e+000  0.000000e+000
    outer loop
      vertex -3.390000e+001  3.490000e+001 -8.000000e-001
      vertex -3.390000e+001  3.490000e+001  0.000000e+000
      vertex  3.390000e+001  3.490000e+001 -8.000000e-001
    endloop
  endfacet
  facet normal  0.000000e+000  1.000000e+000  -0.000000e+000
    outer loop
      vertex  3.390000e+001  3.490000e+001 -8.000000e-001
      vertex -3.390000e+001  3.490000e+001  0.000000e+000
      vertex  3.390000e+001  3.490000e+001  0.000000e+000
    endloop
  endfacet
  facet normal  1.000000e+000  0.000000e+000  0.000000e+000
    outer loop
      vertex  3.490000e+001  3.390000e+001 -8.000000e-001
      vertex  3.490000e+001  3.390000e+001  0.000000e+000
      vertex  3.490000e+001 -3.390000e+001 -8.000000e-001
    endloop
  endfacet
  facet normal  1.000000e+000  0.000000e+000  0.000000e+000
    outer loop
      vertex  3.490000e+001 -3.390000e+001 -8.000000e-001
      vertex  3.490000e+001  3.390000e+001  0.000000e+000
      vertex  3.490000e+001 -3.390000e+001  0.000000e+000
    endloop
  endfacet
  facet normal  9.914435e-001  1.305373e-001  -0.000000e+000
    outer loop
      vertex  3.490000e+001  3.390000e+001  0.000000e+000
      vertex  3.490000e+001  3.390000e+001 -8.000000e-001
      vertex  3.486592e+001  3.415882e+001  0.000000e+000
    endloop
  endfacet
  facet normal  9.914435e-001  1.305373e-001  0.000000e+000
    outer loop
      vertex  3.486592e+001  3.415882e+001  0.000000e+000
      vertex  3.490000e+001  3.390000e+001 -8.000000e-001
      vertex  3.486592e+001  3.415882e+001 -8.000000e-001
    endloop
  endfacet
  facet normal  9.238829e-001  3.826753e-001  -0.000000e+000
    outer loop
      vertex  3.486592e+001  3.415882e+001  0.000000e+000
      vertex  3.486592e+001  3.415882e+001 -8.000000e-001
      vertex  3.476603e+001  3.440000e+001  0.000000e+000
    endloop
  endfacet
  facet normal  9.238829e-001  3.826753e-001  0.000000e+000
    outer loop
      vertex  3.476603e+001  3.440000e+001  0.000000e+000
      vertex  3.486592e+001  3.415882e+001 -8.000000e-001
      vertex  3.476603e+001  3.440000e+001 -8.000000e-001
    endloop
  endfacet
  facet normal  7.933459e-001  6.087711e-001  -0.000000e+000
    outer loop
      vertex  3.476603e+001  3.440000e+001  0.000000e+000
      vertex  3.476603e+001  3.440000e+001 -8.000000e-001
      vertex  3.460711e+001  3.460711e+001  0.000000e+000
    endloop
  endfacet
  facet normal  7.933459e-001  6.087711e-001  0.000000e+000
    outer loop
      vertex  3.460711e+001  3.460711e+001  0.000000e+000
      vertex  3.476603e+001  3.440000e+001 -8.000000e-001
      vertex  3.460711e+001  3.460711e+001 -8.000000e-001
    endloop
  endfacet
  facet normal  6.087711e-001  7.933459e-001  -0.000000e+000
    outer loop
      vertex  3.460711e+001  3.460711e+001  0.000000e+000
      vertex  3.460711e+001  3.460711e+001 -8.000000e-001
      vertex  3.440000e+001  3.476603e+001  0.000000e+000
    endloop
  endfacet
  facet normal  6.087711e-001  7.933459e-001  0.000000e+000
    outer loop
      vertex  3.440000e+001  3.476603e+001  0.000000e+000
      vertex  3.460711e+001  3.460711e+001 -8.000000e-001
      vertex  3.440000e+001  3.476603e+001 -8.000000e-001
    endloop
  endfacet
  facet normal  3.826753e-001  9.238829e-001  -0.000000e+000
    outer loop
      vertex  3.440000e+001  3.476603e+001  0.000000e+000
      vertex  3.440000e+001  3.476603e+001 -8.000000e-001
      vertex  3.415882e+001  3.486592e+001  0.000000e+000
    endloop
  endfacet
  facet normal  3.826753e-001  9.238829e-001  0.000000e+000
    outer loop
      vertex  3.415882e+001  3.486592e+001  0.000000e+000
      vertex  3.440000e+001  3.476603e+001 -8.000000e-001
      vertex  3.415882e+001  3.486592e+001 -8.000000e-001
    endloop
  endfacet
  facet normal  1.305373e-001  9.914435e-001  -0.000000e+000
    outer loop
      vertex  3.415882e+001  3.486592e+001  0.000000e+000
      vertex  3.415882e+001  3.486592e+001 -8.000000e-001
      vertex  3.390000e+001  3.490000e+001  0.000000e+000
    endloop
  endfacet
  facet normal  1.305373e-001  9.914435e-001  0.000000e+000
    outer loop
      vertex  3.390000e+001  3.490000e+001  0.000000e+000
      vertex  3.415882e+001  3.486592e+001 -8.000000e-001
      vertex  3.390000e+001  3.490000e+001 -8.000000e-001
    endloop
  endfacet
  facet normal -1.000000e+000  0.000000e+000  0.000000e+000
    outer loop
      vertex -3.490000e+001 -3.390000e+001 -8.000000e-001
      vertex -3.490000e+001 -3.390000e+001  0.000000e+000
      vertex -3.490000e+001  3.390000e+001 -8.000000e-001
    endloop
  endfacet
  facet normal -1.000000e+000  0.000000e+000  0.000000e+000
    outer loop
      vertex -3.490000e+001  3.390000e+001 -8.000000e-001
      vertex -3.490000e+001 -3.390000e+001  0.000000e+000
      vertex -3.490000e+001  3.390000e+001  0.000000e+000
    endloop
  endfacet
  facet normal -1.305373e-001  9.914435e-001  0.000000e+000
    outer loop
      vertex -3.390000e+001  3.490000e+001  0.000000e+000
      vertex -3.390000e+001  3.490000e+001 -8.000000e-001
      vertex -3.415882e+001  3.486592e+001  0.000000e+000
    endloop
  endfacet
  facet normal -1.305373e-001  9.914435e-001  0.000000e+000
    outer loop
      vertex -3.415882e+001  3.486592e+001  0.000000e+000
      vertex -3.390000e+001  3.490000e+001 -8.000000e-001
      vertex -3.415882e+001  3.486592e+001 -8.000000e-001
    endloop
  endfacet
  facet normal -3.826753e-001  9.238829e-001  0.000000e+000
    outer loop
      vertex -3.415882e+001  3.486592e+001  0.000000e+000
      vertex -3.415882e+001  3.486592e+001 -8.000000e-001
      vertex -3.440000e+001  3.476603e+001  0.000000e+000
    endloop
  endfacet
  facet normal -3.826753e-001  9.238829e-001  0.000000e+000
    outer loop
      vertex -3.440000e+001  3.476603e+001  0.000000e+000
      vertex -3.415882e+001  3.486592e+001 -8.000000e-001
      vertex -3.440000e+001  3.476603e+001 -8.000000e-001
    endloop
  endfacet
  facet normal -6.087711e-001  7.933459e-001  0.000000e+000
    outer loop
      vertex -3.440000e+001  3.476603e+001  0.000000e+000
      vertex -3.440000e+001  3.476603e+001 -8.000000e-001
      vertex -3.460711e+001  3.460711e+001  0.000000e+000
    endloop
  endfacet
  facet normal -6.087711e-001  7.933459e-001  0.000000e+000
    outer loop
      vertex -3.460711e+001  3.460711e+001  0.000000e+000
      vertex -3.440000e+001  3.476603e+001 -8.000000e-001
      vertex -3.460711e+001  3.460711e+001 -8.000000e-001
    endloop
  endfacet
  facet normal -7.933459e-001  6.087711e-001  0.000000e+000
    outer loop
      vertex -3.460711e+001  3.460711e+001  0.000000e+000
      vertex -3.460711e+001  3.460711e+001 -8.000000e-001
      vertex -3.476603e+001  3.440000e+001  0.000000e+000
    endloop
  endfacet
  facet normal -7.933459e-001  6.087711e-001  0.000000e+000
    outer loop
      vertex -3.476603e+001  3.440000e+001  0.000000e+000
      vertex -3.460711e+001  3.460711e+001 -8.000000e-001
      vertex -3.476603e+001  3.440000e+001 -8.000000e-001
    endloop
  endfacet
  facet normal -9.238829e-001  3.826753e-001  0.000000e+000
    outer loop
      vertex -3.476603e+001  3.440000e+001  0.000000e+000
      vertex -3.476603e+001  3.440000e+001 -8.000000e-001
      vertex -3.486592e+001  3.415882e+001  0.000000e+000
    endloop
  endfacet
  facet normal -9.238829e-001  3.826753e-001  0.000000e+000
    outer loop
      vertex -3.486592e+001  3.415882e+001  0.000000e+000
      vertex -3.476603e+001  3.440000e+001 -8.000000e-001
      vertex -3.486592e+001  3.415882e+001 -8.000000e-001
    endloop
  endfacet
  facet normal -9.914435e-001  1.305373e-001  0.000000e+000
    outer loop
      vertex -3.486592e+001  3.415882e+001  0.000000e+000
      vertex -3.486592e+001  3.415882e+001 -8.000000e-001
      vertex -3.490000e+001  3.390000e+001  0.000000e+000
    endloop
  endfacet
  facet normal -9.914435e-001  1.305373e-001  0.000000e+000
    outer loop
      vertex -3.490000e+001  3.390000e+001  0.000000e+000
      vertex -3.486592e+001  3.415882e+001 -8.000000e-001
      vertex -3.490000e+001  3.390000e+001 -8.000000e-001
    endloop
  endfacet
  facet normal  0.000000e+000 -1.000000e+000  -0.000000e+000
    outer loop
      vertex  3.390000e+001 -3.490000e+001 -8.000000e-001
      vertex  3.390000e+001 -3.490000e+001  0.000000e+000
      vertex -3.390000e+001 -3.490000e+001 -8.000000e-001
    endloop
  endfacet
  facet normal  0.000000e+000 -1.000000e+000  0.000000e+000
    outer loop
      vertex -3.390000e+001 -3.490000e+001 -8.000000e-001
      vertex  3.390000e+001 -3.490000e+001  0.000000e+000
      vertex -3.390000e+001 -3.490000e+001  0.000000e+000
    endloop
  endfacet
  facet normal -9.914435e-001 -1.305373e-001  0.000000e+000
    outer loop
      vertex -3.490000e+001 -3.390000e+001  0.000000e+000
      vertex -3.490000e+001 -3.390000e+001 -8.000000e-001
      vertex -3.486592e+001 -3.415882e+001  0.000000e+000
    endloop
  endfacet
  facet normal -9.914435e-001 -1.305373e-001  -0.000000e+000
    outer loop
      vertex -3.486592e+001 -3.415882e+001  0.000000e+000
      vertex -3.490000e+001 -3.390000e+001 -8.000000e-001
      vertex -3.486592e+001 -3.415882e+001 -8.000000e-001
    endloop
  endfacet
  facet normal -9.238829e-001 -3.826753e-001  0.000000e+000
    outer loop
      vertex -3.486592e+001 -3.415882e+001  0.000000e+000
      vertex -3.486592e+001 -3.415882e+001 -8.000000e-001
      vertex -3.476603e+001 -3.440000e+001  0.000000e+000
    endloop
  endfacet
  facet normal -9.238829e-001 -3.826753e-001  -0.000000e+000
    outer loop
      vertex -3.476603e+001 -3.440000e+001  0.000000e+000
      vertex -3.486592e+001 -3.415882e+001 -8.000000e-001
      vertex -3.476603e+001 -3.440000e+001 -8.000000e-001
    endloop
  endfacet
  facet normal -7.933459e-001 -6.087711e-001  0.000000e+000
    outer loop
      vertex -3.476603e+001 -3.440000e+001  0.000000e+000
      vertex -3.476603e+001 -3.440000e+001 -8.000000e-001
      vertex -3.460711e+001 -3.460711e+001  0.000000e+000
    endloop
  endfacet
  facet normal -7.933459e-001 -6.087711e-001  -0.000000e+000
    outer loop
      vertex -3.460711e+001 -3.460711e+001  0.000000e+000
      vertex -3.476603e+001 -3.440000e+001 -8.000000e-001
      vertex -3.460711e+001 -3.460711e+001 -8.000000e-001
    endloop
  endfacet
  facet normal -6.087711e-001 -7.933459e-001  0.000000e+000
    outer loop
      vertex -3.460711e+001 -3.460711e+001  0.000000e+000
      vertex -3.460711e+001 -3.460711e+001 -8.000000e-001
      vertex -3.440000e+001 -3.476603e+001  0.000000e+000
    endloop
  endfacet
  facet normal -6.087711e-001 -7.933459e-001  -0.000000e+000
    outer loop
      vertex -3.440000e+001 -3.476603e+001  0.000000e+000
      vertex -3.460711e+001 -3.460711e+001 -8.000000e-001
      vertex -3.440000e+001 -3.476603e+001 -8.000000e-001
    endloop
  endfacet
  facet normal -3.826753e-001 -9.238829e-001  0.000000e+000
    outer loop
      vertex -3.440000e+001 -3.476603e+001  0.000000e+000
      vertex -3.440000e+001 -3.476603e+001 -8.000000e-001
      vertex -3.415882e+001 -3.486592e+001  0.000000e+000
    endloop
  endfacet
  facet normal -3.826753e-001 -9.238829e-001  -0.000000e+000
    outer loop
      vertex -3.415882e+001 -3.486592e+001  0.000000e+000
      vertex -3.440000e+001 -3.476603e+001 -8.000000e-001
      vertex -3.415882e+001 -3.486592e+001 -8.000000e-001
    endloop
  endfacet
  facet normal -1.305373e-001 -9.914435e-001  0.000000e+000
    outer loop
      vertex -3.415882e+001 -3.486592e+001  0.000000e+000
      vertex -3.415882e+001 -3.486592e+001 -8.000000e-001
      vertex -3.390000e+001 -3.490000e+001  0.000000e+000
    endloop
  endfacet
  facet normal -1.305373e-001 -9.914435e-001  -0.000000e+000
    outer loop
      vertex -3.390000e+001 -3.490000e+001  0.000000e+000
      vertex -3.415882e+001 -3.486592e+001 -8.000000e-001
      vertex -3.390000e+001 -3.490000e+001 -8.000000e-001
    endloop
  endfacet
  facet normal  1.305373e-001 -9.914435e-001  0.000000e+000
    outer loop
      vertex  3.390000e+001 -3.490000e+001  0.000000e+000
      vertex  3.390000e+001 -3.490000e+001 -8.000000e-001
      vertex  3.415882e+001 -3.486592e+001  0.000000e+000
    endloop
  endfacet
  facet normal  1.305373e-001 -9.914435e-001  0.000000e+000
    outer loop
      vertex  3.415882e+001 -3.486592e+001  0.000000e+000
      vertex  3.390000e+001 -3.490000e+001 -8.000000e-001
      vertex  3.415882e+001 -3.486592e+001 -8.000000e-001
    endloop
  endfacet
  facet normal  3.826753e-001 -9.238829e-001  0.000000e+000
    outer loop
      vertex  3.415882e+001 -3.486592e+001  0.000000e+000
      vertex  3.415882e+001 -3.486592e+001 -8.000000e-001
      vertex  3.440000e+001 -3.476603e+001  0.000000e+000
    endloop
  endfacet
  facet normal  3.826753e-001 -9.238829e-001  0.000000e+000
    outer loop
      vertex  3.440000e+001 -3.476603e+001  0.000000e+000
      vertex  3.415882e+001 -3.486592e+001 -8.000000e-001
      vertex  3.440000e+001 -3.476603e+001 -8.000000e-001
    endloop
  endfacet
  facet normal  6.087711e-001 -7.933459e-001  0.000000e+000
    outer loop
      vertex  3.440000e+001 -3.476603e+001  0.000000e+000
      vertex  3.440000e+001 -3.476603e+001 -8.000000e-001
      vertex  3.460711e+001 -3.460711e+001  0.000000e+000
    endloop
  endfacet
  facet normal  6.087711e-001 -7.933459e-001  0.000000e+000
    outer loop
      vertex  3.460711e+001 -3.460711e+001  0.000000e+000
      vertex  3.440000e+001 -3.476603e+001 -8.000000e-001
      vertex  3.460711e+001 -3.460711e+001 -8.000000e-001
    endloop
  endfacet
  facet normal  7.933459e-001 -6.087711e-001  0.000000e+000
    outer loop
      vertex  3.460711e+001 -3.460711e+001  0.000000e+000
      vertex  3.460711e+001 -3.460711e+001 -8.000000e-001
      vertex  3.476603e+001 -3.440000e+001  0.000000e+000
    endloop
  endfacet
  facet normal  7.933459e-001 -6.087711e-001  0.000000e+000
    outer loop
      vertex  3.476603e+001 -3.440000e+001  0.000000e+000
      vertex  3.460711e+001 -3.460711e+001 -8.000000e-001
      vertex  3.476603e+001 -3.440000e+001 -8.000000e-001
    endloop
  endfacet
  facet normal  9.238829e-001 -3.826753e-001  0.000000e+000
    outer loop
      vertex  3.476603e+001 -3.440000e+001  0.000000e+000
      vertex  3.476603e+001 -3.440000e+001 -8.000000e-001
      vertex  3.486592e+001 -3.415882e+001  0.000000e+000
    endloop
  endfacet
  facet normal  9.238829e-001 -3.826753e-001  0.000000e+000
    outer loop
      vertex  3.486592e+001 -3.415882e+001  0.000000e+000
      vertex  3.476603e+001 -3.440000e+001 -8.000000e-001
      vertex  3.486592e+001 -3.415882e+001 -8.000000e-001
    endloop
  endfacet
  facet normal  9.914435e-001 -1.305373e-001  0.000000e+000
    outer loop
      vertex  3.486592e+001 -3.415882e+001  0.000000e+000
      vertex  3.486592e+001 -3.415882e+001 -8.000000e-001
      vertex  3.490000e+001 -3.390000e+001  0.000000e+000
    endloop
  endfacet
  facet normal  9.914435e-001 -1.305373e-001  0.000000e+000
    outer loop
      vertex  3.490000e+001 -3.390000e+001  0.000000e+000
      vertex  3.486592e+001 -3.415882e+001 -8.000000e-001
      vertex  3.490000e+001 -3.390000e+001 -8.000000e-001
    endloop
  endfacet
endsolid CATIA STL
