solid CATIA STL
  facet normal -1.305282e-001 -9.914446e-001  -0.000000e+000
    outer loop
      vertex -2.400000e+001 -2.450000e+001  4.000000e-001
      vertex -2.400000e+001 -2.450000e+001  1.100000e+000
      vertex -2.425882e+001 -2.446593e+001  4.000000e-001
    endloop
  endfacet
  facet normal -1.305282e-001 -9.914446e-001  0.000000e+000
    outer loop
      vertex -2.425882e+001 -2.446593e+001  4.000000e-001
      vertex -2.400000e+001 -2.450000e+001  1.100000e+000
      vertex -2.425882e+001 -2.446593e+001  1.100000e+000
    endloop
  endfacet
  facet normal -3.826805e-001 -9.238808e-001  -0.000000e+000
    outer loop
      vertex -2.425882e+001 -2.446593e+001  4.000000e-001
      vertex -2.425882e+001 -2.446593e+001  1.100000e+000
      vertex -2.450000e+001 -2.436603e+001  4.000000e-001
    endloop
  endfacet
  facet normal -3.826805e-001 -9.238808e-001  0.000000e+000
    outer loop
      vertex -2.450000e+001 -2.436603e+001  4.000000e-001
      vertex -2.425882e+001 -2.446593e+001  1.100000e+000
      vertex -2.450000e+001 -2.436603e+001  1.100000e+000
    endloop
  endfacet
  facet normal -6.087594e-001 -7.933549e-001  -0.000000e+000
    outer loop
      vertex -2.450000e+001 -2.436603e+001  4.000000e-001
      vertex -2.450000e+001 -2.436603e+001  1.100000e+000
      vertex -2.470711e+001 -2.420711e+001  4.000000e-001
    endloop
  endfacet
  facet normal -6.087594e-001 -7.933549e-001  0.000000e+000
    outer loop
      vertex -2.470711e+001 -2.420711e+001  4.000000e-001
      vertex -2.450000e+001 -2.436603e+001  1.100000e+000
      vertex -2.470711e+001 -2.420711e+001  1.100000e+000
    endloop
  endfacet
  facet normal -7.933549e-001 -6.087594e-001  -0.000000e+000
    outer loop
      vertex -2.470711e+001 -2.420711e+001  4.000000e-001
      vertex -2.470711e+001 -2.420711e+001  1.100000e+000
      vertex -2.486603e+001 -2.400000e+001  4.000000e-001
    endloop
  endfacet
  facet normal -7.933549e-001 -6.087594e-001  0.000000e+000
    outer loop
      vertex -2.486603e+001 -2.400000e+001  4.000000e-001
      vertex -2.470711e+001 -2.420711e+001  1.100000e+000
      vertex -2.486603e+001 -2.400000e+001  1.100000e+000
    endloop
  endfacet
  facet normal -9.238808e-001 -3.826805e-001  -0.000000e+000
    outer loop
      vertex -2.486603e+001 -2.400000e+001  4.000000e-001
      vertex -2.486603e+001 -2.400000e+001  1.100000e+000
      vertex -2.496593e+001 -2.375882e+001  4.000000e-001
    endloop
  endfacet
  facet normal -9.238808e-001 -3.826805e-001  0.000000e+000
    outer loop
      vertex -2.496593e+001 -2.375882e+001  4.000000e-001
      vertex -2.486603e+001 -2.400000e+001  1.100000e+000
      vertex -2.496593e+001 -2.375882e+001  1.100000e+000
    endloop
  endfacet
  facet normal -9.914446e-001 -1.305282e-001  -0.000000e+000
    outer loop
      vertex -2.496593e+001 -2.375882e+001  4.000000e-001
      vertex -2.496593e+001 -2.375882e+001  1.100000e+000
      vertex -2.500000e+001 -2.350000e+001  4.000000e-001
    endloop
  endfacet
  facet normal -9.914446e-001 -1.305282e-001  0.000000e+000
    outer loop
      vertex -2.500000e+001 -2.350000e+001  4.000000e-001
      vertex -2.496593e+001 -2.375882e+001  1.100000e+000
      vertex -2.500000e+001 -2.350000e+001  1.100000e+000
    endloop
  endfacet
  facet normal  0.000000e+000 -1.000000e+000  0.000000e+000
    outer loop
      vertex  2.400000e+001 -2.450000e+001  1.100000e+000
      vertex -2.400000e+001 -2.450000e+001  1.100000e+000
      vertex  2.400000e+001 -2.450000e+001  4.000000e-001
    endloop
  endfacet
  facet normal  0.000000e+000 -1.000000e+000  0.000000e+000
    outer loop
      vertex  2.400000e+001 -2.450000e+001  4.000000e-001
      vertex -2.400000e+001 -2.450000e+001  1.100000e+000
      vertex -2.400000e+001 -2.450000e+001  4.000000e-001
    endloop
  endfacet
  facet normal -1.000000e+000  -0.000000e+000  0.000000e+000
    outer loop
      vertex -2.500000e+001 -2.350000e+001  1.100000e+000
      vertex -2.500000e+001  2.350000e+001  1.100000e+000
      vertex -2.500000e+001 -2.350000e+001  4.000000e-001
    endloop
  endfacet
  facet normal -1.000000e+000  0.000000e+000  0.000000e+000
    outer loop
      vertex -2.500000e+001 -2.350000e+001  4.000000e-001
      vertex -2.500000e+001  2.350000e+001  1.100000e+000
      vertex -2.500000e+001  2.350000e+001  4.000000e-001
    endloop
  endfacet
  facet normal  9.914446e-001 -1.305282e-001  0.000000e+000
    outer loop
      vertex  2.500000e+001 -2.350000e+001  4.000000e-001
      vertex  2.500000e+001 -2.350000e+001  1.100000e+000
      vertex  2.496593e+001 -2.375882e+001  4.000000e-001
    endloop
  endfacet
  facet normal  9.914446e-001 -1.305282e-001  0.000000e+000
    outer loop
      vertex  2.496593e+001 -2.375882e+001  4.000000e-001
      vertex  2.500000e+001 -2.350000e+001  1.100000e+000
      vertex  2.496593e+001 -2.375882e+001  1.100000e+000
    endloop
  endfacet
  facet normal  9.238808e-001 -3.826805e-001  0.000000e+000
    outer loop
      vertex  2.496593e+001 -2.375882e+001  4.000000e-001
      vertex  2.496593e+001 -2.375882e+001  1.100000e+000
      vertex  2.486603e+001 -2.400000e+001  4.000000e-001
    endloop
  endfacet
  facet normal  9.238808e-001 -3.826805e-001  0.000000e+000
    outer loop
      vertex  2.486603e+001 -2.400000e+001  4.000000e-001
      vertex  2.496593e+001 -2.375882e+001  1.100000e+000
      vertex  2.486603e+001 -2.400000e+001  1.100000e+000
    endloop
  endfacet
  facet normal  7.933549e-001 -6.087594e-001  0.000000e+000
    outer loop
      vertex  2.486603e+001 -2.400000e+001  4.000000e-001
      vertex  2.486603e+001 -2.400000e+001  1.100000e+000
      vertex  2.470711e+001 -2.420711e+001  4.000000e-001
    endloop
  endfacet
  facet normal  7.933549e-001 -6.087594e-001  0.000000e+000
    outer loop
      vertex  2.470711e+001 -2.420711e+001  4.000000e-001
      vertex  2.486603e+001 -2.400000e+001  1.100000e+000
      vertex  2.470711e+001 -2.420711e+001  1.100000e+000
    endloop
  endfacet
  facet normal  6.087594e-001 -7.933549e-001  0.000000e+000
    outer loop
      vertex  2.470711e+001 -2.420711e+001  4.000000e-001
      vertex  2.470711e+001 -2.420711e+001  1.100000e+000
      vertex  2.450000e+001 -2.436603e+001  4.000000e-001
    endloop
  endfacet
  facet normal  6.087594e-001 -7.933549e-001  0.000000e+000
    outer loop
      vertex  2.450000e+001 -2.436603e+001  4.000000e-001
      vertex  2.470711e+001 -2.420711e+001  1.100000e+000
      vertex  2.450000e+001 -2.436603e+001  1.100000e+000
    endloop
  endfacet
  facet normal  3.826805e-001 -9.238808e-001  0.000000e+000
    outer loop
      vertex  2.450000e+001 -2.436603e+001  4.000000e-001
      vertex  2.450000e+001 -2.436603e+001  1.100000e+000
      vertex  2.425882e+001 -2.446593e+001  4.000000e-001
    endloop
  endfacet
  facet normal  3.826805e-001 -9.238808e-001  0.000000e+000
    outer loop
      vertex  2.425882e+001 -2.446593e+001  4.000000e-001
      vertex  2.450000e+001 -2.436603e+001  1.100000e+000
      vertex  2.425882e+001 -2.446593e+001  1.100000e+000
    endloop
  endfacet
  facet normal  1.305282e-001 -9.914446e-001  0.000000e+000
    outer loop
      vertex  2.425882e+001 -2.446593e+001  4.000000e-001
      vertex  2.425882e+001 -2.446593e+001  1.100000e+000
      vertex  2.400000e+001 -2.450000e+001  4.000000e-001
    endloop
  endfacet
  facet normal  1.305282e-001 -9.914446e-001  0.000000e+000
    outer loop
      vertex  2.400000e+001 -2.450000e+001  4.000000e-001
      vertex  2.425882e+001 -2.446593e+001  1.100000e+000
      vertex  2.400000e+001 -2.450000e+001  1.100000e+000
    endloop
  endfacet
  facet normal  1.000000e+000  -0.000000e+000  0.000000e+000
    outer loop
      vertex  2.500000e+001  2.350000e+001  1.100000e+000
      vertex  2.500000e+001 -2.350000e+001  1.100000e+000
      vertex  2.500000e+001  2.350000e+001  4.000000e-001
    endloop
  endfacet
  facet normal  1.000000e+000  0.000000e+000  0.000000e+000
    outer loop
      vertex  2.500000e+001  2.350000e+001  4.000000e-001
      vertex  2.500000e+001 -2.350000e+001  1.100000e+000
      vertex  2.500000e+001 -2.350000e+001  4.000000e-001
    endloop
  endfacet
  facet normal  1.305282e-001  9.914446e-001  0.000000e+000
    outer loop
      vertex  2.400000e+001  2.450000e+001  4.000000e-001
      vertex  2.400000e+001  2.450000e+001  1.100000e+000
      vertex  2.425882e+001  2.446593e+001  4.000000e-001
    endloop
  endfacet
  facet normal  1.305282e-001  9.914446e-001  -0.000000e+000
    outer loop
      vertex  2.425882e+001  2.446593e+001  4.000000e-001
      vertex  2.400000e+001  2.450000e+001  1.100000e+000
      vertex  2.425882e+001  2.446593e+001  1.100000e+000
    endloop
  endfacet
  facet normal  3.826805e-001  9.238808e-001  0.000000e+000
    outer loop
      vertex  2.425882e+001  2.446593e+001  4.000000e-001
      vertex  2.425882e+001  2.446593e+001  1.100000e+000
      vertex  2.450000e+001  2.436603e+001  4.000000e-001
    endloop
  endfacet
  facet normal  3.826805e-001  9.238808e-001  -0.000000e+000
    outer loop
      vertex  2.450000e+001  2.436603e+001  4.000000e-001
      vertex  2.425882e+001  2.446593e+001  1.100000e+000
      vertex  2.450000e+001  2.436603e+001  1.100000e+000
    endloop
  endfacet
  facet normal  6.087594e-001  7.933549e-001  0.000000e+000
    outer loop
      vertex  2.450000e+001  2.436603e+001  4.000000e-001
      vertex  2.450000e+001  2.436603e+001  1.100000e+000
      vertex  2.470711e+001  2.420711e+001  4.000000e-001
    endloop
  endfacet
  facet normal  6.087594e-001  7.933549e-001  -0.000000e+000
    outer loop
      vertex  2.470711e+001  2.420711e+001  4.000000e-001
      vertex  2.450000e+001  2.436603e+001  1.100000e+000
      vertex  2.470711e+001  2.420711e+001  1.100000e+000
    endloop
  endfacet
  facet normal  7.933549e-001  6.087594e-001  0.000000e+000
    outer loop
      vertex  2.470711e+001  2.420711e+001  4.000000e-001
      vertex  2.470711e+001  2.420711e+001  1.100000e+000
      vertex  2.486603e+001  2.400000e+001  4.000000e-001
    endloop
  endfacet
  facet normal  7.933549e-001  6.087594e-001  -0.000000e+000
    outer loop
      vertex  2.486603e+001  2.400000e+001  4.000000e-001
      vertex  2.470711e+001  2.420711e+001  1.100000e+000
      vertex  2.486603e+001  2.400000e+001  1.100000e+000
    endloop
  endfacet
  facet normal  9.238808e-001  3.826805e-001  0.000000e+000
    outer loop
      vertex  2.486603e+001  2.400000e+001  4.000000e-001
      vertex  2.486603e+001  2.400000e+001  1.100000e+000
      vertex  2.496593e+001  2.375882e+001  4.000000e-001
    endloop
  endfacet
  facet normal  9.238808e-001  3.826805e-001  -0.000000e+000
    outer loop
      vertex  2.496593e+001  2.375882e+001  4.000000e-001
      vertex  2.486603e+001  2.400000e+001  1.100000e+000
      vertex  2.496593e+001  2.375882e+001  1.100000e+000
    endloop
  endfacet
  facet normal  9.914446e-001  1.305282e-001  0.000000e+000
    outer loop
      vertex  2.496593e+001  2.375882e+001  4.000000e-001
      vertex  2.496593e+001  2.375882e+001  1.100000e+000
      vertex  2.500000e+001  2.350000e+001  4.000000e-001
    endloop
  endfacet
  facet normal  9.914446e-001  1.305282e-001  -0.000000e+000
    outer loop
      vertex  2.500000e+001  2.350000e+001  4.000000e-001
      vertex  2.496593e+001  2.375882e+001  1.100000e+000
      vertex  2.500000e+001  2.350000e+001  1.100000e+000
    endloop
  endfacet
  facet normal  0.000000e+000  1.000000e+000  0.000000e+000
    outer loop
      vertex -2.400000e+001  2.450000e+001  1.100000e+000
      vertex  2.400000e+001  2.450000e+001  1.100000e+000
      vertex -2.400000e+001  2.450000e+001  4.000000e-001
    endloop
  endfacet
  facet normal  0.000000e+000  1.000000e+000  0.000000e+000
    outer loop
      vertex -2.400000e+001  2.450000e+001  4.000000e-001
      vertex  2.400000e+001  2.450000e+001  1.100000e+000
      vertex  2.400000e+001  2.450000e+001  4.000000e-001
    endloop
  endfacet
  facet normal -9.914446e-001  1.305282e-001  0.000000e+000
    outer loop
      vertex -2.500000e+001  2.350000e+001  4.000000e-001
      vertex -2.500000e+001  2.350000e+001  1.100000e+000
      vertex -2.496593e+001  2.375882e+001  4.000000e-001
    endloop
  endfacet
  facet normal -9.914446e-001  1.305282e-001  0.000000e+000
    outer loop
      vertex -2.496593e+001  2.375882e+001  4.000000e-001
      vertex -2.500000e+001  2.350000e+001  1.100000e+000
      vertex -2.496593e+001  2.375882e+001  1.100000e+000
    endloop
  endfacet
  facet normal -9.238808e-001  3.826805e-001  0.000000e+000
    outer loop
      vertex -2.496593e+001  2.375882e+001  4.000000e-001
      vertex -2.496593e+001  2.375882e+001  1.100000e+000
      vertex -2.486603e+001  2.400000e+001  4.000000e-001
    endloop
  endfacet
  facet normal -9.238808e-001  3.826805e-001  0.000000e+000
    outer loop
      vertex -2.486603e+001  2.400000e+001  4.000000e-001
      vertex -2.496593e+001  2.375882e+001  1.100000e+000
      vertex -2.486603e+001  2.400000e+001  1.100000e+000
    endloop
  endfacet
  facet normal -7.933549e-001  6.087594e-001  0.000000e+000
    outer loop
      vertex -2.486603e+001  2.400000e+001  4.000000e-001
      vertex -2.486603e+001  2.400000e+001  1.100000e+000
      vertex -2.470711e+001  2.420711e+001  4.000000e-001
    endloop
  endfacet
  facet normal -7.933549e-001  6.087594e-001  0.000000e+000
    outer loop
      vertex -2.470711e+001  2.420711e+001  4.000000e-001
      vertex -2.486603e+001  2.400000e+001  1.100000e+000
      vertex -2.470711e+001  2.420711e+001  1.100000e+000
    endloop
  endfacet
  facet normal -6.087594e-001  7.933549e-001  0.000000e+000
    outer loop
      vertex -2.470711e+001  2.420711e+001  4.000000e-001
      vertex -2.470711e+001  2.420711e+001  1.100000e+000
      vertex -2.450000e+001  2.436603e+001  4.000000e-001
    endloop
  endfacet
  facet normal -6.087594e-001  7.933549e-001  0.000000e+000
    outer loop
      vertex -2.450000e+001  2.436603e+001  4.000000e-001
      vertex -2.470711e+001  2.420711e+001  1.100000e+000
      vertex -2.450000e+001  2.436603e+001  1.100000e+000
    endloop
  endfacet
  facet normal -3.826805e-001  9.238808e-001  0.000000e+000
    outer loop
      vertex -2.450000e+001  2.436603e+001  4.000000e-001
      vertex -2.450000e+001  2.436603e+001  1.100000e+000
      vertex -2.425882e+001  2.446593e+001  4.000000e-001
    endloop
  endfacet
  facet normal -3.826805e-001  9.238808e-001  0.000000e+000
    outer loop
      vertex -2.425882e+001  2.446593e+001  4.000000e-001
      vertex -2.450000e+001  2.436603e+001  1.100000e+000
      vertex -2.425882e+001  2.446593e+001  1.100000e+000
    endloop
  endfacet
  facet normal -1.305282e-001  9.914446e-001  0.000000e+000
    outer loop
      vertex -2.425882e+001  2.446593e+001  4.000000e-001
      vertex -2.425882e+001  2.446593e+001  1.100000e+000
      vertex -2.400000e+001  2.450000e+001  4.000000e-001
    endloop
  endfacet
  facet normal -1.305282e-001  9.914446e-001  0.000000e+000
    outer loop
      vertex -2.400000e+001  2.450000e+001  4.000000e-001
      vertex -2.425882e+001  2.446593e+001  1.100000e+000
      vertex -2.400000e+001  2.450000e+001  1.100000e+000
    endloop
  endfacet
  facet normal  0.000000e+000  0.000000e+000 -1.000000e+000
    outer loop
      vertex  2.460000e+001  2.350000e+001  0.000000e+000
      vertex -2.457063e+001  2.368541e+001  0.000000e+000
      vertex  2.457063e+001  2.368541e+001  0.000000e+000
    endloop
  endfacet
  facet normal  0.000000e+000  0.000000e+000 -1.000000e+000
    outer loop
      vertex  2.457063e+001  2.368541e+001  0.000000e+000
      vertex -2.457063e+001  2.368541e+001  0.000000e+000
      vertex -2.448541e+001  2.385267e+001  0.000000e+000
    endloop
  endfacet
  facet normal  0.000000e+000  0.000000e+000 -1.000000e+000
    outer loop
      vertex  2.457063e+001  2.368541e+001  0.000000e+000
      vertex -2.448541e+001  2.385267e+001  0.000000e+000
      vertex  2.448541e+001  2.385267e+001  0.000000e+000
    endloop
  endfacet
  facet normal  0.000000e+000  0.000000e+000 -1.000000e+000
    outer loop
      vertex  2.448541e+001  2.385267e+001  0.000000e+000
      vertex -2.448541e+001  2.385267e+001  0.000000e+000
      vertex -2.435267e+001  2.398541e+001  0.000000e+000
    endloop
  endfacet
  facet normal  0.000000e+000  0.000000e+000 -1.000000e+000
    outer loop
      vertex  2.448541e+001  2.385267e+001  0.000000e+000
      vertex -2.435267e+001  2.398541e+001  0.000000e+000
      vertex  2.435267e+001  2.398541e+001  0.000000e+000
    endloop
  endfacet
  facet normal  0.000000e+000  0.000000e+000 -1.000000e+000
    outer loop
      vertex  2.435267e+001  2.398541e+001  0.000000e+000
      vertex -2.435267e+001  2.398541e+001  0.000000e+000
      vertex -2.418541e+001  2.407063e+001  0.000000e+000
    endloop
  endfacet
  facet normal  0.000000e+000  0.000000e+000 -1.000000e+000
    outer loop
      vertex  2.435267e+001  2.398541e+001  0.000000e+000
      vertex -2.418541e+001  2.407063e+001  0.000000e+000
      vertex  2.418541e+001  2.407063e+001  0.000000e+000
    endloop
  endfacet
  facet normal  0.000000e+000  0.000000e+000 -1.000000e+000
    outer loop
      vertex  2.418541e+001  2.407063e+001  0.000000e+000
      vertex -2.418541e+001  2.407063e+001  0.000000e+000
      vertex -2.400000e+001  2.410000e+001  0.000000e+000
    endloop
  endfacet
  facet normal  0.000000e+000  0.000000e+000 -1.000000e+000
    outer loop
      vertex  2.418541e+001  2.407063e+001  0.000000e+000
      vertex -2.400000e+001  2.410000e+001  0.000000e+000
      vertex  2.400000e+001  2.410000e+001  0.000000e+000
    endloop
  endfacet
  facet normal  0.000000e+000  0.000000e+000 -1.000000e+000
    outer loop
      vertex -2.457063e+001  2.368541e+001  0.000000e+000
      vertex  2.460000e+001  2.350000e+001  0.000000e+000
      vertex -2.460000e+001  2.350000e+001  0.000000e+000
    endloop
  endfacet
  facet normal  0.000000e+000  0.000000e+000 -1.000000e+000
    outer loop
      vertex -2.460000e+001  2.350000e+001  0.000000e+000
      vertex  2.460000e+001  2.350000e+001  0.000000e+000
      vertex  2.460000e+001 -2.350000e+001  0.000000e+000
    endloop
  endfacet
  facet normal  0.000000e+000  0.000000e+000 -1.000000e+000
    outer loop
      vertex -2.460000e+001  2.350000e+001  0.000000e+000
      vertex  2.460000e+001 -2.350000e+001  0.000000e+000
      vertex -2.460000e+001 -2.350000e+001  0.000000e+000
    endloop
  endfacet
  facet normal  0.000000e+000  0.000000e+000 -1.000000e+000
    outer loop
      vertex -2.460000e+001 -2.350000e+001  0.000000e+000
      vertex  2.460000e+001 -2.350000e+001  0.000000e+000
      vertex  2.457063e+001 -2.368541e+001  0.000000e+000
    endloop
  endfacet
  facet normal  0.000000e+000  0.000000e+000 -1.000000e+000
    outer loop
      vertex -2.460000e+001 -2.350000e+001  0.000000e+000
      vertex  2.457063e+001 -2.368541e+001  0.000000e+000
      vertex -2.457063e+001 -2.368541e+001  0.000000e+000
    endloop
  endfacet
  facet normal  0.000000e+000  0.000000e+000 -1.000000e+000
    outer loop
      vertex -2.457063e+001 -2.368541e+001  0.000000e+000
      vertex  2.457063e+001 -2.368541e+001  0.000000e+000
      vertex  2.448541e+001 -2.385267e+001  0.000000e+000
    endloop
  endfacet
  facet normal  0.000000e+000  0.000000e+000 -1.000000e+000
    outer loop
      vertex -2.457063e+001 -2.368541e+001  0.000000e+000
      vertex  2.448541e+001 -2.385267e+001  0.000000e+000
      vertex -2.448541e+001 -2.385267e+001  0.000000e+000
    endloop
  endfacet
  facet normal  0.000000e+000  0.000000e+000 -1.000000e+000
    outer loop
      vertex -2.448541e+001 -2.385267e+001  0.000000e+000
      vertex  2.448541e+001 -2.385267e+001  0.000000e+000
      vertex  2.435267e+001 -2.398541e+001  0.000000e+000
    endloop
  endfacet
  facet normal  0.000000e+000  0.000000e+000 -1.000000e+000
    outer loop
      vertex -2.448541e+001 -2.385267e+001  0.000000e+000
      vertex  2.435267e+001 -2.398541e+001  0.000000e+000
      vertex -2.435267e+001 -2.398541e+001  0.000000e+000
    endloop
  endfacet
  facet normal  0.000000e+000  0.000000e+000 -1.000000e+000
    outer loop
      vertex -2.435267e+001 -2.398541e+001  0.000000e+000
      vertex  2.435267e+001 -2.398541e+001  0.000000e+000
      vertex  2.418541e+001 -2.407063e+001  0.000000e+000
    endloop
  endfacet
  facet normal  0.000000e+000  0.000000e+000 -1.000000e+000
    outer loop
      vertex -2.435267e+001 -2.398541e+001  0.000000e+000
      vertex  2.418541e+001 -2.407063e+001  0.000000e+000
      vertex -2.418541e+001 -2.407063e+001  0.000000e+000
    endloop
  endfacet
  facet normal  0.000000e+000  0.000000e+000 -1.000000e+000
    outer loop
      vertex -2.418541e+001 -2.407063e+001  0.000000e+000
      vertex  2.418541e+001 -2.407063e+001  0.000000e+000
      vertex  2.400000e+001 -2.410000e+001  0.000000e+000
    endloop
  endfacet
  facet normal  0.000000e+000  0.000000e+000 -1.000000e+000
    outer loop
      vertex -2.418541e+001 -2.407063e+001  0.000000e+000
      vertex  2.400000e+001 -2.410000e+001  0.000000e+000
      vertex -2.400000e+001 -2.410000e+001  0.000000e+000
    endloop
  endfacet
  facet normal -7.040629e-001 -9.269310e-002 -7.040622e-001
    outer loop
      vertex -2.460000e+001 -2.350000e+001  0.000000e+000
      vertex -2.496593e+001 -2.375882e+001  4.000000e-001
      vertex -2.500000e+001 -2.350000e+001  4.000000e-001
    endloop
  endfacet
  facet normal -6.967381e-001 -1.103508e-001 -7.087868e-001
    outer loop
      vertex -2.460000e+001 -2.350000e+001  0.000000e+000
      vertex -2.457063e+001 -2.368541e+001  0.000000e+000
      vertex -2.496593e+001 -2.375882e+001  4.000000e-001
    endloop
  endfacet
  facet normal -1.103565e-001 -6.967357e-001 -7.087883e-001
    outer loop
      vertex -2.400000e+001 -2.410000e+001  0.000000e+000
      vertex -2.425882e+001 -2.446593e+001  4.000000e-001
      vertex -2.418541e+001 -2.407063e+001  0.000000e+000
    endloop
  endfacet
  facet normal -9.269310e-002 -7.040629e-001 -7.040622e-001
    outer loop
      vertex -2.400000e+001 -2.410000e+001  0.000000e+000
      vertex -2.400000e+001 -2.450000e+001  4.000000e-001
      vertex -2.425882e+001 -2.446593e+001  4.000000e-001
    endloop
  endfacet
  facet normal -6.587814e-001 -2.728737e-001 -7.011040e-001
    outer loop
      vertex -2.457063e+001 -2.368541e+001  0.000000e+000
      vertex -2.486603e+001 -2.400000e+001  4.000000e-001
      vertex -2.496593e+001 -2.375882e+001  4.000000e-001
    endloop
  endfacet
  facet normal -5.668714e-001 -4.349735e-001 -6.996105e-001
    outer loop
      vertex -2.448541e+001 -2.385267e+001  0.000000e+000
      vertex -2.470711e+001 -2.420711e+001  4.000000e-001
      vertex -2.486603e+001 -2.400000e+001  4.000000e-001
    endloop
  endfacet
  facet normal -6.253156e-001 -3.186157e-001 -7.123653e-001
    outer loop
      vertex -2.448541e+001 -2.385267e+001  0.000000e+000
      vertex -2.486603e+001 -2.400000e+001  4.000000e-001
      vertex -2.457063e+001 -2.368541e+001  0.000000e+000
    endloop
  endfacet
  facet normal -4.349735e-001 -5.668714e-001 -6.996106e-001
    outer loop
      vertex -2.435267e+001 -2.398541e+001  0.000000e+000
      vertex -2.450000e+001 -2.436603e+001  4.000000e-001
      vertex -2.470711e+001 -2.420711e+001  4.000000e-001
    endloop
  endfacet
  facet normal -4.954041e-001 -4.954041e-001 -7.135473e-001
    outer loop
      vertex -2.435267e+001 -2.398541e+001  0.000000e+000
      vertex -2.470711e+001 -2.420711e+001  4.000000e-001
      vertex -2.448541e+001 -2.385267e+001  0.000000e+000
    endloop
  endfacet
  facet normal -2.728734e-001 -6.587806e-001 -7.011050e-001
    outer loop
      vertex -2.418541e+001 -2.407063e+001  0.000000e+000
      vertex -2.425882e+001 -2.446593e+001  4.000000e-001
      vertex -2.450000e+001 -2.436603e+001  4.000000e-001
    endloop
  endfacet
  facet normal -3.186128e-001 -6.253169e-001 -7.123654e-001
    outer loop
      vertex -2.418541e+001 -2.407063e+001  0.000000e+000
      vertex -2.450000e+001 -2.436603e+001  4.000000e-001
      vertex -2.435267e+001 -2.398541e+001  0.000000e+000
    endloop
  endfacet
  facet normal -7.071071e-001  -0.000000e+000 -7.071064e-001
    outer loop
      vertex -2.500000e+001 -2.350000e+001  4.000000e-001
      vertex -2.500000e+001  2.350000e+001  4.000000e-001
      vertex -2.460000e+001 -2.350000e+001  0.000000e+000
    endloop
  endfacet
  facet normal -7.071071e-001  0.000000e+000 -7.071064e-001
    outer loop
      vertex -2.460000e+001 -2.350000e+001  0.000000e+000
      vertex -2.500000e+001  2.350000e+001  4.000000e-001
      vertex -2.460000e+001  2.350000e+001  0.000000e+000
    endloop
  endfacet
  facet normal -9.269310e-002  7.040629e-001 -7.040622e-001
    outer loop
      vertex -2.400000e+001  2.410000e+001  0.000000e+000
      vertex -2.425882e+001  2.446593e+001  4.000000e-001
      vertex -2.400000e+001  2.450000e+001  4.000000e-001
    endloop
  endfacet
  facet normal -1.103508e-001  6.967381e-001 -7.087868e-001
    outer loop
      vertex -2.400000e+001  2.410000e+001  0.000000e+000
      vertex -2.418541e+001  2.407063e+001  0.000000e+000
      vertex -2.425882e+001  2.446593e+001  4.000000e-001
    endloop
  endfacet
  facet normal -6.967357e-001  1.103565e-001 -7.087883e-001
    outer loop
      vertex -2.460000e+001  2.350000e+001  0.000000e+000
      vertex -2.496593e+001  2.375882e+001  4.000000e-001
      vertex -2.457063e+001  2.368541e+001  0.000000e+000
    endloop
  endfacet
  facet normal -7.040629e-001  9.269310e-002 -7.040622e-001
    outer loop
      vertex -2.460000e+001  2.350000e+001  0.000000e+000
      vertex -2.500000e+001  2.350000e+001  4.000000e-001
      vertex -2.496593e+001  2.375882e+001  4.000000e-001
    endloop
  endfacet
  facet normal -2.728737e-001  6.587814e-001 -7.011040e-001
    outer loop
      vertex -2.418541e+001  2.407063e+001  0.000000e+000
      vertex -2.450000e+001  2.436603e+001  4.000000e-001
      vertex -2.425882e+001  2.446593e+001  4.000000e-001
    endloop
  endfacet
  facet normal -4.349735e-001  5.668714e-001 -6.996105e-001
    outer loop
      vertex -2.435267e+001  2.398541e+001  0.000000e+000
      vertex -2.470711e+001  2.420711e+001  4.000000e-001
      vertex -2.450000e+001  2.436603e+001  4.000000e-001
    endloop
  endfacet
  facet normal -3.186157e-001  6.253156e-001 -7.123653e-001
    outer loop
      vertex -2.435267e+001  2.398541e+001  0.000000e+000
      vertex -2.450000e+001  2.436603e+001  4.000000e-001
      vertex -2.418541e+001  2.407063e+001  0.000000e+000
    endloop
  endfacet
  facet normal -5.668714e-001  4.349735e-001 -6.996106e-001
    outer loop
      vertex -2.448541e+001  2.385267e+001  0.000000e+000
      vertex -2.486603e+001  2.400000e+001  4.000000e-001
      vertex -2.470711e+001  2.420711e+001  4.000000e-001
    endloop
  endfacet
  facet normal -4.954041e-001  4.954041e-001 -7.135473e-001
    outer loop
      vertex -2.448541e+001  2.385267e+001  0.000000e+000
      vertex -2.470711e+001  2.420711e+001  4.000000e-001
      vertex -2.435267e+001  2.398541e+001  0.000000e+000
    endloop
  endfacet
  facet normal -6.587806e-001  2.728734e-001 -7.011050e-001
    outer loop
      vertex -2.457063e+001  2.368541e+001  0.000000e+000
      vertex -2.496593e+001  2.375882e+001  4.000000e-001
      vertex -2.486603e+001  2.400000e+001  4.000000e-001
    endloop
  endfacet
  facet normal -6.253169e-001  3.186128e-001 -7.123654e-001
    outer loop
      vertex -2.457063e+001  2.368541e+001  0.000000e+000
      vertex -2.486603e+001  2.400000e+001  4.000000e-001
      vertex -2.448541e+001  2.385267e+001  0.000000e+000
    endloop
  endfacet
  facet normal  0.000000e+000  7.071071e-001 -7.071064e-001
    outer loop
      vertex -2.400000e+001  2.450000e+001  4.000000e-001
      vertex  2.400000e+001  2.450000e+001  4.000000e-001
      vertex -2.400000e+001  2.410000e+001  0.000000e+000
    endloop
  endfacet
  facet normal  0.000000e+000  7.071071e-001 -7.071064e-001
    outer loop
      vertex -2.400000e+001  2.410000e+001  0.000000e+000
      vertex  2.400000e+001  2.450000e+001  4.000000e-001
      vertex  2.400000e+001  2.410000e+001  0.000000e+000
    endloop
  endfacet
  facet normal  7.040629e-001  9.269310e-002 -7.040622e-001
    outer loop
      vertex  2.460000e+001  2.350000e+001  0.000000e+000
      vertex  2.496593e+001  2.375882e+001  4.000000e-001
      vertex  2.500000e+001  2.350000e+001  4.000000e-001
    endloop
  endfacet
  facet normal  6.967381e-001  1.103508e-001 -7.087868e-001
    outer loop
      vertex  2.460000e+001  2.350000e+001  0.000000e+000
      vertex  2.457063e+001  2.368541e+001  0.000000e+000
      vertex  2.496593e+001  2.375882e+001  4.000000e-001
    endloop
  endfacet
  facet normal  1.103565e-001  6.967357e-001 -7.087883e-001
    outer loop
      vertex  2.400000e+001  2.410000e+001  0.000000e+000
      vertex  2.425882e+001  2.446593e+001  4.000000e-001
      vertex  2.418541e+001  2.407063e+001  0.000000e+000
    endloop
  endfacet
  facet normal  9.269310e-002  7.040629e-001 -7.040622e-001
    outer loop
      vertex  2.400000e+001  2.410000e+001  0.000000e+000
      vertex  2.400000e+001  2.450000e+001  4.000000e-001
      vertex  2.425882e+001  2.446593e+001  4.000000e-001
    endloop
  endfacet
  facet normal  6.587814e-001  2.728737e-001 -7.011040e-001
    outer loop
      vertex  2.457063e+001  2.368541e+001  0.000000e+000
      vertex  2.486603e+001  2.400000e+001  4.000000e-001
      vertex  2.496593e+001  2.375882e+001  4.000000e-001
    endloop
  endfacet
  facet normal  5.668714e-001  4.349735e-001 -6.996105e-001
    outer loop
      vertex  2.448541e+001  2.385267e+001  0.000000e+000
      vertex  2.470711e+001  2.420711e+001  4.000000e-001
      vertex  2.486603e+001  2.400000e+001  4.000000e-001
    endloop
  endfacet
  facet normal  6.253156e-001  3.186157e-001 -7.123653e-001
    outer loop
      vertex  2.448541e+001  2.385267e+001  0.000000e+000
      vertex  2.486603e+001  2.400000e+001  4.000000e-001
      vertex  2.457063e+001  2.368541e+001  0.000000e+000
    endloop
  endfacet
  facet normal  4.349735e-001  5.668714e-001 -6.996106e-001
    outer loop
      vertex  2.435267e+001  2.398541e+001  0.000000e+000
      vertex  2.450000e+001  2.436603e+001  4.000000e-001
      vertex  2.470711e+001  2.420711e+001  4.000000e-001
    endloop
  endfacet
  facet normal  4.954041e-001  4.954041e-001 -7.135473e-001
    outer loop
      vertex  2.435267e+001  2.398541e+001  0.000000e+000
      vertex  2.470711e+001  2.420711e+001  4.000000e-001
      vertex  2.448541e+001  2.385267e+001  0.000000e+000
    endloop
  endfacet
  facet normal  2.728734e-001  6.587806e-001 -7.011050e-001
    outer loop
      vertex  2.418541e+001  2.407063e+001  0.000000e+000
      vertex  2.425882e+001  2.446593e+001  4.000000e-001
      vertex  2.450000e+001  2.436603e+001  4.000000e-001
    endloop
  endfacet
  facet normal  3.186128e-001  6.253169e-001 -7.123654e-001
    outer loop
      vertex  2.418541e+001  2.407063e+001  0.000000e+000
      vertex  2.450000e+001  2.436603e+001  4.000000e-001
      vertex  2.435267e+001  2.398541e+001  0.000000e+000
    endloop
  endfacet
  facet normal  7.071071e-001  0.000000e+000 -7.071064e-001
    outer loop
      vertex  2.500000e+001  2.350000e+001  4.000000e-001
      vertex  2.500000e+001 -2.350000e+001  4.000000e-001
      vertex  2.460000e+001  2.350000e+001  0.000000e+000
    endloop
  endfacet
  facet normal  7.071071e-001  0.000000e+000 -7.071064e-001
    outer loop
      vertex  2.460000e+001  2.350000e+001  0.000000e+000
      vertex  2.500000e+001 -2.350000e+001  4.000000e-001
      vertex  2.460000e+001 -2.350000e+001  0.000000e+000
    endloop
  endfacet
  facet normal  9.269310e-002 -7.040629e-001 -7.040622e-001
    outer loop
      vertex  2.400000e+001 -2.410000e+001  0.000000e+000
      vertex  2.425882e+001 -2.446593e+001  4.000000e-001
      vertex  2.400000e+001 -2.450000e+001  4.000000e-001
    endloop
  endfacet
  facet normal  1.103508e-001 -6.967381e-001 -7.087868e-001
    outer loop
      vertex  2.400000e+001 -2.410000e+001  0.000000e+000
      vertex  2.418541e+001 -2.407063e+001  0.000000e+000
      vertex  2.425882e+001 -2.446593e+001  4.000000e-001
    endloop
  endfacet
  facet normal  6.967357e-001 -1.103565e-001 -7.087883e-001
    outer loop
      vertex  2.460000e+001 -2.350000e+001  0.000000e+000
      vertex  2.496593e+001 -2.375882e+001  4.000000e-001
      vertex  2.457063e+001 -2.368541e+001  0.000000e+000
    endloop
  endfacet
  facet normal  7.040629e-001 -9.269310e-002 -7.040622e-001
    outer loop
      vertex  2.460000e+001 -2.350000e+001  0.000000e+000
      vertex  2.500000e+001 -2.350000e+001  4.000000e-001
      vertex  2.496593e+001 -2.375882e+001  4.000000e-001
    endloop
  endfacet
  facet normal  2.728737e-001 -6.587814e-001 -7.011040e-001
    outer loop
      vertex  2.418541e+001 -2.407063e+001  0.000000e+000
      vertex  2.450000e+001 -2.436603e+001  4.000000e-001
      vertex  2.425882e+001 -2.446593e+001  4.000000e-001
    endloop
  endfacet
  facet normal  4.349735e-001 -5.668714e-001 -6.996105e-001
    outer loop
      vertex  2.435267e+001 -2.398541e+001  0.000000e+000
      vertex  2.470711e+001 -2.420711e+001  4.000000e-001
      vertex  2.450000e+001 -2.436603e+001  4.000000e-001
    endloop
  endfacet
  facet normal  3.186157e-001 -6.253156e-001 -7.123653e-001
    outer loop
      vertex  2.435267e+001 -2.398541e+001  0.000000e+000
      vertex  2.450000e+001 -2.436603e+001  4.000000e-001
      vertex  2.418541e+001 -2.407063e+001  0.000000e+000
    endloop
  endfacet
  facet normal  5.668714e-001 -4.349735e-001 -6.996106e-001
    outer loop
      vertex  2.448541e+001 -2.385267e+001  0.000000e+000
      vertex  2.486603e+001 -2.400000e+001  4.000000e-001
      vertex  2.470711e+001 -2.420711e+001  4.000000e-001
    endloop
  endfacet
  facet normal  4.954041e-001 -4.954041e-001 -7.135473e-001
    outer loop
      vertex  2.448541e+001 -2.385267e+001  0.000000e+000
      vertex  2.470711e+001 -2.420711e+001  4.000000e-001
      vertex  2.435267e+001 -2.398541e+001  0.000000e+000
    endloop
  endfacet
  facet normal  6.587806e-001 -2.728734e-001 -7.011050e-001
    outer loop
      vertex  2.457063e+001 -2.368541e+001  0.000000e+000
      vertex  2.496593e+001 -2.375882e+001  4.000000e-001
      vertex  2.486603e+001 -2.400000e+001  4.000000e-001
    endloop
  endfacet
  facet normal  6.253169e-001 -3.186128e-001 -7.123654e-001
    outer loop
      vertex  2.457063e+001 -2.368541e+001  0.000000e+000
      vertex  2.486603e+001 -2.400000e+001  4.000000e-001
      vertex  2.448541e+001 -2.385267e+001  0.000000e+000
    endloop
  endfacet
  facet normal  0.000000e+000 -7.071071e-001 -7.071064e-001
    outer loop
      vertex  2.400000e+001 -2.450000e+001  4.000000e-001
      vertex -2.400000e+001 -2.450000e+001  4.000000e-001
      vertex  2.400000e+001 -2.410000e+001  0.000000e+000
    endloop
  endfacet
  facet normal  -0.000000e+000 -7.071071e-001 -7.071064e-001
    outer loop
      vertex  2.400000e+001 -2.410000e+001  0.000000e+000
      vertex -2.400000e+001 -2.450000e+001  4.000000e-001
      vertex -2.400000e+001 -2.410000e+001  0.000000e+000
    endloop
  endfacet
  facet normal  -0.000000e+000  0.000000e+000  1.000000e+000
    outer loop
      vertex  2.400000e+001  2.410000e+001  1.500000e+000
      vertex -2.400000e+001  2.410000e+001  1.500000e+000
      vertex  2.418541e+001  2.407063e+001  1.500000e+000
    endloop
  endfacet
  facet normal  0.000000e+000  0.000000e+000  1.000000e+000
    outer loop
      vertex  2.418541e+001  2.407063e+001  1.500000e+000
      vertex -2.400000e+001  2.410000e+001  1.500000e+000
      vertex -2.418541e+001  2.407063e+001  1.500000e+000
    endloop
  endfacet
  facet normal  0.000000e+000  0.000000e+000  1.000000e+000
    outer loop
      vertex  2.418541e+001  2.407063e+001  1.500000e+000
      vertex -2.418541e+001  2.407063e+001  1.500000e+000
      vertex  2.435267e+001  2.398541e+001  1.500000e+000
    endloop
  endfacet
  facet normal  0.000000e+000  0.000000e+000  1.000000e+000
    outer loop
      vertex  2.435267e+001  2.398541e+001  1.500000e+000
      vertex -2.418541e+001  2.407063e+001  1.500000e+000
      vertex -2.435267e+001  2.398541e+001  1.500000e+000
    endloop
  endfacet
  facet normal  -0.000000e+000  0.000000e+000  1.000000e+000
    outer loop
      vertex  2.435267e+001  2.398541e+001  1.500000e+000
      vertex -2.435267e+001  2.398541e+001  1.500000e+000
      vertex  2.448541e+001  2.385267e+001  1.500000e+000
    endloop
  endfacet
  facet normal  0.000000e+000  0.000000e+000  1.000000e+000
    outer loop
      vertex  2.448541e+001  2.385267e+001  1.500000e+000
      vertex -2.435267e+001  2.398541e+001  1.500000e+000
      vertex -2.448541e+001  2.385267e+001  1.500000e+000
    endloop
  endfacet
  facet normal  -0.000000e+000  0.000000e+000  1.000000e+000
    outer loop
      vertex  2.448541e+001  2.385267e+001  1.500000e+000
      vertex -2.448541e+001  2.385267e+001  1.500000e+000
      vertex  2.457063e+001  2.368541e+001  1.500000e+000
    endloop
  endfacet
  facet normal  0.000000e+000  0.000000e+000  1.000000e+000
    outer loop
      vertex  2.457063e+001  2.368541e+001  1.500000e+000
      vertex -2.448541e+001  2.385267e+001  1.500000e+000
      vertex -2.457063e+001  2.368541e+001  1.500000e+000
    endloop
  endfacet
  facet normal  0.000000e+000  0.000000e+000  1.000000e+000
    outer loop
      vertex  2.457063e+001  2.368541e+001  1.500000e+000
      vertex -2.457063e+001  2.368541e+001  1.500000e+000
      vertex  2.460000e+001  2.350000e+001  1.500000e+000
    endloop
  endfacet
  facet normal  0.000000e+000  0.000000e+000  1.000000e+000
    outer loop
      vertex  2.460000e+001  2.350000e+001  1.500000e+000
      vertex -2.457063e+001  2.368541e+001  1.500000e+000
      vertex -2.460000e+001  2.350000e+001  1.500000e+000
    endloop
  endfacet
  facet normal  -0.000000e+000  0.000000e+000  1.000000e+000
    outer loop
      vertex  2.460000e+001  2.350000e+001  1.500000e+000
      vertex -2.460000e+001  2.350000e+001  1.500000e+000
      vertex  2.460000e+001 -2.350000e+001  1.500000e+000
    endloop
  endfacet
  facet normal  0.000000e+000  0.000000e+000  1.000000e+000
    outer loop
      vertex  2.460000e+001 -2.350000e+001  1.500000e+000
      vertex -2.460000e+001  2.350000e+001  1.500000e+000
      vertex -2.460000e+001 -2.350000e+001  1.500000e+000
    endloop
  endfacet
  facet normal  -0.000000e+000  0.000000e+000  1.000000e+000
    outer loop
      vertex  2.460000e+001 -2.350000e+001  1.500000e+000
      vertex -2.460000e+001 -2.350000e+001  1.500000e+000
      vertex  2.457063e+001 -2.368541e+001  1.500000e+000
    endloop
  endfacet
  facet normal  0.000000e+000  0.000000e+000  1.000000e+000
    outer loop
      vertex  2.457063e+001 -2.368541e+001  1.500000e+000
      vertex -2.460000e+001 -2.350000e+001  1.500000e+000
      vertex -2.457063e+001 -2.368541e+001  1.500000e+000
    endloop
  endfacet
  facet normal  0.000000e+000  0.000000e+000  1.000000e+000
    outer loop
      vertex  2.457063e+001 -2.368541e+001  1.500000e+000
      vertex -2.457063e+001 -2.368541e+001  1.500000e+000
      vertex  2.448541e+001 -2.385267e+001  1.500000e+000
    endloop
  endfacet
  facet normal  0.000000e+000  0.000000e+000  1.000000e+000
    outer loop
      vertex  2.448541e+001 -2.385267e+001  1.500000e+000
      vertex -2.457063e+001 -2.368541e+001  1.500000e+000
      vertex -2.448541e+001 -2.385267e+001  1.500000e+000
    endloop
  endfacet
  facet normal  -0.000000e+000  0.000000e+000  1.000000e+000
    outer loop
      vertex  2.448541e+001 -2.385267e+001  1.500000e+000
      vertex -2.448541e+001 -2.385267e+001  1.500000e+000
      vertex  2.435267e+001 -2.398541e+001  1.500000e+000
    endloop
  endfacet
  facet normal  0.000000e+000  0.000000e+000  1.000000e+000
    outer loop
      vertex  2.435267e+001 -2.398541e+001  1.500000e+000
      vertex -2.448541e+001 -2.385267e+001  1.500000e+000
      vertex -2.435267e+001 -2.398541e+001  1.500000e+000
    endloop
  endfacet
  facet normal  -0.000000e+000  0.000000e+000  1.000000e+000
    outer loop
      vertex  2.435267e+001 -2.398541e+001  1.500000e+000
      vertex -2.435267e+001 -2.398541e+001  1.500000e+000
      vertex  2.418541e+001 -2.407063e+001  1.500000e+000
    endloop
  endfacet
  facet normal  0.000000e+000  0.000000e+000  1.000000e+000
    outer loop
      vertex  2.418541e+001 -2.407063e+001  1.500000e+000
      vertex -2.435267e+001 -2.398541e+001  1.500000e+000
      vertex -2.418541e+001 -2.407063e+001  1.500000e+000
    endloop
  endfacet
  facet normal  0.000000e+000  0.000000e+000  1.000000e+000
    outer loop
      vertex  2.418541e+001 -2.407063e+001  1.500000e+000
      vertex -2.418541e+001 -2.407063e+001  1.500000e+000
      vertex  2.400000e+001 -2.410000e+001  1.500000e+000
    endloop
  endfacet
  facet normal  0.000000e+000  0.000000e+000  1.000000e+000
    outer loop
      vertex  2.400000e+001 -2.410000e+001  1.500000e+000
      vertex -2.418541e+001 -2.407063e+001  1.500000e+000
      vertex -2.400000e+001 -2.410000e+001  1.500000e+000
    endloop
  endfacet
  facet normal -1.103565e-001 -6.967357e-001  7.087883e-001
    outer loop
      vertex -2.418541e+001 -2.407063e+001  1.500000e+000
      vertex -2.425882e+001 -2.446593e+001  1.100000e+000
      vertex -2.400000e+001 -2.410000e+001  1.500000e+000
    endloop
  endfacet
  facet normal -9.269309e-002 -7.040628e-001  7.040622e-001
    outer loop
      vertex -2.425882e+001 -2.446593e+001  1.100000e+000
      vertex -2.400000e+001 -2.450000e+001  1.100000e+000
      vertex -2.400000e+001 -2.410000e+001  1.500000e+000
    endloop
  endfacet
  facet normal -7.040628e-001 -9.269309e-002  7.040622e-001
    outer loop
      vertex -2.500000e+001 -2.350000e+001  1.100000e+000
      vertex -2.496593e+001 -2.375882e+001  1.100000e+000
      vertex -2.460000e+001 -2.350000e+001  1.500000e+000
    endloop
  endfacet
  facet normal -6.967381e-001 -1.103508e-001  7.087868e-001
    outer loop
      vertex -2.496593e+001 -2.375882e+001  1.100000e+000
      vertex -2.457063e+001 -2.368541e+001  1.500000e+000
      vertex -2.460000e+001 -2.350000e+001  1.500000e+000
    endloop
  endfacet
  facet normal -6.587813e-001 -2.728737e-001  7.011040e-001
    outer loop
      vertex -2.496593e+001 -2.375882e+001  1.100000e+000
      vertex -2.486603e+001 -2.400000e+001  1.100000e+000
      vertex -2.457063e+001 -2.368541e+001  1.500000e+000
    endloop
  endfacet
  facet normal -5.668714e-001 -4.349734e-001  6.996106e-001
    outer loop
      vertex -2.486603e+001 -2.400000e+001  1.100000e+000
      vertex -2.470711e+001 -2.420711e+001  1.100000e+000
      vertex -2.448541e+001 -2.385267e+001  1.500000e+000
    endloop
  endfacet
  facet normal -6.253158e-001 -3.186156e-001  7.123653e-001
    outer loop
      vertex -2.457063e+001 -2.368541e+001  1.500000e+000
      vertex -2.486603e+001 -2.400000e+001  1.100000e+000
      vertex -2.448541e+001 -2.385267e+001  1.500000e+000
    endloop
  endfacet
  facet normal -4.349734e-001 -5.668713e-001  6.996106e-001
    outer loop
      vertex -2.470711e+001 -2.420711e+001  1.100000e+000
      vertex -2.450000e+001 -2.436603e+001  1.100000e+000
      vertex -2.435267e+001 -2.398541e+001  1.500000e+000
    endloop
  endfacet
  facet normal -4.954040e-001 -4.954040e-001  7.135473e-001
    outer loop
      vertex -2.448541e+001 -2.385267e+001  1.500000e+000
      vertex -2.470711e+001 -2.420711e+001  1.100000e+000
      vertex -2.435267e+001 -2.398541e+001  1.500000e+000
    endloop
  endfacet
  facet normal -2.728734e-001 -6.587805e-001  7.011050e-001
    outer loop
      vertex -2.450000e+001 -2.436603e+001  1.100000e+000
      vertex -2.425882e+001 -2.446593e+001  1.100000e+000
      vertex -2.418541e+001 -2.407063e+001  1.500000e+000
    endloop
  endfacet
  facet normal -3.186128e-001 -6.253169e-001  7.123654e-001
    outer loop
      vertex -2.435267e+001 -2.398541e+001  1.500000e+000
      vertex -2.450000e+001 -2.436603e+001  1.100000e+000
      vertex -2.418541e+001 -2.407063e+001  1.500000e+000
    endloop
  endfacet
  facet normal -7.071071e-001  0.000000e+000  7.071064e-001
    outer loop
      vertex -2.500000e+001 -2.350000e+001  1.100000e+000
      vertex -2.460000e+001 -2.350000e+001  1.500000e+000
      vertex -2.500000e+001  2.350000e+001  1.100000e+000
    endloop
  endfacet
  facet normal -7.071071e-001  0.000000e+000  7.071064e-001
    outer loop
      vertex -2.500000e+001  2.350000e+001  1.100000e+000
      vertex -2.460000e+001 -2.350000e+001  1.500000e+000
      vertex -2.460000e+001  2.350000e+001  1.500000e+000
    endloop
  endfacet
  facet normal -6.967357e-001  1.103565e-001  7.087883e-001
    outer loop
      vertex -2.457063e+001  2.368541e+001  1.500000e+000
      vertex -2.496593e+001  2.375882e+001  1.100000e+000
      vertex -2.460000e+001  2.350000e+001  1.500000e+000
    endloop
  endfacet
  facet normal -7.040628e-001  9.269309e-002  7.040622e-001
    outer loop
      vertex -2.496593e+001  2.375882e+001  1.100000e+000
      vertex -2.500000e+001  2.350000e+001  1.100000e+000
      vertex -2.460000e+001  2.350000e+001  1.500000e+000
    endloop
  endfacet
  facet normal -9.269309e-002  7.040628e-001  7.040622e-001
    outer loop
      vertex -2.400000e+001  2.450000e+001  1.100000e+000
      vertex -2.425882e+001  2.446593e+001  1.100000e+000
      vertex -2.400000e+001  2.410000e+001  1.500000e+000
    endloop
  endfacet
  facet normal -1.103508e-001  6.967381e-001  7.087868e-001
    outer loop
      vertex -2.425882e+001  2.446593e+001  1.100000e+000
      vertex -2.418541e+001  2.407063e+001  1.500000e+000
      vertex -2.400000e+001  2.410000e+001  1.500000e+000
    endloop
  endfacet
  facet normal -2.728737e-001  6.587813e-001  7.011040e-001
    outer loop
      vertex -2.425882e+001  2.446593e+001  1.100000e+000
      vertex -2.450000e+001  2.436603e+001  1.100000e+000
      vertex -2.418541e+001  2.407063e+001  1.500000e+000
    endloop
  endfacet
  facet normal -4.349734e-001  5.668714e-001  6.996106e-001
    outer loop
      vertex -2.450000e+001  2.436603e+001  1.100000e+000
      vertex -2.470711e+001  2.420711e+001  1.100000e+000
      vertex -2.435267e+001  2.398541e+001  1.500000e+000
    endloop
  endfacet
  facet normal -3.186156e-001  6.253158e-001  7.123653e-001
    outer loop
      vertex -2.418541e+001  2.407063e+001  1.500000e+000
      vertex -2.450000e+001  2.436603e+001  1.100000e+000
      vertex -2.435267e+001  2.398541e+001  1.500000e+000
    endloop
  endfacet
  facet normal -5.668713e-001  4.349734e-001  6.996106e-001
    outer loop
      vertex -2.470711e+001  2.420711e+001  1.100000e+000
      vertex -2.486603e+001  2.400000e+001  1.100000e+000
      vertex -2.448541e+001  2.385267e+001  1.500000e+000
    endloop
  endfacet
  facet normal -4.954040e-001  4.954040e-001  7.135473e-001
    outer loop
      vertex -2.435267e+001  2.398541e+001  1.500000e+000
      vertex -2.470711e+001  2.420711e+001  1.100000e+000
      vertex -2.448541e+001  2.385267e+001  1.500000e+000
    endloop
  endfacet
  facet normal -6.587805e-001  2.728734e-001  7.011050e-001
    outer loop
      vertex -2.486603e+001  2.400000e+001  1.100000e+000
      vertex -2.496593e+001  2.375882e+001  1.100000e+000
      vertex -2.457063e+001  2.368541e+001  1.500000e+000
    endloop
  endfacet
  facet normal -6.253169e-001  3.186128e-001  7.123654e-001
    outer loop
      vertex -2.448541e+001  2.385267e+001  1.500000e+000
      vertex -2.486603e+001  2.400000e+001  1.100000e+000
      vertex -2.457063e+001  2.368541e+001  1.500000e+000
    endloop
  endfacet
  facet normal  0.000000e+000  7.071071e-001  7.071065e-001
    outer loop
      vertex -2.400000e+001  2.450000e+001  1.100000e+000
      vertex -2.400000e+001  2.410000e+001  1.500000e+000
      vertex  2.400000e+001  2.450000e+001  1.100000e+000
    endloop
  endfacet
  facet normal  0.000000e+000  7.071071e-001  7.071065e-001
    outer loop
      vertex  2.400000e+001  2.450000e+001  1.100000e+000
      vertex -2.400000e+001  2.410000e+001  1.500000e+000
      vertex  2.400000e+001  2.410000e+001  1.500000e+000
    endloop
  endfacet
  facet normal  1.103565e-001  6.967357e-001  7.087883e-001
    outer loop
      vertex  2.418541e+001  2.407063e+001  1.500000e+000
      vertex  2.425882e+001  2.446593e+001  1.100000e+000
      vertex  2.400000e+001  2.410000e+001  1.500000e+000
    endloop
  endfacet
  facet normal  9.269309e-002  7.040628e-001  7.040622e-001
    outer loop
      vertex  2.425882e+001  2.446593e+001  1.100000e+000
      vertex  2.400000e+001  2.450000e+001  1.100000e+000
      vertex  2.400000e+001  2.410000e+001  1.500000e+000
    endloop
  endfacet
  facet normal  7.040628e-001  9.269309e-002  7.040622e-001
    outer loop
      vertex  2.500000e+001  2.350000e+001  1.100000e+000
      vertex  2.496593e+001  2.375882e+001  1.100000e+000
      vertex  2.460000e+001  2.350000e+001  1.500000e+000
    endloop
  endfacet
  facet normal  6.967381e-001  1.103508e-001  7.087868e-001
    outer loop
      vertex  2.496593e+001  2.375882e+001  1.100000e+000
      vertex  2.457063e+001  2.368541e+001  1.500000e+000
      vertex  2.460000e+001  2.350000e+001  1.500000e+000
    endloop
  endfacet
  facet normal  6.587813e-001  2.728737e-001  7.011040e-001
    outer loop
      vertex  2.496593e+001  2.375882e+001  1.100000e+000
      vertex  2.486603e+001  2.400000e+001  1.100000e+000
      vertex  2.457063e+001  2.368541e+001  1.500000e+000
    endloop
  endfacet
  facet normal  5.668714e-001  4.349734e-001  6.996106e-001
    outer loop
      vertex  2.486603e+001  2.400000e+001  1.100000e+000
      vertex  2.470711e+001  2.420711e+001  1.100000e+000
      vertex  2.448541e+001  2.385267e+001  1.500000e+000
    endloop
  endfacet
  facet normal  6.253158e-001  3.186156e-001  7.123653e-001
    outer loop
      vertex  2.457063e+001  2.368541e+001  1.500000e+000
      vertex  2.486603e+001  2.400000e+001  1.100000e+000
      vertex  2.448541e+001  2.385267e+001  1.500000e+000
    endloop
  endfacet
  facet normal  4.349734e-001  5.668713e-001  6.996106e-001
    outer loop
      vertex  2.470711e+001  2.420711e+001  1.100000e+000
      vertex  2.450000e+001  2.436603e+001  1.100000e+000
      vertex  2.435267e+001  2.398541e+001  1.500000e+000
    endloop
  endfacet
  facet normal  4.954040e-001  4.954040e-001  7.135473e-001
    outer loop
      vertex  2.448541e+001  2.385267e+001  1.500000e+000
      vertex  2.470711e+001  2.420711e+001  1.100000e+000
      vertex  2.435267e+001  2.398541e+001  1.500000e+000
    endloop
  endfacet
  facet normal  2.728734e-001  6.587805e-001  7.011050e-001
    outer loop
      vertex  2.450000e+001  2.436603e+001  1.100000e+000
      vertex  2.425882e+001  2.446593e+001  1.100000e+000
      vertex  2.418541e+001  2.407063e+001  1.500000e+000
    endloop
  endfacet
  facet normal  3.186128e-001  6.253169e-001  7.123654e-001
    outer loop
      vertex  2.435267e+001  2.398541e+001  1.500000e+000
      vertex  2.450000e+001  2.436603e+001  1.100000e+000
      vertex  2.418541e+001  2.407063e+001  1.500000e+000
    endloop
  endfacet
  facet normal  7.071071e-001  0.000000e+000  7.071064e-001
    outer loop
      vertex  2.500000e+001  2.350000e+001  1.100000e+000
      vertex  2.460000e+001  2.350000e+001  1.500000e+000
      vertex  2.500000e+001 -2.350000e+001  1.100000e+000
    endloop
  endfacet
  facet normal  7.071071e-001  0.000000e+000  7.071064e-001
    outer loop
      vertex  2.500000e+001 -2.350000e+001  1.100000e+000
      vertex  2.460000e+001  2.350000e+001  1.500000e+000
      vertex  2.460000e+001 -2.350000e+001  1.500000e+000
    endloop
  endfacet
  facet normal  6.967357e-001 -1.103565e-001  7.087883e-001
    outer loop
      vertex  2.457063e+001 -2.368541e+001  1.500000e+000
      vertex  2.496593e+001 -2.375882e+001  1.100000e+000
      vertex  2.460000e+001 -2.350000e+001  1.500000e+000
    endloop
  endfacet
  facet normal  7.040628e-001 -9.269309e-002  7.040622e-001
    outer loop
      vertex  2.496593e+001 -2.375882e+001  1.100000e+000
      vertex  2.500000e+001 -2.350000e+001  1.100000e+000
      vertex  2.460000e+001 -2.350000e+001  1.500000e+000
    endloop
  endfacet
  facet normal  9.269309e-002 -7.040628e-001  7.040622e-001
    outer loop
      vertex  2.400000e+001 -2.450000e+001  1.100000e+000
      vertex  2.425882e+001 -2.446593e+001  1.100000e+000
      vertex  2.400000e+001 -2.410000e+001  1.500000e+000
    endloop
  endfacet
  facet normal  1.103508e-001 -6.967381e-001  7.087868e-001
    outer loop
      vertex  2.425882e+001 -2.446593e+001  1.100000e+000
      vertex  2.418541e+001 -2.407063e+001  1.500000e+000
      vertex  2.400000e+001 -2.410000e+001  1.500000e+000
    endloop
  endfacet
  facet normal  2.728737e-001 -6.587813e-001  7.011040e-001
    outer loop
      vertex  2.425882e+001 -2.446593e+001  1.100000e+000
      vertex  2.450000e+001 -2.436603e+001  1.100000e+000
      vertex  2.418541e+001 -2.407063e+001  1.500000e+000
    endloop
  endfacet
  facet normal  4.349734e-001 -5.668714e-001  6.996106e-001
    outer loop
      vertex  2.450000e+001 -2.436603e+001  1.100000e+000
      vertex  2.470711e+001 -2.420711e+001  1.100000e+000
      vertex  2.435267e+001 -2.398541e+001  1.500000e+000
    endloop
  endfacet
  facet normal  3.186156e-001 -6.253158e-001  7.123653e-001
    outer loop
      vertex  2.418541e+001 -2.407063e+001  1.500000e+000
      vertex  2.450000e+001 -2.436603e+001  1.100000e+000
      vertex  2.435267e+001 -2.398541e+001  1.500000e+000
    endloop
  endfacet
  facet normal  5.668713e-001 -4.349734e-001  6.996106e-001
    outer loop
      vertex  2.470711e+001 -2.420711e+001  1.100000e+000
      vertex  2.486603e+001 -2.400000e+001  1.100000e+000
      vertex  2.448541e+001 -2.385267e+001  1.500000e+000
    endloop
  endfacet
  facet normal  4.954040e-001 -4.954040e-001  7.135473e-001
    outer loop
      vertex  2.435267e+001 -2.398541e+001  1.500000e+000
      vertex  2.470711e+001 -2.420711e+001  1.100000e+000
      vertex  2.448541e+001 -2.385267e+001  1.500000e+000
    endloop
  endfacet
  facet normal  6.587805e-001 -2.728734e-001  7.011050e-001
    outer loop
      vertex  2.486603e+001 -2.400000e+001  1.100000e+000
      vertex  2.496593e+001 -2.375882e+001  1.100000e+000
      vertex  2.457063e+001 -2.368541e+001  1.500000e+000
    endloop
  endfacet
  facet normal  6.253169e-001 -3.186128e-001  7.123654e-001
    outer loop
      vertex  2.448541e+001 -2.385267e+001  1.500000e+000
      vertex  2.486603e+001 -2.400000e+001  1.100000e+000
      vertex  2.457063e+001 -2.368541e+001  1.500000e+000
    endloop
  endfacet
  facet normal  0.000000e+000 -7.071071e-001  7.071065e-001
    outer loop
      vertex  2.400000e+001 -2.450000e+001  1.100000e+000
      vertex  2.400000e+001 -2.410000e+001  1.500000e+000
      vertex -2.400000e+001 -2.450000e+001  1.100000e+000
    endloop
  endfacet
  facet normal  0.000000e+000 -7.071071e-001  7.071065e-001
    outer loop
      vertex -2.400000e+001 -2.450000e+001  1.100000e+000
      vertex  2.400000e+001 -2.410000e+001  1.500000e+000
      vertex -2.400000e+001 -2.410000e+001  1.500000e+000
    endloop
  endfacet
endsolid CATIA STL
