solid CATIA STL
  facet normal  0.000000e+000  0.000000e+000  1.000000e+000
    outer loop
      vertex  1.240000e+001  2.400000e+000  2.000000e+000
      vertex  0.000000e+000  1.840000e+001  2.000000e+000
      vertex  0.000000e+000  2.400000e+000  2.000000e+000
    endloop
  endfacet
  facet normal  -0.000000e+000  0.000000e+000  1.000000e+000
    outer loop
      vertex  2.840000e+001  1.840000e+001  2.000000e+000
      vertex  0.000000e+000  1.840000e+001  2.000000e+000
      vertex  1.360000e+001  2.400000e+000  2.000000e+000
    endloop
  endfacet
  facet normal  0.000000e+000  0.000000e+000  9.999999e-001
    outer loop
      vertex  1.360000e+001  2.400000e+000  2.000000e+000
      vertex  0.000000e+000  1.840000e+001  2.000000e+000
      vertex  1.240000e+001  2.400000e+000  2.000000e+000
    endloop
  endfacet
  facet normal  -0.000000e+000  0.000000e+000  1.000000e+000
    outer loop
      vertex  1.360000e+001  2.400000e+000  2.000000e+000
      vertex  1.240000e+001  2.400000e+000  2.000000e+000
      vertex  1.120000e+001  0.000000e+000  2.000000e+000
    endloop
  endfacet
  facet normal  0.000000e+000  -0.000000e+000  1.000000e+000
    outer loop
      vertex  1.120000e+001  0.000000e+000  2.000000e+000
      vertex  1.240000e+001  2.400000e+000  2.000000e+000
      vertex  1.000000e+001  0.000000e+000  2.000000e+000
    endloop
  endfacet
  facet normal  0.000000e+000  0.000000e+000  1.000000e+000
    outer loop
      vertex  4.000000e+001  2.400000e+000  2.000000e+000
      vertex  4.000000e+001  1.840000e+001  2.000000e+000
      vertex  1.360000e+001  2.400000e+000  2.000000e+000
    endloop
  endfacet
  facet normal  0.000000e+000  0.000000e+000  1.000000e+000
    outer loop
      vertex  1.360000e+001  2.400000e+000  2.000000e+000
      vertex  4.000000e+001  1.840000e+001  2.000000e+000
      vertex  2.960000e+001  1.840000e+001  2.000000e+000
    endloop
  endfacet
  facet normal  0.000000e+000  0.000000e+000  9.999999e-001
    outer loop
      vertex  1.360000e+001  2.400000e+000  2.000000e+000
      vertex  2.960000e+001  1.840000e+001  2.000000e+000
      vertex  2.840000e+001  1.840000e+001  2.000000e+000
    endloop
  endfacet
  facet normal  0.000000e+000  0.000000e+000  1.000000e+000
    outer loop
      vertex  3.080000e+001  2.080000e+001  2.000000e+000
      vertex  2.840000e+001  1.840000e+001  2.000000e+000
      vertex  3.200000e+001  2.080000e+001  2.000000e+000
    endloop
  endfacet
  facet normal  0.000000e+000  0.000000e+000  1.000000e+000
    outer loop
      vertex  3.200000e+001  2.080000e+001  2.000000e+000
      vertex  2.840000e+001  1.840000e+001  2.000000e+000
      vertex  2.960000e+001  1.840000e+001  2.000000e+000
    endloop
  endfacet
  facet normal -7.071068e-001  7.071068e-001  0.000000e+000
    outer loop
      vertex  3.200000e+001  2.080000e+001  2.000000e+000
      vertex  2.960000e+001  1.840000e+001  2.000000e+000
      vertex  3.200000e+001  2.080000e+001  1.500000e+001
    endloop
  endfacet
  facet normal -7.071068e-001  7.071068e-001  0.000000e+000
    outer loop
      vertex  3.200000e+001  2.080000e+001  1.500000e+001
      vertex  2.960000e+001  1.840000e+001  2.000000e+000
      vertex  2.960000e+001  1.840000e+001  1.500000e+001
    endloop
  endfacet
  facet normal -7.071067e-001  7.071068e-001  0.000000e+000
    outer loop
      vertex  1.360000e+001  2.400000e+000  2.000000e+000
      vertex  1.120000e+001  0.000000e+000  2.000000e+000
      vertex  1.360000e+001  2.400000e+000  1.500000e+001
    endloop
  endfacet
  facet normal -7.071067e-001  7.071068e-001  0.000000e+000
    outer loop
      vertex  1.360000e+001  2.400000e+000  1.500000e+001
      vertex  1.120000e+001  0.000000e+000  2.000000e+000
      vertex  1.120000e+001 -1.065814e-014  1.500000e+001
    endloop
  endfacet
  facet normal  7.071069e-001 -7.071067e-001  0.000000e+000
    outer loop
      vertex  1.000000e+001  0.000000e+000  2.000000e+000
      vertex  1.240000e+001  2.400000e+000  2.000000e+000
      vertex  1.000000e+001  0.000000e+000  1.500000e+001
    endloop
  endfacet
  facet normal  7.071069e-001 -7.071067e-001  0.000000e+000
    outer loop
      vertex  1.000000e+001  0.000000e+000  1.500000e+001
      vertex  1.240000e+001  2.400000e+000  2.000000e+000
      vertex  1.240000e+001  2.400000e+000  1.500000e+001
    endloop
  endfacet
  facet normal  7.071068e-001 -7.071068e-001  0.000000e+000
    outer loop
      vertex  2.840000e+001  1.840000e+001  2.000000e+000
      vertex  3.080000e+001  2.080000e+001  2.000000e+000
      vertex  2.840000e+001  1.840000e+001  1.500000e+001
    endloop
  endfacet
  facet normal  7.071068e-001 -7.071068e-001  0.000000e+000
    outer loop
      vertex  2.840000e+001  1.840000e+001  1.500000e+001
      vertex  3.080000e+001  2.080000e+001  2.000000e+000
      vertex  3.080000e+001  2.080000e+001  1.500000e+001
    endloop
  endfacet
  facet normal  3.700743e-016 -1.000000e+000  0.000000e+000
    outer loop
      vertex  4.000000e+001  0.000000e+000  1.500000e+001
      vertex  1.120000e+001 -1.065814e-014  1.500000e+001
      vertex  4.000000e+001  0.000000e+000  0.000000e+000
    endloop
  endfacet
  facet normal -5.693452e-017 -1.000000e+000 -8.198570e-016
    outer loop
      vertex  4.000000e+001  0.000000e+000  0.000000e+000
      vertex  1.120000e+001 -1.065814e-014  1.500000e+001
      vertex  1.120000e+001  0.000000e+000  2.000000e+000
    endloop
  endfacet
  facet normal  0.000000e+000 -1.000000e+000  -0.000000e+000
    outer loop
      vertex  4.000000e+001  0.000000e+000  0.000000e+000
      vertex  1.120000e+001  0.000000e+000  2.000000e+000
      vertex  0.000000e+000  0.000000e+000  0.000000e+000
    endloop
  endfacet
  facet normal  0.000000e+000 -1.000000e+000  0.000000e+000
    outer loop
      vertex  0.000000e+000  0.000000e+000  0.000000e+000
      vertex  1.120000e+001  0.000000e+000  2.000000e+000
      vertex  1.000000e+001  0.000000e+000  2.000000e+000
    endloop
  endfacet
  facet normal  -0.000000e+000 -1.000000e+000  0.000000e+000
    outer loop
      vertex  0.000000e+000  0.000000e+000  0.000000e+000
      vertex  1.000000e+001  0.000000e+000  2.000000e+000
      vertex  0.000000e+000  0.000000e+000  1.500000e+001
    endloop
  endfacet
  facet normal  0.000000e+000 -1.000000e+000  0.000000e+000
    outer loop
      vertex  0.000000e+000  0.000000e+000  1.500000e+001
      vertex  1.000000e+001  0.000000e+000  2.000000e+000
      vertex  1.000000e+001  0.000000e+000  1.500000e+001
    endloop
  endfacet
  facet normal  0.000000e+000  1.000000e+000  0.000000e+000
    outer loop
      vertex  0.000000e+000  2.080000e+001  1.500000e+001
      vertex  3.080000e+001  2.080000e+001  1.500000e+001
      vertex  0.000000e+000  2.080000e+001  0.000000e+000
    endloop
  endfacet
  facet normal  0.000000e+000  1.000000e+000  0.000000e+000
    outer loop
      vertex  0.000000e+000  2.080000e+001  0.000000e+000
      vertex  3.080000e+001  2.080000e+001  1.500000e+001
      vertex  3.080000e+001  2.080000e+001  2.000000e+000
    endloop
  endfacet
  facet normal  0.000000e+000  1.000000e+000  0.000000e+000
    outer loop
      vertex  0.000000e+000  2.080000e+001  0.000000e+000
      vertex  3.080000e+001  2.080000e+001  2.000000e+000
      vertex  4.000000e+001  2.080000e+001  0.000000e+000
    endloop
  endfacet
  facet normal  0.000000e+000  9.999999e-001  0.000000e+000
    outer loop
      vertex  4.000000e+001  2.080000e+001  0.000000e+000
      vertex  3.080000e+001  2.080000e+001  2.000000e+000
      vertex  3.200000e+001  2.080000e+001  2.000000e+000
    endloop
  endfacet
  facet normal  -0.000000e+000  1.000000e+000  0.000000e+000
    outer loop
      vertex  4.000000e+001  2.080000e+001  0.000000e+000
      vertex  3.200000e+001  2.080000e+001  2.000000e+000
      vertex  4.000000e+001  2.080000e+001  1.500000e+001
    endloop
  endfacet
  facet normal  0.000000e+000  1.000000e+000  0.000000e+000
    outer loop
      vertex  4.000000e+001  2.080000e+001  1.500000e+001
      vertex  3.200000e+001  2.080000e+001  2.000000e+000
      vertex  3.200000e+001  2.080000e+001  1.500000e+001
    endloop
  endfacet
  facet normal  0.000000e+000  0.000000e+000  1.000000e+000
    outer loop
      vertex  2.960000e+001  1.840000e+001  1.500000e+001
      vertex  4.000000e+001  1.840000e+001  1.500000e+001
      vertex  3.200000e+001  2.080000e+001  1.500000e+001
    endloop
  endfacet
  facet normal  -0.000000e+000  0.000000e+000  1.000000e+000
    outer loop
      vertex  3.200000e+001  2.080000e+001  1.500000e+001
      vertex  4.000000e+001  1.840000e+001  1.500000e+001
      vertex  4.000000e+001  2.080000e+001  1.500000e+001
    endloop
  endfacet
  facet normal  0.000000e+000  0.000000e+000  1.000000e+000
    outer loop
      vertex -6.984919e-010  1.840000e+001  1.500000e+001
      vertex  2.840000e+001  1.840000e+001  1.500000e+001
      vertex  0.000000e+000  2.080000e+001  1.500000e+001
    endloop
  endfacet
  facet normal  -0.000000e+000  0.000000e+000  9.999999e-001
    outer loop
      vertex  0.000000e+000  2.080000e+001  1.500000e+001
      vertex  2.840000e+001  1.840000e+001  1.500000e+001
      vertex  3.080000e+001  2.080000e+001  1.500000e+001
    endloop
  endfacet
  facet normal  0.000000e+000  0.000000e+000  1.000000e+000
    outer loop
      vertex  0.000000e+000  0.000000e+000  1.500000e+001
      vertex  1.000000e+001  0.000000e+000  1.500000e+001
      vertex  1.396984e-009  2.400000e+000  1.500000e+001
    endloop
  endfacet
  facet normal  -0.000000e+000  0.000000e+000  1.000000e+000
    outer loop
      vertex  1.396984e-009  2.400000e+000  1.500000e+001
      vertex  1.000000e+001  0.000000e+000  1.500000e+001
      vertex  1.240000e+001  2.400000e+000  1.500000e+001
    endloop
  endfacet
  facet normal  0.000000e+000  0.000000e+000  1.000000e+000
    outer loop
      vertex  1.120000e+001 -1.065814e-014  1.500000e+001
      vertex  4.000000e+001  0.000000e+000  1.500000e+001
      vertex  1.360000e+001  2.400000e+000  1.500000e+001
    endloop
  endfacet
  facet normal  -0.000000e+000  0.000000e+000  9.999999e-001
    outer loop
      vertex  1.360000e+001  2.400000e+000  1.500000e+001
      vertex  4.000000e+001  0.000000e+000  1.500000e+001
      vertex  4.000000e+001  2.400000e+000  1.500000e+001
    endloop
  endfacet
  facet normal  0.000000e+000  1.000000e+000  0.000000e+000
    outer loop
      vertex  1.360000e+001  2.400000e+000  1.500000e+001
      vertex  4.000000e+001  2.400000e+000  1.500000e+001
      vertex  1.360000e+001  2.400000e+000  2.000000e+000
    endloop
  endfacet
  facet normal  0.000000e+000  1.000000e+000  0.000000e+000
    outer loop
      vertex  1.360000e+001  2.400000e+000  2.000000e+000
      vertex  4.000000e+001  2.400000e+000  1.500000e+001
      vertex  4.000000e+001  2.400000e+000  2.000000e+000
    endloop
  endfacet
  facet normal  0.000000e+000  1.000000e+000  0.000000e+000
    outer loop
      vertex  1.396984e-009  2.400000e+000  1.500000e+001
      vertex  1.240000e+001  2.400000e+000  1.500000e+001
      vertex  0.000000e+000  2.400000e+000  2.000000e+000
    endloop
  endfacet
  facet normal  0.000000e+000  1.000000e+000  0.000000e+000
    outer loop
      vertex  0.000000e+000  2.400000e+000  2.000000e+000
      vertex  1.240000e+001  2.400000e+000  1.500000e+001
      vertex  1.240000e+001  2.400000e+000  2.000000e+000
    endloop
  endfacet
  facet normal  0.000000e+000 -1.000000e+000  0.000000e+000
    outer loop
      vertex  2.840000e+001  1.840000e+001  1.500000e+001
      vertex -6.984919e-010  1.840000e+001  1.500000e+001
      vertex  2.840000e+001  1.840000e+001  2.000000e+000
    endloop
  endfacet
  facet normal  0.000000e+000 -1.000000e+000  0.000000e+000
    outer loop
      vertex  2.840000e+001  1.840000e+001  2.000000e+000
      vertex -6.984919e-010  1.840000e+001  1.500000e+001
      vertex  0.000000e+000  1.840000e+001  2.000000e+000
    endloop
  endfacet
  facet normal  0.000000e+000 -1.000000e+000  0.000000e+000
    outer loop
      vertex  4.000000e+001  1.840000e+001  1.500000e+001
      vertex  2.960000e+001  1.840000e+001  1.500000e+001
      vertex  4.000000e+001  1.840000e+001  2.000000e+000
    endloop
  endfacet
  facet normal  0.000000e+000 -1.000000e+000  0.000000e+000
    outer loop
      vertex  4.000000e+001  1.840000e+001  2.000000e+000
      vertex  2.960000e+001  1.840000e+001  1.500000e+001
      vertex  2.960000e+001  1.840000e+001  2.000000e+000
    endloop
  endfacet
  facet normal  1.000000e+000  -0.000000e+000  0.000000e+000
    outer loop
      vertex  4.000000e+001  2.080000e+001  1.500000e+001
      vertex  4.000000e+001  1.840000e+001  1.500000e+001
      vertex  4.000000e+001  2.080000e+001  0.000000e+000
    endloop
  endfacet
  facet normal  9.999999e-001  0.000000e+000  0.000000e+000
    outer loop
      vertex  4.000000e+001  2.080000e+001  0.000000e+000
      vertex  4.000000e+001  1.840000e+001  1.500000e+001
      vertex  4.000000e+001  1.840000e+001  2.000000e+000
    endloop
  endfacet
  facet normal  1.000000e+000  0.000000e+000  0.000000e+000
    outer loop
      vertex  4.000000e+001  2.080000e+001  0.000000e+000
      vertex  4.000000e+001  1.840000e+001  2.000000e+000
      vertex  4.000000e+001  0.000000e+000  0.000000e+000
    endloop
  endfacet
  facet normal  1.000000e+000  0.000000e+000  0.000000e+000
    outer loop
      vertex  4.000000e+001  0.000000e+000  0.000000e+000
      vertex  4.000000e+001  1.840000e+001  2.000000e+000
      vertex  4.000000e+001  2.400000e+000  2.000000e+000
    endloop
  endfacet
  facet normal  1.000000e+000  0.000000e+000  0.000000e+000
    outer loop
      vertex  4.000000e+001  0.000000e+000  0.000000e+000
      vertex  4.000000e+001  2.400000e+000  2.000000e+000
      vertex  4.000000e+001  0.000000e+000  1.500000e+001
    endloop
  endfacet
  facet normal  9.999999e-001  -0.000000e+000  0.000000e+000
    outer loop
      vertex  4.000000e+001  0.000000e+000  1.500000e+001
      vertex  4.000000e+001  2.400000e+000  2.000000e+000
      vertex  4.000000e+001  2.400000e+000  1.500000e+001
    endloop
  endfacet
  facet normal -1.000000e+000  5.820766e-010  0.000000e+000
    outer loop
      vertex  0.000000e+000  0.000000e+000  1.500000e+001
      vertex  1.396984e-009  2.400000e+000  1.500000e+001
      vertex  0.000000e+000  0.000000e+000  0.000000e+000
    endloop
  endfacet
  facet normal -9.999999e-001 -8.955024e-011  1.074603e-010
    outer loop
      vertex  0.000000e+000  0.000000e+000  0.000000e+000
      vertex  1.396984e-009  2.400000e+000  1.500000e+001
      vertex  0.000000e+000  2.400000e+000  2.000000e+000
    endloop
  endfacet
  facet normal -1.000000e+000  0.000000e+000  -0.000000e+000
    outer loop
      vertex  0.000000e+000  0.000000e+000  0.000000e+000
      vertex  0.000000e+000  2.400000e+000  2.000000e+000
      vertex  0.000000e+000  2.080000e+001  0.000000e+000
    endloop
  endfacet
  facet normal -1.000000e+000  0.000000e+000  0.000000e+000
    outer loop
      vertex  0.000000e+000  2.080000e+001  0.000000e+000
      vertex  0.000000e+000  2.400000e+000  2.000000e+000
      vertex  0.000000e+000  1.840000e+001  2.000000e+000
    endloop
  endfacet
  facet normal -1.000000e+000  0.000000e+000  0.000000e+000
    outer loop
      vertex  0.000000e+000  2.080000e+001  0.000000e+000
      vertex  0.000000e+000  1.840000e+001  2.000000e+000
      vertex  0.000000e+000  2.080000e+001  1.500000e+001
    endloop
  endfacet
  facet normal -1.000000e+000  2.910384e-010 -5.373015e-011
    outer loop
      vertex  0.000000e+000  2.080000e+001  1.500000e+001
      vertex  0.000000e+000  1.840000e+001  2.000000e+000
      vertex -6.984919e-010  1.840000e+001  1.500000e+001
    endloop
  endfacet
  facet normal  0.000000e+000  0.000000e+000 -1.000000e+000
    outer loop
      vertex  0.000000e+000  0.000000e+000  0.000000e+000
      vertex  0.000000e+000  2.080000e+001  0.000000e+000
      vertex  4.000000e+001  0.000000e+000  0.000000e+000
    endloop
  endfacet
  facet normal  0.000000e+000  0.000000e+000 -1.000000e+000
    outer loop
      vertex  4.000000e+001  0.000000e+000  0.000000e+000
      vertex  0.000000e+000  2.080000e+001  0.000000e+000
      vertex  4.000000e+001  2.080000e+001  0.000000e+000
    endloop
  endfacet
endsolid CATIA STL
